<svg xmlns="http://www.w3.org/2000/svg" xmlns:xlink="http://www.w3.org/1999/xlink" version="1.1" viewBox="0 0 3987 1916" style="background: #ffffff"><defs joint-selector="defs"></defs><g  joint-selector="layers" transform="matrix(1,0,0,1,0,0)"><g ></g><g ><g   id="j_207"  transform="translate(20,1871)"><g id="v-2974"><text  id="v-2975" font-size="22px" xml:space="preserve" y="0.8em" font-weight="normal" text-anchor="start" fill="#aaaaaa" pointer-events="none" font-family="Open Sans"><tspan  dy="0">Thursday, 23 February 2023 at 16:07 Greenwich Mean Time</tspan></text></g></g><g   id="j_206"  transform="translate(20,1827)"><g id="v-2972"><text  id="v-2973" font-size="36px" xml:space="preserve" y="0.8em" font-weight="normal" text-anchor="start" fill="#000000" pointer-events="none" font-family="Open Sans"><tspan  dy="0">[Component] Modernising Lasting Power of Attorney - Staging API/Database</tspan></text></g></g><g   id="j_190"  transform="translate(309,788)" style=""><g id="v-2729"><rect  id="v-2730" width="2740" height="413" rx="0" ry="0" fill="#ffffff" stroke="#3c7fc0" stroke-width="1" stroke-dasharray="20,20" pointer-events="none"></rect><text  id="v-2731" font-size="24px" xml:space="preserve" y="374" font-weight="normal" fill="#3c7fc0" text-anchor="start" pointer-events="visible" font-family="Open Sans" transform="matrix(1,0,0,1,15,0)"><tspan  dy="0">Staging API/Database</tspan></text><text  id="v-2732" font-size="19px" xml:space="preserve" y="398" font-weight="normal" fill="#3c7fc0" text-anchor="start" pointer-events="visible" font-family="Open Sans" transform="matrix(1,0,0,1,15,0)"><tspan  dy="0">[Container]</tspan></text><image  id="v-2733" pointer-events="visible"></image></g></g><g   id="j_191"  transform="translate(1829,1408)" style=""><g  id="v-2740" style="opacity: 1;"><rect  id="v-2741" rx="20" ry="20" stroke="#3c7fc0" stroke-width="2" pointer-events="visiblePainted" fill="#438dd5" width="450" height="300" style="fill: rgb(67, 141, 213); stroke: rgb(60, 127, 192);"></rect><text  id="v-2742" font-size="34" xml:space="preserve" y="0.8em" font-weight="bold" text-anchor="middle" pointer-events="visible" font-family="Open Sans" fill="#ffffff" transform="matrix(1,0,0,1,225,90)" style="fill: rgb(255, 255, 255);"><tspan  dy="0">Registered LPA Write API</tspan></text><text  id="v-2743" font-size="19" xml:space="preserve" y="0.8em" text-anchor="middle" font-family="Open Sans" fill="#ffffff" transform="matrix(1,0,0,1,225,132.5)" style="fill: rgb(255, 255, 255);"><tspan  dy="0">[Container: API Gateway, Go]</tspan></text><text  id="v-2744" font-size="24" xml:space="preserve" y="0.8em" text-anchor="middle" font-family="Open Sans" fill="#ffffff" transform="matrix(1,0,0,1,225,180)" style="fill: rgb(255, 255, 255);"><tspan  dy="0">API for writing registered LPA data.</tspan></text><text  id="v-2745" font-weight="normal" text-anchor="middle" font-family="Open Sans" fill="#ffffff" font-size="34" transform="matrix(1,0,0,1,225,251)" xml:space="preserve" display="none" y="0.8em" style="fill: rgb(255, 255, 255);"><tspan style="fill-opacity: 0; stroke-opacity: 0;"  dy="0">-</tspan></text><image  id="v-2746"></image></g></g><g   id="j_192"  transform="translate(3312,208)" style=""><g  id="v-2753" style="opacity: 1;"><rect  id="v-2754" rx="20" ry="20" stroke="#3c7fc0" stroke-width="2" pointer-events="visiblePainted" fill="#438dd5" width="450" height="300" style="fill: rgb(67, 141, 213); stroke: rgb(60, 127, 192);"></rect><text  id="v-2755" font-size="34" xml:space="preserve" y="0.8em" font-weight="bold" text-anchor="middle" pointer-events="visible" font-family="Open Sans" fill="#ffffff" transform="matrix(1,0,0,1,225,75)" style="fill: rgb(255, 255, 255);"><tspan  dy="0">LPA Paper Ingestion API</tspan></text><text  id="v-2756" font-size="19" xml:space="preserve" y="0.8em" text-anchor="middle" font-family="Open Sans" fill="#ffffff" transform="matrix(1,0,0,1,225,117.5)" style="fill: rgb(255, 255, 255);"><tspan  dy="0">[Container: API Gateway, Go]</tspan></text><text  id="v-2757" font-size="24" xml:space="preserve" y="0.8em" text-anchor="middle" font-family="Open Sans" fill="#ffffff" transform="matrix(1,0,0,1,225,165)" style="fill: rgb(255, 255, 255);"><tspan  dy="0">Handles the ingestion of the Paper</tspan><tspan dy="1.2em" x="0" >Journey.</tspan></text><text  id="v-2758" font-weight="normal" text-anchor="middle" font-family="Open Sans" fill="#ffffff" font-size="34" transform="matrix(1,0,0,1,225,251)" xml:space="preserve" display="none" y="0.8em" style="fill: rgb(255, 255, 255);"><tspan style="fill-opacity: 0; stroke-opacity: 0;"  dy="0">-</tspan></text><image  id="v-2759"></image></g></g><g   id="j_193"  transform="translate(1812,208)" style=""><g  id="v-2769" style="opacity: 1;"><rect  id="v-2770" rx="10" ry="10" stroke="#3c7fc0" stroke-width="2" pointer-events="visiblePainted" fill="#3c7fc0" width="450" height="300" style="fill: rgb(60, 127, 192); stroke: rgb(60, 127, 192);"></rect><rect  id="v-2771" rx="10" ry="10" stroke="#3c7fc0" stroke-width="0" pointer-events="visiblePainted" fill="#438dd5" width="430" height="250" x="10" y="40" style="fill: rgb(67, 141, 213);"></rect><ellipse  id="v-2778" fill="#438dd5" cx="20" cy="20" rx="10" ry="10" style="fill: rgb(67, 141, 213);"></ellipse><ellipse  id="v-2779" fill="#438dd5" cx="50" cy="20" rx="10" ry="10" style="fill: rgb(67, 141, 213);"></ellipse><ellipse  id="v-2780" fill="#438dd5" cx="80" cy="20" rx="10" ry="10" style="fill: rgb(67, 141, 213);"></ellipse><rect  id="v-2772" rx="10" ry="10" stroke="#444444" stroke-width="0" pointer-events="visiblePainted" fill="#438dd5" width="340" height="20" x="100" y="10" style="fill: rgb(67, 141, 213);"></rect><text  id="v-2773" font-size="34" xml:space="preserve" y="0.8em" font-weight="bold" text-anchor="middle" pointer-events="visible" font-family="Open Sans" fill="#ffffff" transform="matrix(1,0,0,1,225,73.80000305175781)" style="fill: rgb(255, 255, 255);"><tspan  dy="0">Make a Lasting Power of</tspan><tspan dy="1.2em" x="0" >Attorney Online</tspan></text><text  id="v-2774" font-size="19" xml:space="preserve" y="0.8em" text-anchor="middle" font-family="Open Sans" fill="#ffffff" transform="matrix(1,0,0,1,225,158.8000030517578)" style="fill: rgb(255, 255, 255);"><tspan  dy="0">[Container: Go, HTML, CSS, JS]</tspan></text><text  id="v-2775" font-size="24" xml:space="preserve" y="0.8em" text-anchor="middle" font-family="Open Sans" fill="#ffffff" transform="matrix(1,0,0,1,225,206.3000030517578)" style="fill: rgb(255, 255, 255);"><tspan  dy="0">Allows users to draft a Lasting Power</tspan><tspan dy="1.2em" x="0" >of Attorney online.</tspan></text><text  id="v-2776" font-weight="normal" text-anchor="middle" font-family="Open Sans" fill="#ffffff" font-size="34" transform="matrix(1,0,0,1,225,251)" xml:space="preserve" display="none" y="0.8em" style="fill: rgb(255, 255, 255);"><tspan style="fill-opacity: 0; stroke-opacity: 0;"  dy="0">-</tspan></text><image  id="v-2777"></image></g></g><g   id="j_194"  transform="translate(2933,1408)" style=""><g  id="v-2787" style="opacity: 1;"><rect  id="v-2788" rx="20" ry="20" stroke="#8a8a8a" stroke-width="2" pointer-events="visiblePainted" fill="#999999" width="450" height="300" style="fill: rgb(153, 153, 153); stroke: rgb(138, 138, 138);"></rect><text  id="v-2789" font-size="34" xml:space="preserve" y="0.8em" font-weight="bold" text-anchor="middle" pointer-events="visible" font-family="Open Sans" fill="#ffffff" transform="matrix(1,0,0,1,225,75)" style="fill: rgb(255, 255, 255);"><tspan  dy="0">Sirius Public API</tspan></text><text  id="v-2790" font-size="19" xml:space="preserve" y="0.8em" text-anchor="middle" font-family="Open Sans" fill="#ffffff" transform="matrix(1,0,0,1,225,117.5)" style="fill: rgb(255, 255, 255);"><tspan  dy="0">[Container: API Gateway, Go]</tspan></text><text  id="v-2791" font-size="24" xml:space="preserve" y="0.8em" text-anchor="middle" font-family="Open Sans" fill="#ffffff" transform="matrix(1,0,0,1,225,165)" style="fill: rgb(255, 255, 255);"><tspan  dy="0">Interaction point between Sirius Case</tspan><tspan dy="1.2em" x="0" >Management and other services.</tspan></text><text  id="v-2792" font-weight="normal" text-anchor="middle" font-family="Open Sans" fill="#ffffff" font-size="34" transform="matrix(1,0,0,1,225,251)" xml:space="preserve" display="none" y="0.8em" style="fill: rgb(255, 255, 255);"><tspan style="fill-opacity: 0; stroke-opacity: 0;"  dy="0">-</tspan></text><image  id="v-2793"></image></g></g><g   id="j_195"  transform="translate(2579,808)" style=""><g  id="v-2794" style="opacity: 1;"><rect  id="v-2795" rx="20" ry="20" stroke="#78a8d8" stroke-width="2" pointer-events="visiblePainted" fill="#85bbf0" width="450" height="300" style="fill: rgb(133, 187, 240); stroke: rgb(120, 168, 216);"></rect><text  id="v-2796" font-size="34" xml:space="preserve" y="0.8em" font-weight="bold" text-anchor="middle" pointer-events="visible" font-family="Open Sans" fill="#000000" transform="matrix(1,0,0,1,225,90)" style="fill: rgb(0, 0, 0);"><tspan  dy="0">API</tspan></text><text  id="v-2797" font-size="19" xml:space="preserve" y="0.8em" text-anchor="middle" font-family="Open Sans" fill="#000000" transform="matrix(1,0,0,1,225,132.5)" style="fill: rgb(0, 0, 0);"><tspan  dy="0">[Component: API Gateway, Go]</tspan></text><text  id="v-2798" font-size="24" xml:space="preserve" y="0.8em" text-anchor="middle" font-family="Open Sans" fill="#000000" transform="matrix(1,0,0,1,225,180)" style="fill: rgb(0, 0, 0);"><tspan  dy="0">Managing LPA data</tspan></text><text  id="v-2799" font-weight="normal" text-anchor="middle" font-family="Open Sans" fill="#000000" font-size="34" transform="matrix(1,0,0,1,225,251)" xml:space="preserve" display="none" y="0.8em" style="fill: rgb(0, 0, 0);"><tspan style="fill-opacity: 0; stroke-opacity: 0;"  dy="0">-</tspan></text><image  id="v-2800"></image></g></g><g   id="j_196"  transform="translate(1829,808)" style=""><g  id="v-2807" style="opacity: 1;"><rect  id="v-2808" rx="20" ry="20" stroke="#78a8d8" stroke-width="2" pointer-events="visiblePainted" fill="#85bbf0" width="450" height="300" style="fill: rgb(133, 187, 240); stroke: rgb(120, 168, 216);"></rect><text  id="v-2809" font-size="34" xml:space="preserve" y="0.8em" font-weight="bold" text-anchor="middle" pointer-events="visible" font-family="Open Sans" fill="#000000" transform="matrix(1,0,0,1,225,75)" style="fill: rgb(0, 0, 0);"><tspan  dy="0">Sirius Staging API</tspan></text><text  id="v-2810" font-size="19" xml:space="preserve" y="0.8em" text-anchor="middle" font-family="Open Sans" fill="#000000" transform="matrix(1,0,0,1,225,117.5)" style="fill: rgb(0, 0, 0);"><tspan  dy="0">[Component: API Gateway, Go]</tspan></text><text  id="v-2811" font-size="24" xml:space="preserve" y="0.8em" text-anchor="middle" font-family="Open Sans" fill="#000000" transform="matrix(1,0,0,1,225,165)" style="fill: rgb(0, 0, 0);"><tspan  dy="0">Managing Case Worker specific</tspan><tspan dy="1.2em" x="0" >access</tspan></text><text  id="v-2812" font-weight="normal" text-anchor="middle" font-family="Open Sans" fill="#000000" font-size="34" transform="matrix(1,0,0,1,225,251)" xml:space="preserve" display="none" y="0.8em" style="fill: rgb(0, 0, 0);"><tspan style="fill-opacity: 0; stroke-opacity: 0;"  dy="0">-</tspan></text><image  id="v-2813"></image></g></g><g   id="j_197"  transform="translate(1079,808)" style=""><g  id="v-2817" style="opacity: 1;"><path  d="M 0,30 a 225,30 0,0,0 450 0 a 225,30 0,0,0 -450 0 l 0,240 a 225,30 0,0,0 450 0 l 0,-240" id="v-2818" stroke="#78a8d8" stroke-width="2" pointer-events="visiblePainted" fill="#85bbf0" style="fill: rgb(133, 187, 240); stroke: rgb(120, 168, 216);"></path><rect  id="v-2819" stroke-width="0" pointer-events="visiblePainted" fill="none" stroke="none" width="450" height="270" x="0" y="30"></rect><text  id="v-2820" font-size="34px" xml:space="preserve" y="0.8em" font-weight="bold" text-anchor="middle" pointer-events="visible" font-family="Open Sans" fill="#000000" transform="matrix(1,0,0,1,225,105)" style="fill: rgb(0, 0, 0);"><tspan  dy="0">Draft LPA Database</tspan></text><text  id="v-2821" font-size="19px" xml:space="preserve" y="0.8em" text-anchor="middle" font-family="Open Sans" fill="#000000" transform="matrix(1,0,0,1,225,147.5)" style="fill: rgb(0, 0, 0);"><tspan  dy="0">[Component: DynamoDB]</tspan></text><text  id="v-2822" font-size="24px" xml:space="preserve" y="0.8em" text-anchor="middle" font-family="Open Sans" fill="#000000" transform="matrix(1,0,0,1,225,195)" style="fill: rgb(0, 0, 0);"><tspan  dy="0">Stores Draft LPA data.</tspan></text><text  id="v-2823" font-weight="normal" text-anchor="middle" font-family="Open Sans" fill="#000000" font-size="34" transform="matrix(1,0,0,1,225,251)" xml:space="preserve" display="none" y="0.8em" style="fill: rgb(0, 0, 0);"><tspan style="fill-opacity: 0; stroke-opacity: 0;"  dy="0">-</tspan></text><image  id="v-2824"></image></g></g><g   id="j_198"  transform="translate(329,808)" style=""><g  id="v-2828" style="opacity: 1;"><rect  id="v-2829" rx="20" ry="20" stroke="#78a8d8" stroke-width="2" pointer-events="visiblePainted" fill="#85bbf0" width="450" height="300" style="fill: rgb(133, 187, 240); stroke: rgb(120, 168, 216);"></rect><text  id="v-2830" font-size="34" xml:space="preserve" y="0.8em" font-weight="bold" text-anchor="middle" pointer-events="visible" font-family="Open Sans" fill="#000000" transform="matrix(1,0,0,1,225,75)" style="fill: rgb(0, 0, 0);"><tspan  dy="0">App</tspan></text><text  id="v-2831" font-size="19" xml:space="preserve" y="0.8em" text-anchor="middle" font-family="Open Sans" fill="#000000" transform="matrix(1,0,0,1,225,117.5)" style="fill: rgb(0, 0, 0);"><tspan  dy="0">[Component: Go]</tspan></text><text  id="v-2832" font-size="24" xml:space="preserve" y="0.8em" text-anchor="middle" font-family="Open Sans" fill="#000000" transform="matrix(1,0,0,1,225,165)" style="fill: rgb(0, 0, 0);"><tspan  dy="0">Manages data events and business</tspan><tspan dy="1.2em" x="0" >logic.</tspan></text><text  id="v-2833" font-weight="normal" text-anchor="middle" font-family="Open Sans" fill="#000000" font-size="34" transform="matrix(1,0,0,1,225,251)" xml:space="preserve" display="none" y="0.8em" style="fill: rgb(0, 0, 0);"><tspan style="fill-opacity: 0; stroke-opacity: 0;"  dy="0">-</tspan></text><image  id="v-2834"></image></g></g><g   id="j_199"  transform="translate(2562,208)" style=""><g  id="v-2835" style="opacity: 1;"><rect  id="v-2836" rx="20" ry="20" stroke="#3c7fc0" stroke-width="2" pointer-events="visiblePainted" fill="#438dd5" width="450" height="300" style="fill: rgb(67, 141, 213); stroke: rgb(60, 127, 192);"></rect><text  id="v-2837" font-size="34" xml:space="preserve" y="0.8em" font-weight="bold" text-anchor="middle" pointer-events="visible" font-family="Open Sans" fill="#ffffff" transform="matrix(1,0,0,1,225,90)" style="fill: rgb(255, 255, 255);"><tspan  dy="0">LPA ID API</tspan></text><text  id="v-2838" font-size="19" xml:space="preserve" y="0.8em" text-anchor="middle" font-family="Open Sans" fill="#ffffff" transform="matrix(1,0,0,1,225,132.5)" style="fill: rgb(255, 255, 255);"><tspan  dy="0">[Container: API Gateway, Go]</tspan></text><text  id="v-2839" font-size="24" xml:space="preserve" y="0.8em" text-anchor="middle" font-family="Open Sans" fill="#ffffff" transform="matrix(1,0,0,1,225,180)" style="fill: rgb(255, 255, 255);"><tspan  dy="0">Manages the LPA IDs.</tspan></text><text  id="v-2840" font-weight="normal" text-anchor="middle" font-family="Open Sans" fill="#ffffff" font-size="34" transform="matrix(1,0,0,1,225,251)" xml:space="preserve" display="none" y="0.8em" style="fill: rgb(255, 255, 255);"><tspan style="fill-opacity: 0; stroke-opacity: 0;"  dy="0">-</tspan></text><image  id="v-2841"></image></g></g><g   id="j_200" ><path  stroke="#707070" d="M 2275 1108 L 2421 1206 C 2426.333333333333 1210 2432 1213.3333333333333 2438 1216 L 2933 1451" id="v-2858" stroke-width="2" stroke-dasharray="30 30" fill="none" style="opacity: 1;"></path><path  fill="black" stroke="black" d="M 0 0 0 0" transform="matrix(0.827946126461029,0.5608075857162476,-0.5608075857162476,0.827946126461029,2275.4599609375,1108)"></path><path  fill="#707070" stroke="#707070" d="M 20 0 L 0 10 L 20 20 z" id="v-2860" transform="matrix(-0.903409481048584,-0.42877888679504395,0.42877888679504395,-0.903409481048584,2928.712158203125,1460.244140625)" style="opacity: 1;"></path><path  d="M 2275 1108 L 2421 1206 C 2426.333333333333 1210 2432 1213.3333333333333 2438 1216 L 2933 1451" id="v-2859" fill="none" style="cursor: auto; pointer-events: visiblepainted;"></path><g ><g id="v-2849"  label-idx="0" cursor="move" transform="matrix(1,0,0,1,2597.1494140625,1291.5557861328125)" style="opacity: 1;"><rect joint-selector="rect" id="v-2853" fill="#ffffff" rx="3" ry="3" stroke="#ffffff" stroke-width="20px" pointer-events="none" width="191.29998779296875" height="122.15000534057617" transform="matrix(1,0,0,1,-95.69999694824219,-61.099998474121094)"></rect><text joint-selector="text" id="v-2852" font-size="24px" xml:space="preserve" y="0.8em" fill="#707070" text-anchor="middle" pointer-events="none" font-family="Open Sans" font-weight="normal" transform="matrix(1,0,0,1,0,-52.79999923706055)"><tspan  dy="0">writes case</tspan><tspan dy="1.2em" x="0" >management</tspan><tspan dy="1.2em" x="0" >data to and read</tspan><tspan dy="1.2em" x="0" >data from</tspan></text></g><g id="v-2850"  label-idx="1" cursor="move" transform="matrix(1,0,0,1,2597.1494140625,1361.15576171875)" style="opacity: 1;"><rect joint-selector="rect" id="v-2855" fill="#ffffff" rx="3" ry="3" pointer-events="none" width="0" height="0" transform="matrix(1,0,0,1,0,0)"></rect><text joint-selector="text" id="v-2854" font-size="19px" xml:space="preserve" display="none" y="0.8em" fill="#707070" text-anchor="middle" pointer-events="none" font-family="Open Sans" font-weight="normal"><tspan style="fill-opacity: 0; stroke-opacity: 0;"  dy="0">-</tspan></text></g><g id="v-2851"  label-idx="2" cursor="move" transform="matrix(1,0,0,1,2597.1494140625,1385.15576171875)" style="opacity: 1;"><rect joint-selector="rect" id="v-2857" fill="#ffffff" rx="3" ry="3" pointer-events="none"  width="0" height="0" transform="matrix(1,0,0,1,0,0)" display="none"></rect><text joint-selector="text" id="v-2856" font-size="19px" xml:space="preserve" display="none" y="0.8em" fill="#707070" text-anchor="middle" pointer-events="none" font-family="Open Sans" font-weight="normal" ><tspan style="fill-opacity: 0; stroke-opacity: 0;"  dy="0">-</tspan></text></g></g><g  display="none" style="display: none;"><g  transform="translate(2429, 1212)" id="v-2846"><circle  idx="0" r="10"></circle><path  idx="0" d="M16,5.333c-7.732,0-14,4.701-14,10.5c0,1.982,0.741,3.833,2.016,5.414L2,25.667l5.613-1.441c2.339,1.317,5.237,2.107,8.387,2.107c7.732,0,14-4.701,14-10.5C30,10.034,23.732,5.333,16,5.333z" transform="translate(5, -33)"></path><path  idx="0" transform="scale(.8) translate(9.5, -37)" d="M24.778,21.419 19.276,15.917 24.777,10.415 21.949,7.585 16.447,13.087 10.945,7.585 8.117,10.415 13.618,15.917 8.116,21.419 10.946,24.248 16.447,18.746 21.948,24.248z"><title>Remove vertex.</title></path></g></g><g  id="v-2862" display="none"><g  id="v-2847"><path  end="source" d="M 26 0 L 0 13 L 26 26 z"></path></g><g  id="v-2848"><path  end="target" d="M 26 0 L 0 13 L 26 26 z"></path></g></g><g  id="v-2861" display="none"><g  id="v-2845" transform="translate(2308.211852807127, 1130.2928875006744) "><g  event="remove"><circle r="11"></circle><path transform="scale(.8) translate(-16, -16)" d="M24.778,21.419 19.276,15.917 24.777,10.415 21.949,7.585 16.447,13.087 10.945,7.585 8.117,10.415 13.618,15.917 8.116,21.419 10.946,24.248 16.447,18.746 21.948,24.248z"></path><title>Remove link.</title></g><g  event="link:options"><circle r="11" transform="translate(25)"></circle><path fill="white" transform="scale(.55) translate(29, -16)" d="M31.229,17.736c0.064-0.571,0.104-1.148,0.104-1.736s-0.04-1.166-0.104-1.737l-4.377-1.557c-0.218-0.716-0.504-1.401-0.851-2.05l1.993-4.192c-0.725-0.91-1.549-1.734-2.458-2.459l-4.193,1.994c-0.647-0.347-1.334-0.632-2.049-0.849l-1.558-4.378C17.165,0.708,16.588,0.667,16,0.667s-1.166,0.041-1.737,0.105L12.707,5.15c-0.716,0.217-1.401,0.502-2.05,0.849L6.464,4.005C5.554,4.73,4.73,5.554,4.005,6.464l1.994,4.192c-0.347,0.648-0.632,1.334-0.849,2.05l-4.378,1.557C0.708,14.834,0.667,15.412,0.667,16s0.041,1.165,0.105,1.736l4.378,1.558c0.217,0.715,0.502,1.401,0.849,2.049l-1.994,4.193c0.725,0.909,1.549,1.733,2.459,2.458l4.192-1.993c0.648,0.347,1.334,0.633,2.05,0.851l1.557,4.377c0.571,0.064,1.148,0.104,1.737,0.104c0.588,0,1.165-0.04,1.736-0.104l1.558-4.377c0.715-0.218,1.399-0.504,2.049-0.851l4.193,1.993c0.909-0.725,1.733-1.549,2.458-2.458l-1.993-4.193c0.347-0.647,0.633-1.334,0.851-2.049L31.229,17.736zM16,20.871c-2.69,0-4.872-2.182-4.872-4.871c0-2.69,2.182-4.872,4.872-4.872c2.689,0,4.871,2.182,4.871,4.872C20.871,18.689,18.689,20.871,16,20.871z"></path><title>Link options.</title></g></g></g></g><g   id="j_201" ><path  stroke="#707070" d="M 2054 1108 L 2054 1408" id="v-2878" stroke-width="2" stroke-dasharray="30 30" fill="none" style="opacity: 1;"></path><path  fill="black" stroke="black" d="M 0 0 0 0" transform="matrix(6.123234262925839e-17,1,-1,6.123234262925839e-17,2054,1108)"></path><path  fill="#707070" stroke="#707070" d="M 20 0 L 0 10 L 20 20 z" id="v-2880" transform="matrix(-1.8369701465288538e-16,-1,1,-1.8369701465288538e-16,2044,1408)" style="opacity: 1;"></path><path  d="M 2054 1108 L 2054 1408" id="v-2879" fill="none" style="cursor: auto; pointer-events: visiblepainted;"></path><g ><g id="v-2869"  label-idx="0" cursor="move" transform="matrix(1,0,0,1,2054,1258)" style="opacity: 1;"><rect joint-selector="rect" id="v-2873" fill="#ffffff" rx="3" ry="3" stroke="#ffffff" stroke-width="20px" pointer-events="none" width="181.9499969482422" height="64.55000305175781" transform="matrix(1,0,0,1,-91,-32.29999923706055)"></rect><text joint-selector="text" id="v-2872" font-size="24px" xml:space="preserve" y="0.8em" fill="#707070" text-anchor="middle" pointer-events="none" font-family="Open Sans" font-weight="normal" transform="matrix(1,0,0,1,0,-24)"><tspan  dy="0">writes validated</tspan><tspan dy="1.2em" x="0" >data to</tspan></text></g><g id="v-2870"  label-idx="1" cursor="move" transform="matrix(1,0,0,1,2054,1301.199951171875)" style="opacity: 1;"><rect joint-selector="rect" id="v-2875" fill="#ffffff" rx="3" ry="3" pointer-events="none" width="0" height="0" transform="matrix(1,0,0,1,0,0)"></rect><text joint-selector="text" id="v-2874" font-size="19px" xml:space="preserve" display="none" y="0.8em" fill="#707070" text-anchor="middle" pointer-events="none" font-family="Open Sans" font-weight="normal"><tspan style="fill-opacity: 0; stroke-opacity: 0;"  dy="0">-</tspan></text></g><g id="v-2871"  label-idx="2" cursor="move" transform="matrix(1,0,0,1,2054,1325.199951171875)" style="opacity: 1;"><rect joint-selector="rect" id="v-2877" fill="#ffffff" rx="3" ry="3" pointer-events="none"  width="0" height="0" transform="matrix(1,0,0,1,0,0)" display="none"></rect><text joint-selector="text" id="v-2876" font-size="19px" xml:space="preserve" display="none" y="0.8em" fill="#707070" text-anchor="middle" pointer-events="none" font-family="Open Sans" font-weight="normal" ><tspan style="fill-opacity: 0; stroke-opacity: 0;"  dy="0">-</tspan></text></g></g><g  display="none" style="display: none;"></g><g  id="v-2882" display="none"><g  id="v-2867"><path  end="source" d="M 26 0 L 0 13 L 26 26 z"></path></g><g  id="v-2868"><path  end="target" d="M 26 0 L 0 13 L 26 26 z"></path></g></g><g  id="v-2881" display="none"><g  id="v-2866" transform="translate(2054, 1148) "><g  event="remove"><circle r="11"></circle><path transform="scale(.8) translate(-16, -16)" d="M24.778,21.419 19.276,15.917 24.777,10.415 21.949,7.585 16.447,13.087 10.945,7.585 8.117,10.415 13.618,15.917 8.116,21.419 10.946,24.248 16.447,18.746 21.948,24.248z"></path><title>Remove link.</title></g><g  event="link:options"><circle r="11" transform="translate(25)"></circle><path fill="white" transform="scale(.55) translate(29, -16)" d="M31.229,17.736c0.064-0.571,0.104-1.148,0.104-1.736s-0.04-1.166-0.104-1.737l-4.377-1.557c-0.218-0.716-0.504-1.401-0.851-2.05l1.993-4.192c-0.725-0.91-1.549-1.734-2.458-2.459l-4.193,1.994c-0.647-0.347-1.334-0.632-2.049-0.849l-1.558-4.378C17.165,0.708,16.588,0.667,16,0.667s-1.166,0.041-1.737,0.105L12.707,5.15c-0.716,0.217-1.401,0.502-2.05,0.849L6.464,4.005C5.554,4.73,4.73,5.554,4.005,6.464l1.994,4.192c-0.347,0.648-0.632,1.334-0.849,2.05l-4.378,1.557C0.708,14.834,0.667,15.412,0.667,16s0.041,1.165,0.105,1.736l4.378,1.558c0.217,0.715,0.502,1.401,0.849,2.049l-1.994,4.193c0.725,0.909,1.549,1.733,2.459,2.458l4.192-1.993c0.648,0.347,1.334,0.633,2.05,0.851l1.557,4.377c0.571,0.064,1.148,0.104,1.737,0.104c0.588,0,1.165-0.04,1.736-0.104l1.558-4.377c0.715-0.218,1.399-0.504,2.049-0.851l4.193,1.993c0.909-0.725,1.733-1.549,2.458-2.458l-1.993-4.193c0.347-0.647,0.633-1.334,0.851-2.049L31.229,17.736zM16,20.871c-2.69,0-4.872-2.182-4.872-4.871c0-2.69,2.182-4.872,4.872-4.872c2.689,0,4.871,2.182,4.871,4.872C20.871,18.689,18.689,20.871,16,20.871z"></path><title>Link options.</title></g></g></g></g><g   id="j_202" ><path  stroke="#707070" d="M 2791 508 L 2800 808" id="v-2898" stroke-width="2" stroke-dasharray="30 30" fill="none" style="opacity: 1;"></path><path  fill="black" stroke="black" d="M 0 0 0 0" transform="matrix(0.028321992605924606,0.9995988607406616,-0.9995988607406616,0.028321992605924606,2791.25,508)"></path><path  fill="#707070" stroke="#707070" d="M 20 0 L 0 10 L 20 20 z" id="v-2900" transform="matrix(-0.02832212671637535,-0.9995988607406616,0.9995988607406616,-0.02832212671637535,2789.754150390625,808.2832641601562)" style="opacity: 1;"></path><path  d="M 2791 508 L 2800 808" id="v-2899" fill="none" style="cursor: auto; pointer-events: visiblepainted;"></path><g ><g id="v-2889"  label-idx="0" cursor="move" transform="matrix(1,0,0,1,2795.5,658)" style="opacity: 1;"><rect joint-selector="rect" id="v-2893" fill="#ffffff" rx="3" ry="3" stroke="#ffffff" stroke-width="20px" pointer-events="none" width="164.49998474121094" height="64.55000305175781" transform="matrix(1,0,0,1,-82.19999694824219,-32.29999923706055)"></rect><text joint-selector="text" id="v-2892" font-size="24px" xml:space="preserve" y="0.8em" fill="#707070" text-anchor="middle" pointer-events="none" font-family="Open Sans" font-weight="normal" transform="matrix(1,0,0,1,0,-24)"><tspan  dy="0">gets LPA Code</tspan><tspan dy="1.2em" x="0" >from</tspan></text></g><g id="v-2890"  label-idx="1" cursor="move" transform="matrix(1,0,0,1,2795.5,701.2000122070312)" style="opacity: 1;"><rect joint-selector="rect" id="v-2895" fill="#ffffff" rx="3" ry="3" pointer-events="none" width="0" height="0" transform="matrix(1,0,0,1,0,0)"></rect><text joint-selector="text" id="v-2894" font-size="19px" xml:space="preserve" display="none" y="0.8em" fill="#707070" text-anchor="middle" pointer-events="none" font-family="Open Sans" font-weight="normal"><tspan style="fill-opacity: 0; stroke-opacity: 0;"  dy="0">-</tspan></text></g><g id="v-2891"  label-idx="2" cursor="move" transform="matrix(1,0,0,1,2795.5,725.2000122070312)" style="opacity: 1;"><rect joint-selector="rect" id="v-2897" fill="#ffffff" rx="3" ry="3" pointer-events="none"  width="0" height="0" transform="matrix(1,0,0,1,0,0)" display="none"></rect><text joint-selector="text" id="v-2896" font-size="19px" xml:space="preserve" display="none" y="0.8em" fill="#707070" text-anchor="middle" pointer-events="none" font-family="Open Sans" font-weight="normal" ><tspan style="fill-opacity: 0; stroke-opacity: 0;"  dy="0">-</tspan></text></g></g><g  display="none" style="display: none;"></g><g  id="v-2902" display="none"><g  id="v-2887"><path  end="source" d="M 26 0 L 0 13 L 26 26 z"></path></g><g  id="v-2888"><path  end="target" d="M 26 0 L 0 13 L 26 26 z"></path></g></g><g  id="v-2901" display="none"><g  id="v-2886" transform="translate(2792.199460364227, 547.9820121408947) "><g  event="remove"><circle r="11"></circle><path transform="scale(.8) translate(-16, -16)" d="M24.778,21.419 19.276,15.917 24.777,10.415 21.949,7.585 16.447,13.087 10.945,7.585 8.117,10.415 13.618,15.917 8.116,21.419 10.946,24.248 16.447,18.746 21.948,24.248z"></path><title>Remove link.</title></g><g  event="link:options"><circle r="11" transform="translate(25)"></circle><path fill="white" transform="scale(.55) translate(29, -16)" d="M31.229,17.736c0.064-0.571,0.104-1.148,0.104-1.736s-0.04-1.166-0.104-1.737l-4.377-1.557c-0.218-0.716-0.504-1.401-0.851-2.05l1.993-4.192c-0.725-0.91-1.549-1.734-2.458-2.459l-4.193,1.994c-0.647-0.347-1.334-0.632-2.049-0.849l-1.558-4.378C17.165,0.708,16.588,0.667,16,0.667s-1.166,0.041-1.737,0.105L12.707,5.15c-0.716,0.217-1.401,0.502-2.05,0.849L6.464,4.005C5.554,4.73,4.73,5.554,4.005,6.464l1.994,4.192c-0.347,0.648-0.632,1.334-0.849,2.05l-4.378,1.557C0.708,14.834,0.667,15.412,0.667,16s0.041,1.165,0.105,1.736l4.378,1.558c0.217,0.715,0.502,1.401,0.849,2.049l-1.994,4.193c0.725,0.909,1.549,1.733,2.459,2.458l4.192-1.993c0.648,0.347,1.334,0.633,2.05,0.851l1.557,4.377c0.571,0.064,1.148,0.104,1.737,0.104c0.588,0,1.165-0.04,1.736-0.104l1.558-4.377c0.715-0.218,1.399-0.504,2.049-0.851l4.193,1.993c0.909-0.725,1.733-1.549,2.458-2.458l-1.993-4.193c0.347-0.647,0.633-1.334,0.851-2.049L31.229,17.736zM16,20.871c-2.69,0-4.872-2.182-4.872-4.871c0-2.69,2.182-4.872,4.872-4.872c2.689,0,4.871,2.182,4.871,4.872C20.871,18.689,18.689,20.871,16,20.871z"></path><title>Link options.</title></g></g></g></g><g   id="j_203" ><path  stroke="#707070" d="M 2229 508 L 2612 808" id="v-2918" stroke-width="2" stroke-dasharray="30 30" fill="none" style="opacity: 1;"></path><path  fill="black" stroke="black" d="M 0 0 0 0" transform="matrix(0.7876350283622742,0.6161420941352844,-0.6161420941352844,0.7876350283622742,2228.75,508)"></path><path  fill="#707070" stroke="#707070" d="M 20 0 L 0 10 L 20 20 z" id="v-2920" transform="matrix(-0.7876349687576294,-0.6161421537399292,0.6161421537399292,-0.7876349687576294,2606.08837890625,815.8763427734375)" style="opacity: 1;"></path><path  d="M 2229 508 L 2612 808" id="v-2919" fill="none" style="cursor: auto; pointer-events: visiblepainted;"></path><g ><g id="v-2909"  label-idx="0" cursor="move" transform="matrix(1,0,0,1,2420.5,658)" style="opacity: 1;"><rect joint-selector="rect" id="v-2913" fill="#ffffff" rx="3" ry="3" stroke="#ffffff" stroke-width="20px" pointer-events="none" width="162.5" height="35.75" transform="matrix(1,0,0,1,-81.19999694824219,-17.899999618530273)"></rect><text joint-selector="text" id="v-2912" font-size="24px" xml:space="preserve" y="0.8em" fill="#707070" text-anchor="middle" pointer-events="none" font-family="Open Sans" font-weight="normal" transform="matrix(1,0,0,1,0,-9.600000381469727)"><tspan  dy="0">makes calls to</tspan></text></g><g id="v-2910"  label-idx="1" cursor="move" transform="matrix(1,0,0,1,2420.5,689.2000122070312)" style="opacity: 1;"><rect joint-selector="rect" id="v-2915" fill="#ffffff" rx="3" ry="3" pointer-events="none" width="0" height="0" transform="matrix(1,0,0,1,0,0)"></rect><text joint-selector="text" id="v-2914" font-size="19px" xml:space="preserve" display="none" y="0.8em" fill="#707070" text-anchor="middle" pointer-events="none" font-family="Open Sans" font-weight="normal"><tspan style="fill-opacity: 0; stroke-opacity: 0;"  dy="0">-</tspan></text></g><g id="v-2911"  label-idx="2" cursor="move" transform="matrix(1,0,0,1,2420.5,713.2000122070312)" style="opacity: 1;"><rect joint-selector="rect" id="v-2917" fill="#ffffff" rx="3" ry="3" pointer-events="none"  width="0" height="0" transform="matrix(1,0,0,1,0,0)" display="none"></rect><text joint-selector="text" id="v-2916" font-size="19px" xml:space="preserve" display="none" y="0.8em" fill="#707070" text-anchor="middle" pointer-events="none" font-family="Open Sans" font-weight="normal" ><tspan style="fill-opacity: 0; stroke-opacity: 0;"  dy="0">-</tspan></text></g></g><g  display="none" style="display: none;"></g><g  id="v-2922" display="none"><g  id="v-2907"><path  end="source" d="M 26 0 L 0 13 L 26 26 z"></path></g><g  id="v-2908"><path  end="target" d="M 26 0 L 0 13 L 26 26 z"></path></g></g><g  id="v-2921" display="none"><g  id="v-2906" transform="translate(2260.4897873529826, 532.6656297804041) "><g  event="remove"><circle r="11"></circle><path transform="scale(.8) translate(-16, -16)" d="M24.778,21.419 19.276,15.917 24.777,10.415 21.949,7.585 16.447,13.087 10.945,7.585 8.117,10.415 13.618,15.917 8.116,21.419 10.946,24.248 16.447,18.746 21.948,24.248z"></path><title>Remove link.</title></g><g  event="link:options"><circle r="11" transform="translate(25)"></circle><path fill="white" transform="scale(.55) translate(29, -16)" d="M31.229,17.736c0.064-0.571,0.104-1.148,0.104-1.736s-0.04-1.166-0.104-1.737l-4.377-1.557c-0.218-0.716-0.504-1.401-0.851-2.05l1.993-4.192c-0.725-0.91-1.549-1.734-2.458-2.459l-4.193,1.994c-0.647-0.347-1.334-0.632-2.049-0.849l-1.558-4.378C17.165,0.708,16.588,0.667,16,0.667s-1.166,0.041-1.737,0.105L12.707,5.15c-0.716,0.217-1.401,0.502-2.05,0.849L6.464,4.005C5.554,4.73,4.73,5.554,4.005,6.464l1.994,4.192c-0.347,0.648-0.632,1.334-0.849,2.05l-4.378,1.557C0.708,14.834,0.667,15.412,0.667,16s0.041,1.165,0.105,1.736l4.378,1.558c0.217,0.715,0.502,1.401,0.849,2.049l-1.994,4.193c0.725,0.909,1.549,1.733,2.459,2.458l4.192-1.993c0.648,0.347,1.334,0.633,2.05,0.851l1.557,4.377c0.571,0.064,1.148,0.104,1.737,0.104c0.588,0,1.165-0.04,1.736-0.104l1.558-4.377c0.715-0.218,1.399-0.504,2.049-0.851l4.193,1.993c0.909-0.725,1.733-1.549,2.458-2.458l-1.993-4.193c0.347-0.647,0.633-1.334,0.851-2.049L31.229,17.736zM16,20.871c-2.69,0-4.872-2.182-4.872-4.871c0-2.69,2.182-4.872,4.872-4.872c2.689,0,4.871,2.182,4.871,4.872C20.871,18.689,18.689,20.871,16,20.871z"></path><title>Link options.</title></g></g></g></g><g   id="j_204" ><path  stroke="#707070" d="M 3490 508 L 3205 1408" id="v-2938" stroke-width="2" stroke-dasharray="30 30" fill="none" style="opacity: 1;"></path><path  fill="black" stroke="black" d="M 0 0 0 0" transform="matrix(-0.30116942524909973,0.9535706639289856,-0.9535706639289856,-0.30116942524909973,3489.6298828125,508)"></path><path  fill="#707070" stroke="#707070" d="M 20 0 L 0 10 L 20 20 z" id="v-2940" transform="matrix(0.3011695444583893,-0.9535706043243408,0.9535706043243408,0.3011695444583893,3195.84423828125,1404.98828125)" style="opacity: 1;"></path><path  d="M 3490 508 L 3205 1408" id="v-2939" fill="none" style="cursor: auto; pointer-events: visiblepainted;"></path><g ><g id="v-2929"  label-idx="0" cursor="move" transform="matrix(1,0,0,1,3347.5,958)" style="opacity: 1;"><rect joint-selector="rect" id="v-2933" fill="#ffffff" rx="3" ry="3" stroke="#ffffff" stroke-width="20px" pointer-events="none" width="185.25" height="35.75" transform="matrix(1,0,0,1,-92.5999984741211,-17.899999618530273)"></rect><text joint-selector="text" id="v-2932" font-size="24px" xml:space="preserve" y="0.8em" fill="#707070" text-anchor="middle" pointer-events="none" font-family="Open Sans" font-weight="normal" transform="matrix(1,0,0,1,0,-9.600000381469727)"><tspan  dy="0">reads data from</tspan></text></g><g id="v-2930"  label-idx="1" cursor="move" transform="matrix(1,0,0,1,3347.5,989.2000122070312)" style="opacity: 1;"><rect joint-selector="rect" id="v-2935" fill="#ffffff" rx="3" ry="3" pointer-events="none" width="0" height="0" transform="matrix(1,0,0,1,0,0)"></rect><text joint-selector="text" id="v-2934" font-size="19px" xml:space="preserve" display="none" y="0.8em" fill="#707070" text-anchor="middle" pointer-events="none" font-family="Open Sans" font-weight="normal"><tspan style="fill-opacity: 0; stroke-opacity: 0;"  dy="0">-</tspan></text></g><g id="v-2931"  label-idx="2" cursor="move" transform="matrix(1,0,0,1,3347.5,1013.2000122070312)" style="opacity: 1;"><rect joint-selector="rect" id="v-2937" fill="#ffffff" rx="3" ry="3" pointer-events="none"  width="0" height="0" transform="matrix(1,0,0,1,0,0)" display="none"></rect><text joint-selector="text" id="v-2936" font-size="19px" xml:space="preserve" display="none" y="0.8em" fill="#707070" text-anchor="middle" pointer-events="none" font-family="Open Sans" font-weight="normal" ><tspan style="fill-opacity: 0; stroke-opacity: 0;"  dy="0">-</tspan></text></g></g><g  display="none" style="display: none;"></g><g  id="v-2942" display="none"><g  id="v-2927"><path  end="source" d="M 26 0 L 0 13 L 26 26 z"></path></g><g  id="v-2928"><path  end="target" d="M 26 0 L 0 13 L 26 26 z"></path></g></g><g  id="v-2941" display="none"><g  id="v-2926" transform="translate(3477.924331812224, 546.1336890140298) "><g  event="remove"><circle r="11"></circle><path transform="scale(.8) translate(-16, -16)" d="M24.778,21.419 19.276,15.917 24.777,10.415 21.949,7.585 16.447,13.087 10.945,7.585 8.117,10.415 13.618,15.917 8.116,21.419 10.946,24.248 16.447,18.746 21.948,24.248z"></path><title>Remove link.</title></g><g  event="link:options"><circle r="11" transform="translate(25)"></circle><path fill="white" transform="scale(.55) translate(29, -16)" d="M31.229,17.736c0.064-0.571,0.104-1.148,0.104-1.736s-0.04-1.166-0.104-1.737l-4.377-1.557c-0.218-0.716-0.504-1.401-0.851-2.05l1.993-4.192c-0.725-0.91-1.549-1.734-2.458-2.459l-4.193,1.994c-0.647-0.347-1.334-0.632-2.049-0.849l-1.558-4.378C17.165,0.708,16.588,0.667,16,0.667s-1.166,0.041-1.737,0.105L12.707,5.15c-0.716,0.217-1.401,0.502-2.05,0.849L6.464,4.005C5.554,4.73,4.73,5.554,4.005,6.464l1.994,4.192c-0.347,0.648-0.632,1.334-0.849,2.05l-4.378,1.557C0.708,14.834,0.667,15.412,0.667,16s0.041,1.165,0.105,1.736l4.378,1.558c0.217,0.715,0.502,1.401,0.849,2.049l-1.994,4.193c0.725,0.909,1.549,1.733,2.459,2.458l4.192-1.993c0.648,0.347,1.334,0.633,2.05,0.851l1.557,4.377c0.571,0.064,1.148,0.104,1.737,0.104c0.588,0,1.165-0.04,1.736-0.104l1.558-4.377c0.715-0.218,1.399-0.504,2.049-0.851l4.193,1.993c0.909-0.725,1.733-1.549,2.458-2.458l-1.993-4.193c0.347-0.647,0.633-1.334,0.851-2.049L31.229,17.736zM16,20.871c-2.69,0-4.872-2.182-4.872-4.871c0-2.69,2.182-4.872,4.872-4.872c2.689,0,4.871,2.182,4.871,4.872C20.871,18.689,18.689,20.871,16,20.871z"></path><title>Link options.</title></g></g></g></g><g   id="j_205" ><path  stroke="#707070" d="M 3354 508 L 2987 808" id="v-2958" stroke-width="2" stroke-dasharray="30 30" fill="none" style="opacity: 1;"></path><path  fill="black" stroke="black" d="M 0 0 0 0" transform="matrix(-0.7738162279129028,0.6334101557731628,-0.6334101557731628,-0.7738162279129028,3353.75,508)"></path><path  fill="#707070" stroke="#707070" d="M 20 0 L 0 10 L 20 20 z" id="v-2960" transform="matrix(0.7738160490989685,-0.6334103941917419,0.6334103941917419,0.7738160490989685,2980.916015625,800.2618408203125)" style="opacity: 1;"></path><path  d="M 3354 508 L 2987 808" id="v-2959" fill="none" style="cursor: auto; pointer-events: visiblepainted;"></path><g ><g id="v-2949"  label-idx="0" cursor="move" transform="matrix(1,0,0,1,3170.5,658)" style="opacity: 1;"><rect joint-selector="rect" id="v-2953" fill="#ffffff" rx="3" ry="3" stroke="#ffffff" stroke-width="20px" pointer-events="none" width="158.89999389648438" height="35.75" transform="matrix(1,0,0,1,-79.4000015258789,-17.899999618530273)"></rect><text joint-selector="text" id="v-2952" font-size="24px" xml:space="preserve" y="0.8em" fill="#707070" text-anchor="middle" pointer-events="none" font-family="Open Sans" font-weight="normal" transform="matrix(1,0,0,1,0,-9.600000381469727)"><tspan  dy="0">writes data to</tspan></text></g><g id="v-2950"  label-idx="1" cursor="move" transform="matrix(1,0,0,1,3170.5,689.2000122070312)" style="opacity: 1;"><rect joint-selector="rect" id="v-2955" fill="#ffffff" rx="3" ry="3" pointer-events="none" width="0" height="0" transform="matrix(1,0,0,1,0,0)"></rect><text joint-selector="text" id="v-2954" font-size="19px" xml:space="preserve" display="none" y="0.8em" fill="#707070" text-anchor="middle" pointer-events="none" font-family="Open Sans" font-weight="normal"><tspan style="fill-opacity: 0; stroke-opacity: 0;"  dy="0">-</tspan></text></g><g id="v-2951"  label-idx="2" cursor="move" transform="matrix(1,0,0,1,3170.5,713.2000122070312)" style="opacity: 1;"><rect joint-selector="rect" id="v-2957" fill="#ffffff" rx="3" ry="3" pointer-events="none"  width="0" height="0" transform="matrix(1,0,0,1,0,0)" display="none"></rect><text joint-selector="text" id="v-2956" font-size="19px" xml:space="preserve" display="none" y="0.8em" fill="#707070" text-anchor="middle" pointer-events="none" font-family="Open Sans" font-weight="normal" ><tspan style="fill-opacity: 0; stroke-opacity: 0;"  dy="0">-</tspan></text></g></g><g  display="none" style="display: none;"></g><g  id="v-2962" display="none"><g  id="v-2947"><path  end="source" d="M 26 0 L 0 13 L 26 26 z"></path></g><g  id="v-2948"><path  end="target" d="M 26 0 L 0 13 L 26 26 z"></path></g></g><g  id="v-2961" display="none"><g  id="v-2946" transform="translate(3323.030431818625, 533.315723309026) "><g  event="remove"><circle r="11"></circle><path transform="scale(.8) translate(-16, -16)" d="M24.778,21.419 19.276,15.917 24.777,10.415 21.949,7.585 16.447,13.087 10.945,7.585 8.117,10.415 13.618,15.917 8.116,21.419 10.946,24.248 16.447,18.746 21.948,24.248z"></path><title>Remove link.</title></g><g  event="link:options"><circle r="11" transform="translate(25)"></circle><path fill="white" transform="scale(.55) translate(29, -16)" d="M31.229,17.736c0.064-0.571,0.104-1.148,0.104-1.736s-0.04-1.166-0.104-1.737l-4.377-1.557c-0.218-0.716-0.504-1.401-0.851-2.05l1.993-4.192c-0.725-0.91-1.549-1.734-2.458-2.459l-4.193,1.994c-0.647-0.347-1.334-0.632-2.049-0.849l-1.558-4.378C17.165,0.708,16.588,0.667,16,0.667s-1.166,0.041-1.737,0.105L12.707,5.15c-0.716,0.217-1.401,0.502-2.05,0.849L6.464,4.005C5.554,4.73,4.73,5.554,4.005,6.464l1.994,4.192c-0.347,0.648-0.632,1.334-0.849,2.05l-4.378,1.557C0.708,14.834,0.667,15.412,0.667,16s0.041,1.165,0.105,1.736l4.378,1.558c0.217,0.715,0.502,1.401,0.849,2.049l-1.994,4.193c0.725,0.909,1.549,1.733,2.459,2.458l4.192-1.993c0.648,0.347,1.334,0.633,2.05,0.851l1.557,4.377c0.571,0.064,1.148,0.104,1.737,0.104c0.588,0,1.165-0.04,1.736-0.104l1.558-4.377c0.715-0.218,1.399-0.504,2.049-0.851l4.193,1.993c0.909-0.725,1.733-1.549,2.458-2.458l-1.993-4.193c0.347-0.647,0.633-1.334,0.851-2.049L31.229,17.736zM16,20.871c-2.69,0-4.872-2.182-4.872-4.871c0-2.69,2.182-4.872,4.872-4.872c2.689,0,4.871,2.182,4.871,4.872C20.871,18.689,18.689,20.871,16,20.871z"></path><title>Link options.</title></g></g></g></g></g><g ></g><g ></g><g ></g></g></svg>