<svg xmlns="http://www.w3.org/2000/svg" xmlns:xlink="http://www.w3.org/1999/xlink" version="1.1" viewBox="0 0 3066 2016" style="background: #ffffff"><defs joint-selector="defs"></defs><g  joint-selector="layers" transform="matrix(1,0,0,1,0,0)"><g ></g><g ><g   id="j_203"  transform="translate(20,1971)"><g id="v-2936"><text  id="v-2937" font-size="22px" xml:space="preserve" y="0.8em" font-weight="normal" text-anchor="start" fill="#aaaaaa" pointer-events="none" font-family="Open Sans"><tspan  dy="0">Friday, 24 February 2023 at 12:07 Greenwich Mean Time</tspan></text></g></g><g   id="j_202"  transform="translate(20,1927)"><g id="v-2934"><text  id="v-2935" font-size="36px" xml:space="preserve" y="0.8em" font-weight="normal" text-anchor="start" fill="#000000" pointer-events="none" font-family="Open Sans"><tspan  dy="0">[System Context] Modernising Lasting Power of Attorney</tspan></text></g></g><g   id="j_192"  transform="translate(1263,888)" style=""><g id="v-2775"><rect  id="v-2776" width="490" height="413" rx="0" ry="0" fill="#ffffff" stroke="#444444" stroke-width="1" stroke-dasharray="20,20" pointer-events="none"></rect><text  id="v-2777" font-size="24px" xml:space="preserve" y="374" font-weight="normal" fill="#444444" text-anchor="start" pointer-events="visible" font-family="Open Sans" transform="matrix(1,0,0,1,15,0)"><tspan  dy="0">Modernising Lasting Power of Attorney</tspan></text><text  id="v-2778" font-size="19px" xml:space="preserve" y="398" font-weight="normal" fill="#444444" text-anchor="start" pointer-events="visible" font-family="Open Sans" transform="matrix(1,0,0,1,15,0)"><tspan  dy="0">[Enterprise]</tspan></text><image  id="v-2779" pointer-events="visible"></image></g></g><g   id="j_190"  transform="translate(208,208)" style=""><g  id="v-2752" style="opacity: 1;"><rect  x="0" y="160" width="400" height="240" rx="70" id="v-2754" stroke="#073b6f" stroke-width="2" pointer-events="visiblePainted" fill="#08427b" style="fill: rgb(8, 66, 123); stroke: rgb(7, 59, 111);"></rect><circle  cx="200" cy="88.88888888888889" r="88.88888888888889" id="v-2753" stroke="#073b6f" stroke-width="2" pointer-events="visiblePainted" fill="#08427b" style="fill: rgb(8, 66, 123); stroke: rgb(7, 59, 111);"></circle><line  x1="80" y1="266.6666666666667" x2="80" y2="400" id="v-2760" stroke="#073b6f" stroke-width="2" style="stroke: rgb(7, 59, 111);"></line><line  x1="320" y1="266.6666666666667" x2="320" y2="400" id="v-2761" stroke="#073b6f" stroke-width="2" style="stroke: rgb(7, 59, 111);"></line><text  id="v-2755" font-size="34px" xml:space="preserve" y="0.8em" font-weight="bold" text-anchor="middle" pointer-events="visible" font-family="Open Sans" fill="#ffffff" transform="matrix(1,0,0,1,200,205)" style="fill: rgb(255, 255, 255);"><tspan  dy="0">Actor</tspan></text><text  id="v-2756" font-size="19px" xml:space="preserve" y="0.8em" text-anchor="middle" font-family="Open Sans" fill="#ffffff" transform="matrix(1,0,0,1,200,247.5)" style="fill: rgb(255, 255, 255);"><tspan  dy="0">[Person]</tspan></text><text  id="v-2757" font-size="24px" xml:space="preserve" y="0.8em" text-anchor="middle" font-family="Open Sans" fill="#ffffff" transform="matrix(1,0,0,1,200,295)" style="fill: rgb(255, 255, 255);"><tspan  dy="0">Actor interacting with a Lasting</tspan><tspan dy="1.2em" x="0" >Power of Attorney.</tspan></text><text  id="v-2758" font-weight="normal" text-anchor="middle" font-family="Open Sans" fill="#ffffff" font-size="34" transform="matrix(1,0,0,1,200,351)" xml:space="preserve" display="none" y="0.8em" style="fill: rgb(255, 255, 255);"><tspan style="fill-opacity: 0; stroke-opacity: 0;"  dy="0">-</tspan></text><image  id="v-2759"></image></g></g><g   id="j_191"  transform="translate(1283,908)" style=""><g  id="v-2768" style="opacity: 1;"><rect  id="v-2769" rx="20" ry="20" stroke="#0f5eaa" stroke-width="2" pointer-events="visiblePainted" fill="#1168bd" width="450" height="300" style="fill: rgb(17, 104, 189); stroke: rgb(15, 94, 170);"></rect><text  id="v-2770" font-size="34" xml:space="preserve" y="0.8em" font-weight="bold" text-anchor="middle" pointer-events="visible" font-family="Open Sans" fill="#ffffff" transform="matrix(1,0,0,1,225,53.79999923706055)" style="fill: rgb(255, 255, 255);"><tspan  dy="0">Modernising Lasting</tspan><tspan dy="1.2em" x="0" >Power of Attorney</tspan></text><text  id="v-2771" font-size="19" xml:space="preserve" y="0.8em" text-anchor="middle" font-family="Open Sans" fill="#ffffff" transform="matrix(1,0,0,1,225,138.8000030517578)" style="fill: rgb(255, 255, 255);"><tspan  dy="0">[Software System]</tspan></text><text  id="v-2772" font-size="24" xml:space="preserve" y="0.8em" text-anchor="middle" font-family="Open Sans" fill="#ffffff" transform="matrix(1,0,0,1,225,186.3000030517578)" style="fill: rgb(255, 255, 255);"><tspan  dy="0">Digital Lasting Power of Attorney</tspan><tspan dy="1.2em" x="0" >infrastructure</tspan></text><text  id="v-2773" font-weight="normal" text-anchor="middle" font-family="Open Sans" fill="#ffffff" font-size="34" transform="matrix(1,0,0,1,225,251)" xml:space="preserve" y="0.8em" display="none" style="fill: rgb(255, 255, 255);"><tspan  dy="0">+</tspan></text><image  id="v-2774"></image></g></g><g   id="j_193"  transform="translate(1283,1508)" style=""><g  id="v-2786" style="opacity: 1;"><rect  id="v-2787" rx="20" ry="20" stroke="#8a8a8a" stroke-width="2" pointer-events="visiblePainted" fill="#999999" width="450" height="300" style="fill: rgb(153, 153, 153); stroke: rgb(138, 138, 138);"></rect><text  id="v-2788" font-size="34" xml:space="preserve" y="0.8em" font-weight="bold" text-anchor="middle" pointer-events="visible" font-family="Open Sans" fill="#ffffff" transform="matrix(1,0,0,1,225,75)" style="fill: rgb(255, 255, 255);"><tspan  dy="0">External Services</tspan></text><text  id="v-2789" font-size="19" xml:space="preserve" y="0.8em" text-anchor="middle" font-family="Open Sans" fill="#ffffff" transform="matrix(1,0,0,1,225,117.5)" style="fill: rgb(255, 255, 255);"><tspan  dy="0">[Software System]</tspan></text><text  id="v-2790" font-size="24" xml:space="preserve" y="0.8em" text-anchor="middle" font-family="Open Sans" fill="#ffffff" transform="matrix(1,0,0,1,225,165)" style="fill: rgb(255, 255, 255);"><tspan  dy="0">GOV.UK Notify, Pay, One Login, Yoti,</tspan><tspan dy="1.2em" x="0" >Ordanance Survey</tspan></text><text  id="v-2791" font-weight="normal" text-anchor="middle" font-family="Open Sans" fill="#ffffff" font-size="34" transform="matrix(1,0,0,1,225,251)" xml:space="preserve" display="none" y="0.8em" style="fill: rgb(255, 255, 255);"><tspan style="fill-opacity: 0; stroke-opacity: 0;"  dy="0">-</tspan></text><image  id="v-2792"></image></g></g><g   id="j_194"  transform="translate(908,258)" style=""><g  id="v-2796" style="opacity: 1;"><rect  id="v-2797" rx="20" ry="20" stroke="#8a8a8a" stroke-width="2" pointer-events="visiblePainted" fill="#999999" width="450" height="300" style="fill: rgb(153, 153, 153); stroke: rgb(138, 138, 138);"></rect><text  id="v-2798" font-size="34" xml:space="preserve" y="0.8em" font-weight="bold" text-anchor="middle" pointer-events="visible" font-family="Open Sans" fill="#ffffff" transform="matrix(1,0,0,1,225,90)" style="fill: rgb(255, 255, 255);"><tspan  dy="0">OPG Services</tspan></text><text  id="v-2799" font-size="19" xml:space="preserve" y="0.8em" text-anchor="middle" font-family="Open Sans" fill="#ffffff" transform="matrix(1,0,0,1,225,132.5)" style="fill: rgb(255, 255, 255);"><tspan  dy="0">[Software System]</tspan></text><text  id="v-2800" font-size="24" xml:space="preserve" y="0.8em" text-anchor="middle" font-family="Open Sans" fill="#ffffff" transform="matrix(1,0,0,1,225,180)" style="fill: rgb(255, 255, 255);"><tspan  dy="0">Court Ordered Severances</tspan></text><text  id="v-2801" font-weight="normal" text-anchor="middle" font-family="Open Sans" fill="#ffffff" font-size="34" transform="matrix(1,0,0,1,225,251)" xml:space="preserve" display="none" y="0.8em" style="fill: rgb(255, 255, 255);"><tspan style="fill-opacity: 0; stroke-opacity: 0;"  dy="0">-</tspan></text><image  id="v-2802"></image></g></g><g   id="j_195"  transform="translate(1658,258)" style=""><g  id="v-2806" style="opacity: 1;"><rect  id="v-2807" rx="20" ry="20" stroke="#8a8a8a" stroke-width="2" pointer-events="visiblePainted" fill="#999999" width="450" height="300" style="fill: rgb(153, 153, 153); stroke: rgb(138, 138, 138);"></rect><text  id="v-2808" font-size="34" xml:space="preserve" y="0.8em" font-weight="bold" text-anchor="middle" pointer-events="visible" font-family="Open Sans" fill="#ffffff" transform="matrix(1,0,0,1,225,90)" style="fill: rgb(255, 255, 255);"><tspan  dy="0">Scanning Software</tspan></text><text  id="v-2809" font-size="19" xml:space="preserve" y="0.8em" text-anchor="middle" font-family="Open Sans" fill="#ffffff" transform="matrix(1,0,0,1,225,132.5)" style="fill: rgb(255, 255, 255);"><tspan  dy="0">[Software System]</tspan></text><text  id="v-2810" font-size="24" xml:space="preserve" y="0.8em" text-anchor="middle" font-family="Open Sans" fill="#ffffff" transform="matrix(1,0,0,1,225,180)" style="fill: rgb(255, 255, 255);"><tspan  dy="0">TBC</tspan></text><text  id="v-2811" font-weight="normal" text-anchor="middle" font-family="Open Sans" fill="#ffffff" font-size="34" transform="matrix(1,0,0,1,225,251)" xml:space="preserve" display="none" y="0.8em" style="fill: rgb(255, 255, 255);"><tspan style="fill-opacity: 0; stroke-opacity: 0;"  dy="0">-</tspan></text><image  id="v-2812"></image></g></g><g   id="j_196"  transform="translate(2408,258)" style=""><g  id="v-2816" style="opacity: 1;"><rect  id="v-2817" rx="10" ry="10" stroke="#8a8a8a" stroke-width="2" pointer-events="visiblePainted" fill="#8a8a8a" width="450" height="300" style="fill: rgb(138, 138, 138); stroke: rgb(138, 138, 138);"></rect><rect  id="v-2818" rx="10" ry="10" stroke="#8a8a8a" stroke-width="0" pointer-events="visiblePainted" fill="#999999" width="430" height="250" x="10" y="40" style="fill: rgb(153, 153, 153);"></rect><ellipse  id="v-2825" fill="#999999" cx="20" cy="20" rx="10" ry="10" style="fill: rgb(153, 153, 153);"></ellipse><ellipse  id="v-2826" fill="#999999" cx="50" cy="20" rx="10" ry="10" style="fill: rgb(153, 153, 153);"></ellipse><ellipse  id="v-2827" fill="#999999" cx="80" cy="20" rx="10" ry="10" style="fill: rgb(153, 153, 153);"></ellipse><rect  id="v-2819" rx="10" ry="10" stroke="#444444" stroke-width="0" pointer-events="visiblePainted" fill="#999999" width="340" height="20" x="100" y="10" style="fill: rgb(153, 153, 153);"></rect><text  id="v-2820" font-size="34" xml:space="preserve" y="0.8em" font-weight="bold" text-anchor="middle" pointer-events="visible" font-family="Open Sans" fill="#ffffff" transform="matrix(1,0,0,1,225,110)" style="fill: rgb(255, 255, 255);"><tspan  dy="0">Use an LPA</tspan></text><text  id="v-2821" font-size="19" xml:space="preserve" y="0.8em" text-anchor="middle" font-family="Open Sans" fill="#ffffff" transform="matrix(1,0,0,1,225,152.5)" style="fill: rgb(255, 255, 255);"><tspan  dy="0">[Software System]</tspan></text><text  id="v-2822" font-size="24" xml:space="preserve" y="0.8em" text-anchor="middle" font-family="Open Sans" fill="#ffffff" transform="matrix(1,0,0,1,225,200)" style="fill: rgb(255, 255, 255);"><tspan  dy="0">Use/View an LPA Service.</tspan></text><text  id="v-2823" font-weight="normal" text-anchor="middle" font-family="Open Sans" fill="#ffffff" font-size="34" transform="matrix(1,0,0,1,225,251)" xml:space="preserve" display="none" y="0.8em" style="fill: rgb(255, 255, 255);"><tspan style="fill-opacity: 0; stroke-opacity: 0;"  dy="0">-</tspan></text><image  id="v-2824"></image></g></g><g   id="j_197" ><path  stroke="#707070" d="M 2408 538 L 1733 928" id="v-2843" stroke-width="2" stroke-dasharray="30 30" fill="none" style="opacity: 1;"></path><path  fill="black" stroke="black" d="M 0 0 0 0" transform="matrix(-0.8658650517463684,0.5002776384353638,-0.5002776384353638,-0.8658650517463684,2408,538)"></path><path  fill="#707070" stroke="#707070" d="M 20 0 L 0 10 L 20 20 z" id="v-2845" transform="matrix(0.8658650517463684,-0.5002776384353638,0.5002776384353638,0.8658650517463684,1727.997314453125,919.3413696289062)" style="opacity: 1;"></path><path  d="M 2408 538 L 1733 928" id="v-2844" fill="none" style="cursor: auto; pointer-events: visiblepainted;"></path><g ><g id="v-2834"  label-idx="0" cursor="move" transform="matrix(1,0,0,1,2070.5,733)" style="opacity: 1;"><rect joint-selector="rect" id="v-2838" fill="#ffffff" rx="3" ry="3" stroke="#ffffff" stroke-width="20px" pointer-events="none" width="172.41319274902344" height="34.425262451171875" transform="matrix(1,0,0,1,-86.19999694824219,-17.200000762939453)"></rect><text joint-selector="text" id="v-2837" font-size="24px" xml:space="preserve" y="0.8em" fill="#707070" text-anchor="middle" pointer-events="none" font-family="Open Sans" font-weight="normal" transform="matrix(1,0,0,1,0,-10.600000381469727)"><tspan  dy="0">read data from</tspan></text></g><g id="v-2835"  label-idx="1" cursor="move" transform="matrix(1,0,0,1,2070.5,764.2000122070312)" style="opacity: 1;"><rect joint-selector="rect" id="v-2840" fill="#ffffff" rx="3" ry="3" pointer-events="none" width="0" height="0" transform="matrix(1,0,0,1,0,0)"></rect><text joint-selector="text" id="v-2839" font-size="19px" xml:space="preserve" display="none" y="0.8em" fill="#707070" text-anchor="middle" pointer-events="none" font-family="Open Sans" font-weight="normal"><tspan style="fill-opacity: 0; stroke-opacity: 0;"  dy="0">-</tspan></text></g><g id="v-2836"  label-idx="2" cursor="move" transform="matrix(1,0,0,1,2070.5,788.2000122070312)" style="opacity: 1;"><rect joint-selector="rect" id="v-2842" fill="#ffffff" rx="3" ry="3" pointer-events="none"  width="0" height="0" transform="matrix(1,0,0,1,0,0)" display="none"></rect><text joint-selector="text" id="v-2841" font-size="19px" xml:space="preserve" display="none" y="0.8em" fill="#707070" text-anchor="middle" pointer-events="none" font-family="Open Sans" font-weight="normal" ><tspan style="fill-opacity: 0; stroke-opacity: 0;"  dy="0">-</tspan></text></g></g><g  display="none" style="display: none;"></g><g  id="v-2847" display="none"><g  id="v-2832"><path  end="source" d="M 26 0 L 0 13 L 26 26 z"></path></g><g  id="v-2833"><path  end="target" d="M 26 0 L 0 13 L 26 26 z"></path></g></g><g  id="v-2846" display="none"><g  id="v-2831" transform="translate(2373.365397070218, 558.0111039149851) "><g  event="remove"><circle r="11"></circle><path transform="scale(.8) translate(-16, -16)" d="M24.778,21.419 19.276,15.917 24.777,10.415 21.949,7.585 16.447,13.087 10.945,7.585 8.117,10.415 13.618,15.917 8.116,21.419 10.946,24.248 16.447,18.746 21.948,24.248z"></path><title>Remove link.</title></g><g  event="link:options"><circle r="11" transform="translate(25)"></circle><path fill="white" transform="scale(.55) translate(29, -16)" d="M31.229,17.736c0.064-0.571,0.104-1.148,0.104-1.736s-0.04-1.166-0.104-1.737l-4.377-1.557c-0.218-0.716-0.504-1.401-0.851-2.05l1.993-4.192c-0.725-0.91-1.549-1.734-2.458-2.459l-4.193,1.994c-0.647-0.347-1.334-0.632-2.049-0.849l-1.558-4.378C17.165,0.708,16.588,0.667,16,0.667s-1.166,0.041-1.737,0.105L12.707,5.15c-0.716,0.217-1.401,0.502-2.05,0.849L6.464,4.005C5.554,4.73,4.73,5.554,4.005,6.464l1.994,4.192c-0.347,0.648-0.632,1.334-0.849,2.05l-4.378,1.557C0.708,14.834,0.667,15.412,0.667,16s0.041,1.165,0.105,1.736l4.378,1.558c0.217,0.715,0.502,1.401,0.849,2.049l-1.994,4.193c0.725,0.909,1.549,1.733,2.459,2.458l4.192-1.993c0.648,0.347,1.334,0.633,2.05,0.851l1.557,4.377c0.571,0.064,1.148,0.104,1.737,0.104c0.588,0,1.165-0.04,1.736-0.104l1.558-4.377c0.715-0.218,1.399-0.504,2.049-0.851l4.193,1.993c0.909-0.725,1.733-1.549,2.458-2.458l-1.993-4.193c0.347-0.647,0.633-1.334,0.851-2.049L31.229,17.736zM16,20.871c-2.69,0-4.872-2.182-4.872-4.871c0-2.69,2.182-4.872,4.872-4.872c2.689,0,4.871,2.182,4.871,4.872C20.871,18.689,18.689,20.871,16,20.871z"></path><title>Link options.</title></g></g></g></g><g   id="j_198" ><path  stroke="#707070" d="M 1220 558 L 1421 908" id="v-2863" stroke-width="2" stroke-dasharray="30 30" fill="none" style="opacity: 1;"></path><path  fill="black" stroke="black" d="M 0 0 0 0" transform="matrix(0.49971675872802734,0.8661888837814331,-0.8661888837814331,0.49971675872802734,1219.5400390625,558)"></path><path  fill="#707070" stroke="#707070" d="M 20 0 L 0 10 L 20 20 z" id="v-2865" transform="matrix(-0.49971675872802734,-0.8661888837814331,0.8661888837814331,-0.49971675872802734,1412.7982177734375,912.9971923828125)" style="opacity: 1;"></path><path  d="M 1220 558 L 1421 908" id="v-2864" fill="none" style="cursor: auto; pointer-events: visiblepainted;"></path><g ><g id="v-2854"  label-idx="0" cursor="move" transform="matrix(1,0,0,1,1320.5,733)" style="opacity: 1;"><rect joint-selector="rect" id="v-2858" fill="#ffffff" rx="3" ry="3" stroke="#ffffff" stroke-width="20px" pointer-events="none" width="155.343994140625" height="34.425262451171875" transform="matrix(1,0,0,1,-77.69999694824219,-17.200000762939453)"></rect><text joint-selector="text" id="v-2857" font-size="24px" xml:space="preserve" y="0.8em" fill="#707070" text-anchor="middle" pointer-events="none" font-family="Open Sans" font-weight="normal" transform="matrix(1,0,0,1,0,-10.600000381469727)"><tspan  dy="0">sends data to</tspan></text></g><g id="v-2855"  label-idx="1" cursor="move" transform="matrix(1,0,0,1,1320.5,764.2000122070312)" style="opacity: 1;"><rect joint-selector="rect" id="v-2860" fill="#ffffff" rx="3" ry="3" pointer-events="none" width="0" height="0" transform="matrix(1,0,0,1,0,0)"></rect><text joint-selector="text" id="v-2859" font-size="19px" xml:space="preserve" display="none" y="0.8em" fill="#707070" text-anchor="middle" pointer-events="none" font-family="Open Sans" font-weight="normal"><tspan style="fill-opacity: 0; stroke-opacity: 0;"  dy="0">-</tspan></text></g><g id="v-2856"  label-idx="2" cursor="move" transform="matrix(1,0,0,1,1320.5,788.2000122070312)" style="opacity: 1;"><rect joint-selector="rect" id="v-2862" fill="#ffffff" rx="3" ry="3" pointer-events="none"  width="0" height="0" transform="matrix(1,0,0,1,0,0)" display="none"></rect><text joint-selector="text" id="v-2861" font-size="19px" xml:space="preserve" display="none" y="0.8em" fill="#707070" text-anchor="middle" pointer-events="none" font-family="Open Sans" font-weight="normal" ><tspan style="fill-opacity: 0; stroke-opacity: 0;"  dy="0">-</tspan></text></g></g><g  display="none" style="display: none;"></g><g  id="v-2867" display="none"><g  id="v-2852"><path  end="source" d="M 26 0 L 0 13 L 26 26 z"></path></g><g  id="v-2853"><path  end="target" d="M 26 0 L 0 13 L 26 26 z"></path></g></g><g  id="v-2866" display="none"><g  id="v-2851" transform="translate(1239.9202219770318, 592.6869536913489) "><g  event="remove"><circle r="11"></circle><path transform="scale(.8) translate(-16, -16)" d="M24.778,21.419 19.276,15.917 24.777,10.415 21.949,7.585 16.447,13.087 10.945,7.585 8.117,10.415 13.618,15.917 8.116,21.419 10.946,24.248 16.447,18.746 21.948,24.248z"></path><title>Remove link.</title></g><g  event="link:options"><circle r="11" transform="translate(25)"></circle><path fill="white" transform="scale(.55) translate(29, -16)" d="M31.229,17.736c0.064-0.571,0.104-1.148,0.104-1.736s-0.04-1.166-0.104-1.737l-4.377-1.557c-0.218-0.716-0.504-1.401-0.851-2.05l1.993-4.192c-0.725-0.91-1.549-1.734-2.458-2.459l-4.193,1.994c-0.647-0.347-1.334-0.632-2.049-0.849l-1.558-4.378C17.165,0.708,16.588,0.667,16,0.667s-1.166,0.041-1.737,0.105L12.707,5.15c-0.716,0.217-1.401,0.502-2.05,0.849L6.464,4.005C5.554,4.73,4.73,5.554,4.005,6.464l1.994,4.192c-0.347,0.648-0.632,1.334-0.849,2.05l-4.378,1.557C0.708,14.834,0.667,15.412,0.667,16s0.041,1.165,0.105,1.736l4.378,1.558c0.217,0.715,0.502,1.401,0.849,2.049l-1.994,4.193c0.725,0.909,1.549,1.733,2.459,2.458l4.192-1.993c0.648,0.347,1.334,0.633,2.05,0.851l1.557,4.377c0.571,0.064,1.148,0.104,1.737,0.104c0.588,0,1.165-0.04,1.736-0.104l1.558-4.377c0.715-0.218,1.399-0.504,2.049-0.851l4.193,1.993c0.909-0.725,1.733-1.549,2.458-2.458l-1.993-4.193c0.347-0.647,0.633-1.334,0.851-2.049L31.229,17.736zM16,20.871c-2.69,0-4.872-2.182-4.872-4.871c0-2.69,2.182-4.872,4.872-4.872c2.689,0,4.871,2.182,4.871,4.872C20.871,18.689,18.689,20.871,16,20.871z"></path><title>Link options.</title></g></g></g></g><g   id="j_199" ><path  stroke="#707070" d="M 1508 1208 L 1508 1508" id="v-2883" stroke-width="2" stroke-dasharray="30 30" fill="none" style="opacity: 1;"></path><path  fill="black" stroke="black" d="M 0 0 0 0" transform="matrix(6.123234262925839e-17,1,-1,6.123234262925839e-17,1508,1208)"></path><path  fill="#707070" stroke="#707070" d="M 20 0 L 0 10 L 20 20 z" id="v-2885" transform="matrix(-1.8369701465288538e-16,-1,1,-1.8369701465288538e-16,1498,1508)" style="opacity: 1;"></path><path  d="M 1508 1208 L 1508 1508" id="v-2884" fill="none" style="cursor: auto; pointer-events: visiblepainted;"></path><g ><g id="v-2874"  label-idx="0" cursor="move" transform="matrix(1,0,0,1,1508,1358)" style="opacity: 1;"><rect joint-selector="rect" id="v-2878" fill="#ffffff" rx="3" ry="3" stroke="#ffffff" stroke-width="20px" pointer-events="none" width="155.77432250976562" height="34.425262451171875" transform="matrix(1,0,0,1,-77.9000015258789,-17.200000762939453)"></rect><text joint-selector="text" id="v-2877" font-size="24px" xml:space="preserve" y="0.8em" fill="#707070" text-anchor="middle" pointer-events="none" font-family="Open Sans" font-weight="normal" transform="matrix(1,0,0,1,0,-10.600000381469727)"><tspan  dy="0">interacts with</tspan></text></g><g id="v-2875"  label-idx="1" cursor="move" transform="matrix(1,0,0,1,1508,1389.199951171875)" style="opacity: 1;"><rect joint-selector="rect" id="v-2880" fill="#ffffff" rx="3" ry="3" pointer-events="none" width="0" height="0" transform="matrix(1,0,0,1,0,0)"></rect><text joint-selector="text" id="v-2879" font-size="19px" xml:space="preserve" display="none" y="0.8em" fill="#707070" text-anchor="middle" pointer-events="none" font-family="Open Sans" font-weight="normal"><tspan style="fill-opacity: 0; stroke-opacity: 0;"  dy="0">-</tspan></text></g><g id="v-2876"  label-idx="2" cursor="move" transform="matrix(1,0,0,1,1508,1413.199951171875)" style="opacity: 1;"><rect joint-selector="rect" id="v-2882" fill="#ffffff" rx="3" ry="3" pointer-events="none"  width="0" height="0" transform="matrix(1,0,0,1,0,0)" display="none"></rect><text joint-selector="text" id="v-2881" font-size="19px" xml:space="preserve" display="none" y="0.8em" fill="#707070" text-anchor="middle" pointer-events="none" font-family="Open Sans" font-weight="normal" ><tspan style="fill-opacity: 0; stroke-opacity: 0;"  dy="0">-</tspan></text></g></g><g  display="none" style="display: none;"></g><g  id="v-2887" display="none"><g  id="v-2872"><path  end="source" d="M 26 0 L 0 13 L 26 26 z"></path></g><g  id="v-2873"><path  end="target" d="M 26 0 L 0 13 L 26 26 z"></path></g></g><g  id="v-2886" display="none"><g  id="v-2871" transform="translate(1508, 1248) "><g  event="remove"><circle r="11"></circle><path transform="scale(.8) translate(-16, -16)" d="M24.778,21.419 19.276,15.917 24.777,10.415 21.949,7.585 16.447,13.087 10.945,7.585 8.117,10.415 13.618,15.917 8.116,21.419 10.946,24.248 16.447,18.746 21.948,24.248z"></path><title>Remove link.</title></g><g  event="link:options"><circle r="11" transform="translate(25)"></circle><path fill="white" transform="scale(.55) translate(29, -16)" d="M31.229,17.736c0.064-0.571,0.104-1.148,0.104-1.736s-0.04-1.166-0.104-1.737l-4.377-1.557c-0.218-0.716-0.504-1.401-0.851-2.05l1.993-4.192c-0.725-0.91-1.549-1.734-2.458-2.459l-4.193,1.994c-0.647-0.347-1.334-0.632-2.049-0.849l-1.558-4.378C17.165,0.708,16.588,0.667,16,0.667s-1.166,0.041-1.737,0.105L12.707,5.15c-0.716,0.217-1.401,0.502-2.05,0.849L6.464,4.005C5.554,4.73,4.73,5.554,4.005,6.464l1.994,4.192c-0.347,0.648-0.632,1.334-0.849,2.05l-4.378,1.557C0.708,14.834,0.667,15.412,0.667,16s0.041,1.165,0.105,1.736l4.378,1.558c0.217,0.715,0.502,1.401,0.849,2.049l-1.994,4.193c0.725,0.909,1.549,1.733,2.459,2.458l4.192-1.993c0.648,0.347,1.334,0.633,2.05,0.851l1.557,4.377c0.571,0.064,1.148,0.104,1.737,0.104c0.588,0,1.165-0.04,1.736-0.104l1.558-4.377c0.715-0.218,1.399-0.504,2.049-0.851l4.193,1.993c0.909-0.725,1.733-1.549,2.458-2.458l-1.993-4.193c0.347-0.647,0.633-1.334,0.851-2.049L31.229,17.736zM16,20.871c-2.69,0-4.872-2.182-4.872-4.871c0-2.69,2.182-4.872,4.872-4.872c2.689,0,4.871,2.182,4.871,4.872C20.871,18.689,18.689,20.871,16,20.871z"></path><title>Link options.</title></g></g></g></g><g   id="j_200" ><path  stroke="#707070" d="M 608 526 L 1283 925" id="v-2903" stroke-width="2" stroke-dasharray="30 30" fill="none" style="opacity: 1;"></path><path  fill="black" stroke="black" d="M 0 0 0 0" transform="matrix(0.8609229922294617,0.5087353587150574,-0.5087353587150574,0.8609229922294617,608,526.1799926757812)"></path><path  fill="#707070" stroke="#707070" d="M 20 0 L 0 10 L 20 20 z" id="v-2905" transform="matrix(-0.8609230518341064,-0.5087352395057678,0.5087352395057678,-0.8609230518341064,1277.91259765625,933.6592407226562)" style="opacity: 1;"></path><path  d="M 608 526 L 1283 925" id="v-2904" fill="none" style="cursor: auto; pointer-events: visiblepainted;"></path><g ><g id="v-2894"  label-idx="0" cursor="move" transform="matrix(1,0,0,1,945.5,725.5)" style="opacity: 1;"><rect joint-selector="rect" id="v-2898" fill="#ffffff" rx="3" ry="3" stroke="#ffffff" stroke-width="20px" pointer-events="none" width="155.77432250976562" height="34.425262451171875" transform="matrix(1,0,0,1,-77.9000015258789,-17.200000762939453)"></rect><text joint-selector="text" id="v-2897" font-size="24px" xml:space="preserve" y="0.8em" fill="#707070" text-anchor="middle" pointer-events="none" font-family="Open Sans" font-weight="normal" transform="matrix(1,0,0,1,0,-10.600000381469727)"><tspan  dy="0">interacts with</tspan></text></g><g id="v-2895"  label-idx="1" cursor="move" transform="matrix(1,0,0,1,945.5,756.7000122070312)" style="opacity: 1;"><rect joint-selector="rect" id="v-2900" fill="#ffffff" rx="3" ry="3" pointer-events="none" width="0" height="0" transform="matrix(1,0,0,1,0,0)"></rect><text joint-selector="text" id="v-2899" font-size="19px" xml:space="preserve" display="none" y="0.8em" fill="#707070" text-anchor="middle" pointer-events="none" font-family="Open Sans" font-weight="normal"><tspan style="fill-opacity: 0; stroke-opacity: 0;"  dy="0">-</tspan></text></g><g id="v-2896"  label-idx="2" cursor="move" transform="matrix(1,0,0,1,945.5,780.7000122070312)" style="opacity: 1;"><rect joint-selector="rect" id="v-2902" fill="#ffffff" rx="3" ry="3" pointer-events="none"  width="0" height="0" transform="matrix(1,0,0,1,0,0)" display="none"></rect><text joint-selector="text" id="v-2901" font-size="19px" xml:space="preserve" display="none" y="0.8em" fill="#707070" text-anchor="middle" pointer-events="none" font-family="Open Sans" font-weight="normal" ><tspan style="fill-opacity: 0; stroke-opacity: 0;"  dy="0">-</tspan></text></g></g><g  display="none" style="display: none;"></g><g  id="v-2907" display="none"><g  id="v-2892"><path  end="source" d="M 26 0 L 0 13 L 26 26 z"></path></g><g  id="v-2893"><path  end="target" d="M 26 0 L 0 13 L 26 26 z"></path></g></g><g  id="v-2906" display="none"><g  id="v-2891" transform="translate(642.4340140032144, 546.3543282774557) "><g  event="remove"><circle r="11"></circle><path transform="scale(.8) translate(-16, -16)" d="M24.778,21.419 19.276,15.917 24.777,10.415 21.949,7.585 16.447,13.087 10.945,7.585 8.117,10.415 13.618,15.917 8.116,21.419 10.946,24.248 16.447,18.746 21.948,24.248z"></path><title>Remove link.</title></g><g  event="link:options"><circle r="11" transform="translate(25)"></circle><path fill="white" transform="scale(.55) translate(29, -16)" d="M31.229,17.736c0.064-0.571,0.104-1.148,0.104-1.736s-0.04-1.166-0.104-1.737l-4.377-1.557c-0.218-0.716-0.504-1.401-0.851-2.05l1.993-4.192c-0.725-0.91-1.549-1.734-2.458-2.459l-4.193,1.994c-0.647-0.347-1.334-0.632-2.049-0.849l-1.558-4.378C17.165,0.708,16.588,0.667,16,0.667s-1.166,0.041-1.737,0.105L12.707,5.15c-0.716,0.217-1.401,0.502-2.05,0.849L6.464,4.005C5.554,4.73,4.73,5.554,4.005,6.464l1.994,4.192c-0.347,0.648-0.632,1.334-0.849,2.05l-4.378,1.557C0.708,14.834,0.667,15.412,0.667,16s0.041,1.165,0.105,1.736l4.378,1.558c0.217,0.715,0.502,1.401,0.849,2.049l-1.994,4.193c0.725,0.909,1.549,1.733,2.459,2.458l4.192-1.993c0.648,0.347,1.334,0.633,2.05,0.851l1.557,4.377c0.571,0.064,1.148,0.104,1.737,0.104c0.588,0,1.165-0.04,1.736-0.104l1.558-4.377c0.715-0.218,1.399-0.504,2.049-0.851l4.193,1.993c0.909-0.725,1.733-1.549,2.458-2.458l-1.993-4.193c0.347-0.647,0.633-1.334,0.851-2.049L31.229,17.736zM16,20.871c-2.69,0-4.872-2.182-4.872-4.871c0-2.69,2.182-4.872,4.872-4.872c2.689,0,4.871,2.182,4.871,4.872C20.871,18.689,18.689,20.871,16,20.871z"></path><title>Link options.</title></g></g></g></g><g   id="j_201" ><path  stroke="#707070" d="M 1796 558 L 1595 908" id="v-2923" stroke-width="2" stroke-dasharray="30 30" fill="none" style="opacity: 1;"></path><path  fill="black" stroke="black" d="M 0 0 0 0" transform="matrix(-0.49971675872802734,0.8661888837814331,-0.8661888837814331,-0.49971675872802734,1796.4599609375,558)"></path><path  fill="#707070" stroke="#707070" d="M 20 0 L 0 10 L 20 20 z" id="v-2925" transform="matrix(0.49971675872802734,-0.8661888837814331,0.8661888837814331,0.49971675872802734,1585.8780517578125,903.0028686523438)" style="opacity: 1;"></path><path  d="M 1796 558 L 1595 908" id="v-2924" fill="none" style="cursor: auto; pointer-events: visiblepainted;"></path><g ><g id="v-2914"  label-idx="0" cursor="move" transform="matrix(1,0,0,1,1695.5,733)" style="opacity: 1;"><rect joint-selector="rect" id="v-2918" fill="#ffffff" rx="3" ry="3" stroke="#ffffff" stroke-width="20px" pointer-events="none" width="170.0823211669922" height="63.225263595581055" transform="matrix(1,0,0,1,-85,-31.600000381469727)"></rect><text joint-selector="text" id="v-2917" font-size="24px" xml:space="preserve" y="0.8em" fill="#707070" text-anchor="middle" pointer-events="none" font-family="Open Sans" font-weight="normal" transform="matrix(1,0,0,1,0,-25)"><tspan  dy="0">sends scanned</tspan><tspan dy="1.2em" x="0" >LPA Data to</tspan></text></g><g id="v-2915"  label-idx="1" cursor="move" transform="matrix(1,0,0,1,1695.5,776.2000122070312)" style="opacity: 1;"><rect joint-selector="rect" id="v-2920" fill="#ffffff" rx="3" ry="3" pointer-events="none" width="0" height="0" transform="matrix(1,0,0,1,0,0)"></rect><text joint-selector="text" id="v-2919" font-size="19px" xml:space="preserve" display="none" y="0.8em" fill="#707070" text-anchor="middle" pointer-events="none" font-family="Open Sans" font-weight="normal"><tspan style="fill-opacity: 0; stroke-opacity: 0;"  dy="0">-</tspan></text></g><g id="v-2916"  label-idx="2" cursor="move" transform="matrix(1,0,0,1,1695.5,800.2000122070312)" style="opacity: 1;"><rect joint-selector="rect" id="v-2922" fill="#ffffff" rx="3" ry="3" pointer-events="none"  width="0" height="0" transform="matrix(1,0,0,1,0,0)" display="none"></rect><text joint-selector="text" id="v-2921" font-size="19px" xml:space="preserve" display="none" y="0.8em" fill="#707070" text-anchor="middle" pointer-events="none" font-family="Open Sans" font-weight="normal" ><tspan style="fill-opacity: 0; stroke-opacity: 0;"  dy="0">-</tspan></text></g></g><g  display="none" style="display: none;"></g><g  id="v-2927" display="none"><g  id="v-2912"><path  end="source" d="M 26 0 L 0 13 L 26 26 z"></path></g><g  id="v-2913"><path  end="target" d="M 26 0 L 0 13 L 26 26 z"></path></g></g><g  id="v-2926" display="none"><g  id="v-2911" transform="translate(1776.0797780229682, 592.6869536913489) "><g  event="remove"><circle r="11"></circle><path transform="scale(.8) translate(-16, -16)" d="M24.778,21.419 19.276,15.917 24.777,10.415 21.949,7.585 16.447,13.087 10.945,7.585 8.117,10.415 13.618,15.917 8.116,21.419 10.946,24.248 16.447,18.746 21.948,24.248z"></path><title>Remove link.</title></g><g  event="link:options"><circle r="11" transform="translate(25)"></circle><path fill="white" transform="scale(.55) translate(29, -16)" d="M31.229,17.736c0.064-0.571,0.104-1.148,0.104-1.736s-0.04-1.166-0.104-1.737l-4.377-1.557c-0.218-0.716-0.504-1.401-0.851-2.05l1.993-4.192c-0.725-0.91-1.549-1.734-2.458-2.459l-4.193,1.994c-0.647-0.347-1.334-0.632-2.049-0.849l-1.558-4.378C17.165,0.708,16.588,0.667,16,0.667s-1.166,0.041-1.737,0.105L12.707,5.15c-0.716,0.217-1.401,0.502-2.05,0.849L6.464,4.005C5.554,4.73,4.73,5.554,4.005,6.464l1.994,4.192c-0.347,0.648-0.632,1.334-0.849,2.05l-4.378,1.557C0.708,14.834,0.667,15.412,0.667,16s0.041,1.165,0.105,1.736l4.378,1.558c0.217,0.715,0.502,1.401,0.849,2.049l-1.994,4.193c0.725,0.909,1.549,1.733,2.459,2.458l4.192-1.993c0.648,0.347,1.334,0.633,2.05,0.851l1.557,4.377c0.571,0.064,1.148,0.104,1.737,0.104c0.588,0,1.165-0.04,1.736-0.104l1.558-4.377c0.715-0.218,1.399-0.504,2.049-0.851l4.193,1.993c0.909-0.725,1.733-1.549,2.458-2.458l-1.993-4.193c0.347-0.647,0.633-1.334,0.851-2.049L31.229,17.736zM16,20.871c-2.69,0-4.872-2.182-4.872-4.871c0-2.69,2.182-4.872,4.872-4.872c2.689,0,4.871,2.182,4.871,4.872C20.871,18.689,18.689,20.871,16,20.871z"></path><title>Link options.</title></g></g></g></g></g><g ></g><g ></g><g ></g></g></svg>