<svg xmlns="http://www.w3.org/2000/svg" xmlns:xlink="http://www.w3.org/1999/xlink" version="1.1" viewBox="0 0 2316 2016" style="background: #ffffff"><defs joint-selector="defs"></defs><g  joint-selector="layers" transform="matrix(1,0,0,1,0,0)"><g ></g><g ><g   id="j_117"  transform="translate(20,1971)"><g id="v-1795"><text  id="v-1796" font-size="22px" xml:space="preserve" y="0.8em" font-weight="normal" text-anchor="start" fill="#aaaaaa" pointer-events="none" font-family="Open Sans" display="block"><tspan  dy="0">Monday, 20 February 2023 at 16:35 Greenwich Mean Time</tspan></text></g></g><g   id="j_116"  transform="translate(20,1927)"><g id="v-1793"><text  id="v-1794" font-size="36px" xml:space="preserve" y="0.8em" font-weight="normal" text-anchor="start" fill="#000000" pointer-events="none" font-family="Open Sans" display="block"><tspan  dy="0">[System Context] Modernising Lasting Power of Attorney</tspan></text></g></g><g   id="j_108"  transform="translate(888,888)" style=""><g id="v-1664"><rect  id="v-1665" width="490" height="413" rx="0" ry="0" fill="#ffffff" stroke="#444444" stroke-width="1" stroke-dasharray="20,20" pointer-events="none"></rect><text  id="v-1666" font-size="24px" xml:space="preserve" y="374" font-weight="normal" fill="#444444" text-anchor="start" pointer-events="visible" font-family="Open Sans" transform="matrix(1,0,0,1,15,0)"><tspan  dy="0">Modernising Lasting Power of Attorney</tspan></text><text  id="v-1667" font-size="19px" xml:space="preserve" y="398" font-weight="normal" fill="#444444" text-anchor="start" pointer-events="visible" font-family="Open Sans" transform="matrix(1,0,0,1,15,0)"><tspan  dy="0">[Enterprise]</tspan></text><image  id="v-1668" pointer-events="visible"></image></g></g><g   id="j_106"  transform="translate(208,208)" style=""><g  id="v-1641" style="opacity: 1;"><rect  x="0" y="160" width="400" height="240" rx="70" id="v-1643" stroke="#073b6f" stroke-width="2" pointer-events="visiblePainted" fill="#08427b" style="fill: rgb(8, 66, 123); stroke: rgb(7, 59, 111);"></rect><circle  cx="200" cy="88.88888888888889" r="88.88888888888889" id="v-1642" stroke="#073b6f" stroke-width="2" pointer-events="visiblePainted" fill="#08427b" style="fill: rgb(8, 66, 123); stroke: rgb(7, 59, 111);"></circle><line  x1="80" y1="266.6666666666667" x2="80" y2="400" id="v-1649" stroke="#073b6f" stroke-width="2" style="stroke: rgb(7, 59, 111);"></line><line  x1="320" y1="266.6666666666667" x2="320" y2="400" id="v-1650" stroke="#073b6f" stroke-width="2" style="stroke: rgb(7, 59, 111);"></line><text  id="v-1644" font-size="34px" xml:space="preserve" y="0.8em" font-weight="bold" text-anchor="middle" pointer-events="visible" font-family="Open Sans" fill="#ffffff" transform="matrix(1,0,0,1,200,205)" style="fill: rgb(255, 255, 255);"><tspan  dy="0">Actor</tspan></text><text  id="v-1645" font-size="19px" xml:space="preserve" y="0.8em" text-anchor="middle" font-family="Open Sans" fill="#ffffff" transform="matrix(1,0,0,1,200,247.5)" style="fill: rgb(255, 255, 255);"><tspan  dy="0">[Person]</tspan></text><text  id="v-1646" font-size="24px" xml:space="preserve" y="0.8em" text-anchor="middle" font-family="Open Sans" fill="#ffffff" transform="matrix(1,0,0,1,200,295)" style="fill: rgb(255, 255, 255);"><tspan  dy="0">Actor interacting with a Lasting</tspan><tspan dy="1.2em" x="0" >Power of Attorney.</tspan></text><text  id="v-1647" font-weight="bold" text-anchor="middle" font-family="Open Sans" fill="#ffffff" font-size="24" transform="matrix(1,0,0,1,200,371.20001220703125)" xml:space="preserve" display="none" y="0.8em" style="fill: rgb(255, 255, 255);"><tspan style="fill-opacity: 0; stroke-opacity: 0;"  dy="0">-</tspan></text><image  id="v-1648"></image></g></g><g   id="j_107"  transform="translate(908,908)" style=""><g  id="v-1657" style="opacity: 1;"><rect  id="v-1658" rx="20" ry="20" stroke="#0f5eaa" stroke-width="2" pointer-events="visiblePainted" fill="#1168bd" width="450" height="300" style="fill: rgb(17, 104, 189); stroke: rgb(15, 94, 170);"></rect><text  id="v-1659" font-size="34" xml:space="preserve" y="0.8em" font-weight="bold" text-anchor="middle" pointer-events="visible" font-family="Open Sans" fill="#ffffff" transform="matrix(1,0,0,1,225,53.79999923706055)" style="fill: rgb(255, 255, 255);"><tspan  dy="0">Modernising Lasting</tspan><tspan dy="1.2em" x="0" >Power of Attorney</tspan></text><text  id="v-1660" font-size="19" xml:space="preserve" y="0.8em" text-anchor="middle" font-family="Open Sans" fill="#ffffff" transform="matrix(1,0,0,1,225,138.8000030517578)" style="fill: rgb(255, 255, 255);"><tspan  dy="0">[Software System]</tspan></text><text  id="v-1661" font-size="24" xml:space="preserve" y="0.8em" text-anchor="middle" font-family="Open Sans" fill="#ffffff" transform="matrix(1,0,0,1,225,186.3000030517578)" style="fill: rgb(255, 255, 255);"><tspan  dy="0">Digital Lasting Power of Attorney</tspan><tspan dy="1.2em" x="0" >infrastructure</tspan></text><text  id="v-1662" font-weight="bold" text-anchor="middle" font-family="Open Sans" fill="#ffffff" font-size="24" transform="matrix(1,0,0,1,225,270)" xml:space="preserve" y="0.8em" display="none" style="fill: rgb(255, 255, 255);"><tspan  dy="0">+</tspan></text><image  id="v-1663"></image></g></g><g   id="j_109"  transform="translate(908,1508)" style=""><g  id="v-1675" style="opacity: 1;"><rect  id="v-1676" rx="20" ry="20" stroke="#8a8a8a" stroke-width="2" pointer-events="visiblePainted" fill="#999999" width="450" height="300" style="fill: rgb(153, 153, 153); stroke: rgb(138, 138, 138);"></rect><text  id="v-1677" font-size="34" xml:space="preserve" y="0.8em" font-weight="bold" text-anchor="middle" pointer-events="visible" font-family="Open Sans" fill="#ffffff" transform="matrix(1,0,0,1,225,75)" style="fill: rgb(255, 255, 255);"><tspan  dy="0">External Services</tspan></text><text  id="v-1678" font-size="19" xml:space="preserve" y="0.8em" text-anchor="middle" font-family="Open Sans" fill="#ffffff" transform="matrix(1,0,0,1,225,117.5)" style="fill: rgb(255, 255, 255);"><tspan  dy="0">[Software System]</tspan></text><text  id="v-1679" font-size="24" xml:space="preserve" y="0.8em" text-anchor="middle" font-family="Open Sans" fill="#ffffff" transform="matrix(1,0,0,1,225,165)" style="fill: rgb(255, 255, 255);"><tspan  dy="0">GOV.UK Notify, Pay, One Login, Yoti,</tspan><tspan dy="1.2em" x="0" >Ordanance Survey</tspan></text><text  id="v-1680" font-weight="bold" text-anchor="middle" font-family="Open Sans" fill="#ffffff" font-size="24" transform="matrix(1,0,0,1,225,270)" xml:space="preserve" display="none" y="0.8em" style="fill: rgb(255, 255, 255);"><tspan style="fill-opacity: 0; stroke-opacity: 0;"  dy="0">-</tspan></text><image  id="v-1681"></image></g></g><g   id="j_110"  transform="translate(908,258)" style=""><g  id="v-1685" style="opacity: 1;"><rect  id="v-1686" rx="20" ry="20" stroke="#8a8a8a" stroke-width="2" pointer-events="visiblePainted" fill="#999999" width="450" height="300" style="fill: rgb(153, 153, 153); stroke: rgb(138, 138, 138);"></rect><text  id="v-1687" font-size="34" xml:space="preserve" y="0.8em" font-weight="bold" text-anchor="middle" pointer-events="visible" font-family="Open Sans" fill="#ffffff" transform="matrix(1,0,0,1,225,90)" style="fill: rgb(255, 255, 255);"><tspan  dy="0">Scanning Software</tspan></text><text  id="v-1688" font-size="19" xml:space="preserve" y="0.8em" text-anchor="middle" font-family="Open Sans" fill="#ffffff" transform="matrix(1,0,0,1,225,132.5)" style="fill: rgb(255, 255, 255);"><tspan  dy="0">[Software System]</tspan></text><text  id="v-1689" font-size="24" xml:space="preserve" y="0.8em" text-anchor="middle" font-family="Open Sans" fill="#ffffff" transform="matrix(1,0,0,1,225,180)" style="fill: rgb(255, 255, 255);"><tspan  dy="0">TBC</tspan></text><text  id="v-1690" font-weight="bold" text-anchor="middle" font-family="Open Sans" fill="#ffffff" font-size="24" transform="matrix(1,0,0,1,225,270)" xml:space="preserve" display="none" y="0.8em" style="fill: rgb(255, 255, 255);"><tspan style="fill-opacity: 0; stroke-opacity: 0;"  dy="0">-</tspan></text><image  id="v-1691"></image></g></g><g   id="j_111"  transform="translate(1658,258)" style=""><g  id="v-1695" style="opacity: 1;"><rect  id="v-1696" rx="10" ry="10" stroke="#8a8a8a" stroke-width="2" pointer-events="visiblePainted" fill="#8a8a8a" width="450" height="300" style="fill: rgb(138, 138, 138); stroke: rgb(138, 138, 138);"></rect><rect  id="v-1697" rx="10" ry="10" stroke="#8a8a8a" stroke-width="0" pointer-events="visiblePainted" fill="#999999" width="430" height="250" x="10" y="40" style="fill: rgb(153, 153, 153);"></rect><ellipse  id="v-1704" fill="#999999" cx="20" cy="20" rx="10" ry="10" style="fill: rgb(153, 153, 153);"></ellipse><ellipse  id="v-1705" fill="#999999" cx="50" cy="20" rx="10" ry="10" style="fill: rgb(153, 153, 153);"></ellipse><ellipse  id="v-1706" fill="#999999" cx="80" cy="20" rx="10" ry="10" style="fill: rgb(153, 153, 153);"></ellipse><rect  id="v-1698" rx="10" ry="10" stroke="#444444" stroke-width="0" pointer-events="visiblePainted" fill="#999999" width="340" height="20" x="100" y="10" style="fill: rgb(153, 153, 153);"></rect><text  id="v-1699" font-size="34" xml:space="preserve" y="0.8em" font-weight="bold" text-anchor="middle" pointer-events="visible" font-family="Open Sans" fill="#ffffff" transform="matrix(1,0,0,1,225,110)" style="fill: rgb(255, 255, 255);"><tspan  dy="0">Use an LPA</tspan></text><text  id="v-1700" font-size="19" xml:space="preserve" y="0.8em" text-anchor="middle" font-family="Open Sans" fill="#ffffff" transform="matrix(1,0,0,1,225,152.5)" style="fill: rgb(255, 255, 255);"><tspan  dy="0">[Software System]</tspan></text><text  id="v-1701" font-size="24" xml:space="preserve" y="0.8em" text-anchor="middle" font-family="Open Sans" fill="#ffffff" transform="matrix(1,0,0,1,225,200)" style="fill: rgb(255, 255, 255);"><tspan  dy="0">Use/View an LPA Service.</tspan></text><text  id="v-1702" font-weight="bold" text-anchor="middle" font-family="Open Sans" fill="#ffffff" font-size="24" transform="matrix(1,0,0,1,225,270)" xml:space="preserve" display="none" y="0.8em" style="fill: rgb(255, 255, 255);"><tspan style="fill-opacity: 0; stroke-opacity: 0;"  dy="0">-</tspan></text><image  id="v-1703"></image></g></g><g   id="j_112" ><path  stroke="#707070" d="M 1710 558 L 1306 908" id="v-1722" stroke-width="2" stroke-dasharray="30 30" fill="none" style="opacity: 1;"></path><path  fill="black" stroke="black" d="M 0 0 0 0" transform="matrix(-0.7556841969490051,0.6549361944198608,-0.6549361944198608,-0.7556841969490051,1709.9200439453125,558)"></path><path  fill="#707070" stroke="#707070" d="M 20 0 L 0 10 L 20 20 z" id="v-1724" transform="matrix(0.7556840181350708,-0.6549363732337952,0.6549363732337952,0.7556840181350708,1299.5306396484375,900.4431762695312)" style="opacity: 1;"></path><path  d="M 1710 558 L 1306 908" id="v-1723" fill="none" style="cursor: auto; pointer-events: visiblepainted;"></path><g ><g id="v-1713"  label-idx="0" cursor="move" transform="matrix(1,0,0,1,1508,733)" style="opacity: 1;"><rect joint-selector="rect" id="v-1717" fill="#ffffff" rx="3" ry="3" stroke="#ffffff" stroke-width="20px" pointer-events="none" width="171.66494750976562" height="35.25062561035156" transform="matrix(1,0,0,1,-85.80000305175781,-17.700000762939453)"></rect><text joint-selector="text" id="v-1716" font-size="24px" xml:space="preserve" y="0.8em" fill="#707070" text-anchor="middle" pointer-events="none" font-family="Open Sans" font-weight="normal" transform="matrix(1,0,0,1,0,-10)"><tspan  dy="0">read data from</tspan></text></g><g id="v-1714"  label-idx="1" cursor="move" transform="matrix(1,0,0,1,1508,764.2000122070312)" style="opacity: 1;"><rect joint-selector="rect" id="v-1719" fill="#ffffff" rx="3" ry="3" pointer-events="none" width="0" height="0" transform="matrix(1,0,0,1,0,0)"></rect><text joint-selector="text" id="v-1718" font-size="19px" xml:space="preserve" display="none" y="0.8em" fill="#707070" text-anchor="middle" pointer-events="none" font-family="Open Sans" font-weight="normal"><tspan style="fill-opacity: 0; stroke-opacity: 0;"  dy="0">-</tspan></text></g><g id="v-1715"  label-idx="2" cursor="move" transform="matrix(1,0,0,1,1508,788.2000122070312)" style="opacity: 1;"><rect joint-selector="rect" id="v-1721" fill="#ffffff" rx="3" ry="3" pointer-events="none"  width="0" height="0" transform="matrix(1,0,0,1,0,0)" display="none"></rect><text joint-selector="text" id="v-1720" font-size="19px" xml:space="preserve" display="none" y="0.8em" fill="#707070" text-anchor="middle" pointer-events="none" font-family="Open Sans" font-weight="normal" ><tspan style="fill-opacity: 0; stroke-opacity: 0;"  dy="0">-</tspan></text></g></g><g  display="none" style="display: none;"></g><g  id="v-1726" display="none"><g  id="v-1711"><path  end="source" d="M 26 0 L 0 13 L 26 26 z"></path></g><g  id="v-1712"><path  end="target" d="M 26 0 L 0 13 L 26 26 z"></path></g></g><g  id="v-1725" display="none"><g  id="v-1710" transform="translate(1679.7674990122334, 584.191523132966) "><g  event="remove"><circle r="11"></circle><path transform="scale(.8) translate(-16, -16)" d="M24.778,21.419 19.276,15.917 24.777,10.415 21.949,7.585 16.447,13.087 10.945,7.585 8.117,10.415 13.618,15.917 8.116,21.419 10.946,24.248 16.447,18.746 21.948,24.248z"></path><title>Remove link.</title></g><g  event="link:options"><circle r="11" transform="translate(25)"></circle><path fill="white" transform="scale(.55) translate(29, -16)" d="M31.229,17.736c0.064-0.571,0.104-1.148,0.104-1.736s-0.04-1.166-0.104-1.737l-4.377-1.557c-0.218-0.716-0.504-1.401-0.851-2.05l1.993-4.192c-0.725-0.91-1.549-1.734-2.458-2.459l-4.193,1.994c-0.647-0.347-1.334-0.632-2.049-0.849l-1.558-4.378C17.165,0.708,16.588,0.667,16,0.667s-1.166,0.041-1.737,0.105L12.707,5.15c-0.716,0.217-1.401,0.502-2.05,0.849L6.464,4.005C5.554,4.73,4.73,5.554,4.005,6.464l1.994,4.192c-0.347,0.648-0.632,1.334-0.849,2.05l-4.378,1.557C0.708,14.834,0.667,15.412,0.667,16s0.041,1.165,0.105,1.736l4.378,1.558c0.217,0.715,0.502,1.401,0.849,2.049l-1.994,4.193c0.725,0.909,1.549,1.733,2.459,2.458l4.192-1.993c0.648,0.347,1.334,0.633,2.05,0.851l1.557,4.377c0.571,0.064,1.148,0.104,1.737,0.104c0.588,0,1.165-0.04,1.736-0.104l1.558-4.377c0.715-0.218,1.399-0.504,2.049-0.851l4.193,1.993c0.909-0.725,1.733-1.549,2.458-2.458l-1.993-4.193c0.347-0.647,0.633-1.334,0.851-2.049L31.229,17.736zM16,20.871c-2.69,0-4.872-2.182-4.872-4.871c0-2.69,2.182-4.872,4.872-4.872c2.689,0,4.871,2.182,4.871,4.872C20.871,18.689,18.689,20.871,16,20.871z"></path><title>Link options.</title></g></g></g></g><g   id="j_113" ><path  stroke="#707070" d="M 1133 558 L 1133 908" id="v-1742" stroke-width="2" stroke-dasharray="30 30" fill="none" style="opacity: 1;"></path><path  fill="black" stroke="black" d="M 0 0 0 0" transform="matrix(6.123234262925839e-17,1,-1,6.123234262925839e-17,1133,558)"></path><path  fill="#707070" stroke="#707070" d="M 20 0 L 0 10 L 20 20 z" id="v-1744" transform="matrix(-1.8369701465288538e-16,-1,1,-1.8369701465288538e-16,1123,908)" style="opacity: 1;"></path><path  d="M 1133 558 L 1133 908" id="v-1743" fill="none" style="cursor: auto; pointer-events: visiblepainted;"></path><g ><g id="v-1733"  label-idx="0" cursor="move" transform="matrix(1,0,0,1,1133,733)" style="opacity: 1;"><rect joint-selector="rect" id="v-1737" fill="#ffffff" rx="3" ry="3" stroke="#ffffff" stroke-width="20px" pointer-events="none" width="169.2589569091797" height="64.05062866210938" transform="matrix(1,0,0,1,-84.5999984741211,-32.099998474121094)"></rect><text joint-selector="text" id="v-1736" font-size="24px" xml:space="preserve" y="0.8em" fill="#707070" text-anchor="middle" pointer-events="none" font-family="Open Sans" font-weight="normal" transform="matrix(1,0,0,1,0,-24.399999618530273)"><tspan  dy="0">sends scanned</tspan><tspan dy="1.2em" x="0" >LPA Data to</tspan></text></g><g id="v-1734"  label-idx="1" cursor="move" transform="matrix(1,0,0,1,1133,776.2000122070312)" style="opacity: 1;"><rect joint-selector="rect" id="v-1739" fill="#ffffff" rx="3" ry="3" pointer-events="none" width="0" height="0" transform="matrix(1,0,0,1,0,0)"></rect><text joint-selector="text" id="v-1738" font-size="19px" xml:space="preserve" display="none" y="0.8em" fill="#707070" text-anchor="middle" pointer-events="none" font-family="Open Sans" font-weight="normal"><tspan style="fill-opacity: 0; stroke-opacity: 0;"  dy="0">-</tspan></text></g><g id="v-1735"  label-idx="2" cursor="move" transform="matrix(1,0,0,1,1133,800.2000122070312)" style="opacity: 1;"><rect joint-selector="rect" id="v-1741" fill="#ffffff" rx="3" ry="3" pointer-events="none"  width="0" height="0" transform="matrix(1,0,0,1,0,0)" display="none"></rect><text joint-selector="text" id="v-1740" font-size="19px" xml:space="preserve" display="none" y="0.8em" fill="#707070" text-anchor="middle" pointer-events="none" font-family="Open Sans" font-weight="normal" ><tspan style="fill-opacity: 0; stroke-opacity: 0;"  dy="0">-</tspan></text></g></g><g  display="none" style="display: none;"></g><g  id="v-1746" display="none"><g  id="v-1731"><path  end="source" d="M 26 0 L 0 13 L 26 26 z"></path></g><g  id="v-1732"><path  end="target" d="M 26 0 L 0 13 L 26 26 z"></path></g></g><g  id="v-1745" display="none"><g  id="v-1730" transform="translate(1133, 598) "><g  event="remove"><circle r="11"></circle><path transform="scale(.8) translate(-16, -16)" d="M24.778,21.419 19.276,15.917 24.777,10.415 21.949,7.585 16.447,13.087 10.945,7.585 8.117,10.415 13.618,15.917 8.116,21.419 10.946,24.248 16.447,18.746 21.948,24.248z"></path><title>Remove link.</title></g><g  event="link:options"><circle r="11" transform="translate(25)"></circle><path fill="white" transform="scale(.55) translate(29, -16)" d="M31.229,17.736c0.064-0.571,0.104-1.148,0.104-1.736s-0.04-1.166-0.104-1.737l-4.377-1.557c-0.218-0.716-0.504-1.401-0.851-2.05l1.993-4.192c-0.725-0.91-1.549-1.734-2.458-2.459l-4.193,1.994c-0.647-0.347-1.334-0.632-2.049-0.849l-1.558-4.378C17.165,0.708,16.588,0.667,16,0.667s-1.166,0.041-1.737,0.105L12.707,5.15c-0.716,0.217-1.401,0.502-2.05,0.849L6.464,4.005C5.554,4.73,4.73,5.554,4.005,6.464l1.994,4.192c-0.347,0.648-0.632,1.334-0.849,2.05l-4.378,1.557C0.708,14.834,0.667,15.412,0.667,16s0.041,1.165,0.105,1.736l4.378,1.558c0.217,0.715,0.502,1.401,0.849,2.049l-1.994,4.193c0.725,0.909,1.549,1.733,2.459,2.458l4.192-1.993c0.648,0.347,1.334,0.633,2.05,0.851l1.557,4.377c0.571,0.064,1.148,0.104,1.737,0.104c0.588,0,1.165-0.04,1.736-0.104l1.558-4.377c0.715-0.218,1.399-0.504,2.049-0.851l4.193,1.993c0.909-0.725,1.733-1.549,2.458-2.458l-1.993-4.193c0.347-0.647,0.633-1.334,0.851-2.049L31.229,17.736zM16,20.871c-2.69,0-4.872-2.182-4.872-4.871c0-2.69,2.182-4.872,4.872-4.872c2.689,0,4.871,2.182,4.871,4.872C20.871,18.689,18.689,20.871,16,20.871z"></path><title>Link options.</title></g></g></g></g><g   id="j_114" ><path  stroke="#707070" d="M 1133 1208 L 1133 1508" id="v-1762" stroke-width="2" stroke-dasharray="30 30" fill="none" style="opacity: 1;"></path><path  fill="black" stroke="black" d="M 0 0 0 0" transform="matrix(6.123234262925839e-17,1,-1,6.123234262925839e-17,1133,1208)"></path><path  fill="#707070" stroke="#707070" d="M 20 0 L 0 10 L 20 20 z" id="v-1764" transform="matrix(-1.8369701465288538e-16,-1,1,-1.8369701465288538e-16,1123,1508)" style="opacity: 1;"></path><path  d="M 1133 1208 L 1133 1508" id="v-1763" fill="none" style="cursor: auto; pointer-events: visiblepainted;"></path><g ><g id="v-1753"  label-idx="0" cursor="move" transform="matrix(1,0,0,1,1133,1358)" style="opacity: 1;"><rect joint-selector="rect" id="v-1757" fill="#ffffff" rx="3" ry="3" stroke="#ffffff" stroke-width="20px" pointer-events="none" width="155.0467987060547" height="35.25062561035156" transform="matrix(1,0,0,1,-77.5,-17.700000762939453)"></rect><text joint-selector="text" id="v-1756" font-size="24px" xml:space="preserve" y="0.8em" fill="#707070" text-anchor="middle" pointer-events="none" font-family="Open Sans" font-weight="normal" transform="matrix(1,0,0,1,0,-10)"><tspan  dy="0">interacts with</tspan></text></g><g id="v-1754"  label-idx="1" cursor="move" transform="matrix(1,0,0,1,1133,1389.199951171875)" style="opacity: 1;"><rect joint-selector="rect" id="v-1759" fill="#ffffff" rx="3" ry="3" pointer-events="none" width="0" height="0" transform="matrix(1,0,0,1,0,0)"></rect><text joint-selector="text" id="v-1758" font-size="19px" xml:space="preserve" display="none" y="0.8em" fill="#707070" text-anchor="middle" pointer-events="none" font-family="Open Sans" font-weight="normal"><tspan style="fill-opacity: 0; stroke-opacity: 0;"  dy="0">-</tspan></text></g><g id="v-1755"  label-idx="2" cursor="move" transform="matrix(1,0,0,1,1133,1413.199951171875)" style="opacity: 1;"><rect joint-selector="rect" id="v-1761" fill="#ffffff" rx="3" ry="3" pointer-events="none"  width="0" height="0" transform="matrix(1,0,0,1,0,0)" display="none"></rect><text joint-selector="text" id="v-1760" font-size="19px" xml:space="preserve" display="none" y="0.8em" fill="#707070" text-anchor="middle" pointer-events="none" font-family="Open Sans" font-weight="normal" ><tspan style="fill-opacity: 0; stroke-opacity: 0;"  dy="0">-</tspan></text></g></g><g  display="none" style="display: none;"></g><g  id="v-1766" display="none"><g  id="v-1751"><path  end="source" d="M 26 0 L 0 13 L 26 26 z"></path></g><g  id="v-1752"><path  end="target" d="M 26 0 L 0 13 L 26 26 z"></path></g></g><g  id="v-1765" display="none"><g  id="v-1750" transform="translate(1133, 1248) "><g  event="remove"><circle r="11"></circle><path transform="scale(.8) translate(-16, -16)" d="M24.778,21.419 19.276,15.917 24.777,10.415 21.949,7.585 16.447,13.087 10.945,7.585 8.117,10.415 13.618,15.917 8.116,21.419 10.946,24.248 16.447,18.746 21.948,24.248z"></path><title>Remove link.</title></g><g  event="link:options"><circle r="11" transform="translate(25)"></circle><path fill="white" transform="scale(.55) translate(29, -16)" d="M31.229,17.736c0.064-0.571,0.104-1.148,0.104-1.736s-0.04-1.166-0.104-1.737l-4.377-1.557c-0.218-0.716-0.504-1.401-0.851-2.05l1.993-4.192c-0.725-0.91-1.549-1.734-2.458-2.459l-4.193,1.994c-0.647-0.347-1.334-0.632-2.049-0.849l-1.558-4.378C17.165,0.708,16.588,0.667,16,0.667s-1.166,0.041-1.737,0.105L12.707,5.15c-0.716,0.217-1.401,0.502-2.05,0.849L6.464,4.005C5.554,4.73,4.73,5.554,4.005,6.464l1.994,4.192c-0.347,0.648-0.632,1.334-0.849,2.05l-4.378,1.557C0.708,14.834,0.667,15.412,0.667,16s0.041,1.165,0.105,1.736l4.378,1.558c0.217,0.715,0.502,1.401,0.849,2.049l-1.994,4.193c0.725,0.909,1.549,1.733,2.459,2.458l4.192-1.993c0.648,0.347,1.334,0.633,2.05,0.851l1.557,4.377c0.571,0.064,1.148,0.104,1.737,0.104c0.588,0,1.165-0.04,1.736-0.104l1.558-4.377c0.715-0.218,1.399-0.504,2.049-0.851l4.193,1.993c0.909-0.725,1.733-1.549,2.458-2.458l-1.993-4.193c0.347-0.647,0.633-1.334,0.851-2.049L31.229,17.736zM16,20.871c-2.69,0-4.872-2.182-4.872-4.871c0-2.69,2.182-4.872,4.872-4.872c2.689,0,4.871,2.182,4.871,4.872C20.871,18.689,18.689,20.871,16,20.871z"></path><title>Link options.</title></g></g></g></g><g   id="j_115" ><path  stroke="#707070" d="M 608 587 L 966 908" id="v-1782" stroke-width="2" stroke-dasharray="30 30" fill="none" style="opacity: 1;"></path><path  fill="black" stroke="black" d="M 0 0 0 0" transform="matrix(0.7445669770240784,0.6675477623939514,-0.6675477623939514,0.7445669770240784,608,587.3099975585938)"></path><path  fill="#707070" stroke="#707070" d="M 20 0 L 0 10 L 20 20 z" id="v-1784" transform="matrix(-0.7445669770240784,-0.6675477623939514,0.6675477623939514,-0.7445669770240784,959.0145263671875,915.4456787109375)" style="opacity: 1;"></path><path  d="M 608 587 L 966 908" id="v-1783" fill="none" style="cursor: auto; pointer-events: visiblepainted;"></path><g ><g id="v-1773"  label-idx="0" cursor="move" transform="matrix(1,0,0,1,787,747.5)" style="opacity: 1;"><rect joint-selector="rect" id="v-1777" fill="#ffffff" rx="3" ry="3" stroke="#ffffff" stroke-width="20px" pointer-events="none" width="155.0467987060547" height="35.25062561035156" transform="matrix(1,0,0,1,-77.5,-17.700000762939453)"></rect><text joint-selector="text" id="v-1776" font-size="24px" xml:space="preserve" y="0.8em" fill="#707070" text-anchor="middle" pointer-events="none" font-family="Open Sans" font-weight="normal" transform="matrix(1,0,0,1,0,-10)"><tspan  dy="0">interacts with</tspan></text></g><g id="v-1774"  label-idx="1" cursor="move" transform="matrix(1,0,0,1,787,778.7000122070312)" style="opacity: 1;"><rect joint-selector="rect" id="v-1779" fill="#ffffff" rx="3" ry="3" pointer-events="none" width="0" height="0" transform="matrix(1,0,0,1,0,0)"></rect><text joint-selector="text" id="v-1778" font-size="19px" xml:space="preserve" display="none" y="0.8em" fill="#707070" text-anchor="middle" pointer-events="none" font-family="Open Sans" font-weight="normal"><tspan style="fill-opacity: 0; stroke-opacity: 0;"  dy="0">-</tspan></text></g><g id="v-1775"  label-idx="2" cursor="move" transform="matrix(1,0,0,1,787,802.7000122070312)" style="opacity: 1;"><rect joint-selector="rect" id="v-1781" fill="#ffffff" rx="3" ry="3" pointer-events="none"  width="0" height="0" transform="matrix(1,0,0,1,0,0)" display="none"></rect><text joint-selector="text" id="v-1780" font-size="19px" xml:space="preserve" display="none" y="0.8em" fill="#707070" text-anchor="middle" pointer-events="none" font-family="Open Sans" font-weight="normal" ><tspan style="fill-opacity: 0; stroke-opacity: 0;"  dy="0">-</tspan></text></g></g><g  display="none" style="display: none;"></g><g  id="v-1786" display="none"><g  id="v-1771"><path  end="source" d="M 26 0 L 0 13 L 26 26 z"></path></g><g  id="v-1772"><path  end="target" d="M 26 0 L 0 13 L 26 26 z"></path></g></g><g  id="v-1785" display="none"><g  id="v-1770" transform="translate(637.7813518144686, 613.7033908727498) "><g  event="remove"><circle r="11"></circle><path transform="scale(.8) translate(-16, -16)" d="M24.778,21.419 19.276,15.917 24.777,10.415 21.949,7.585 16.447,13.087 10.945,7.585 8.117,10.415 13.618,15.917 8.116,21.419 10.946,24.248 16.447,18.746 21.948,24.248z"></path><title>Remove link.</title></g><g  event="link:options"><circle r="11" transform="translate(25)"></circle><path fill="white" transform="scale(.55) translate(29, -16)" d="M31.229,17.736c0.064-0.571,0.104-1.148,0.104-1.736s-0.04-1.166-0.104-1.737l-4.377-1.557c-0.218-0.716-0.504-1.401-0.851-2.05l1.993-4.192c-0.725-0.91-1.549-1.734-2.458-2.459l-4.193,1.994c-0.647-0.347-1.334-0.632-2.049-0.849l-1.558-4.378C17.165,0.708,16.588,0.667,16,0.667s-1.166,0.041-1.737,0.105L12.707,5.15c-0.716,0.217-1.401,0.502-2.05,0.849L6.464,4.005C5.554,4.73,4.73,5.554,4.005,6.464l1.994,4.192c-0.347,0.648-0.632,1.334-0.849,2.05l-4.378,1.557C0.708,14.834,0.667,15.412,0.667,16s0.041,1.165,0.105,1.736l4.378,1.558c0.217,0.715,0.502,1.401,0.849,2.049l-1.994,4.193c0.725,0.909,1.549,1.733,2.459,2.458l4.192-1.993c0.648,0.347,1.334,0.633,2.05,0.851l1.557,4.377c0.571,0.064,1.148,0.104,1.737,0.104c0.588,0,1.165-0.04,1.736-0.104l1.558-4.377c0.715-0.218,1.399-0.504,2.049-0.851l4.193,1.993c0.909-0.725,1.733-1.549,2.458-2.458l-1.993-4.193c0.347-0.647,0.633-1.334,0.851-2.049L31.229,17.736zM16,20.871c-2.69,0-4.872-2.182-4.872-4.871c0-2.69,2.182-4.872,4.872-4.872c2.689,0,4.871,2.182,4.871,4.872C20.871,18.689,18.689,20.871,16,20.871z"></path><title>Link options.</title></g></g></g></g></g><g ></g><g ></g><g ></g></g></svg>