<svg xmlns="http://www.w3.org/2000/svg" xmlns:xlink="http://www.w3.org/1999/xlink" version="1.1" viewBox="0 0 3025 2620" style="background: #ffffff"><defs joint-selector="defs"></defs><g  joint-selector="layers" transform="matrix(1,0,0,1,0,0)"><g ></g><g ><g   id="j_264"  transform="translate(20,2575)"><g id="v-3832"><text  id="v-3833" font-size="22px" xml:space="preserve" y="0.8em" font-weight="normal" text-anchor="start" fill="#aaaaaa" pointer-events="none" font-family="Open Sans"><tspan  dy="0">Friday, 24 February 2023 at 12:07 Greenwich Mean Time</tspan></text></g></g><g   id="j_263"  transform="translate(20,2531)"><g id="v-3830"><text  id="v-3831" font-size="36px" xml:space="preserve" y="0.8em" font-weight="normal" text-anchor="start" fill="#000000" pointer-events="none" font-family="Open Sans"><tspan  dy="0">[Component] Modernising Lasting Power of Attorney - Registered LPA Service</tspan></text></g></g><g   id="j_247"  transform="translate(938,788)" style=""><g id="v-3561"><rect  id="v-3562" width="1240" height="1613" rx="0" ry="0" fill="#ffffff" stroke="#3c7fc0" stroke-width="1" stroke-dasharray="20,20" pointer-events="none"></rect><text  id="v-3563" font-size="24px" xml:space="preserve" y="1574" font-weight="normal" fill="#3c7fc0" text-anchor="start" pointer-events="visible" font-family="Open Sans" transform="matrix(1,0,0,1,15,0)"><tspan  dy="0">Registered LPA Service</tspan></text><text  id="v-3564" font-size="19px" xml:space="preserve" y="1598" font-weight="normal" fill="#3c7fc0" text-anchor="start" pointer-events="visible" font-family="Open Sans" transform="matrix(1,0,0,1,15,0)"><tspan  dy="0">[Container]</tspan></text><image  id="v-3565" pointer-events="visible"></image></g></g><g   id="j_248"  transform="translate(208,208)" style=""><g  id="v-3575" style="opacity: 1;"><rect  id="v-3576" rx="20" ry="20" stroke="#78a8d8" stroke-width="2" pointer-events="visiblePainted" fill="#85bbf0" width="450" height="300" style="fill: rgb(133, 187, 240); stroke: rgb(120, 168, 216);"></rect><text  id="v-3577" font-size="34" xml:space="preserve" y="0.8em" font-weight="bold" text-anchor="middle" pointer-events="visible" font-family="Open Sans" fill="#000000" transform="matrix(1,0,0,1,225,75)" style="fill: rgb(0, 0, 0);"><tspan  dy="0">Sirius Case Management</tspan></text><text  id="v-3578" font-size="19" xml:space="preserve" y="0.8em" text-anchor="middle" font-family="Open Sans" fill="#000000" transform="matrix(1,0,0,1,225,117.5)" style="fill: rgb(0, 0, 0);"><tspan  dy="0">[Container: Go, HTML, CSS, JS]</tspan></text><text  id="v-3579" font-size="24" xml:space="preserve" y="0.8em" text-anchor="middle" font-family="Open Sans" fill="#000000" transform="matrix(1,0,0,1,225,165)" style="fill: rgb(0, 0, 0);"><tspan  dy="0">Case Management for case working</tspan><tspan dy="1.2em" x="0" >LPAs.</tspan></text><text  id="v-3580" font-weight="normal" text-anchor="middle" font-family="Open Sans" fill="#000000" font-size="34" transform="matrix(1,0,0,1,225,251)" xml:space="preserve" y="0.8em" display="none" style="fill: rgb(0, 0, 0);"><tspan  dy="0">+</tspan></text><image  id="v-3581"></image></g></g><g   id="j_249"  transform="translate(2367,2008)" style=""><g  id="v-3588" style="opacity: 1;"><path  d="M 0,30 a 225,30 0,0,0 450 0 a 225,30 0,0,0 -450 0 l 0,240 a 225,30 0,0,0 450 0 l 0,-240" id="v-3589" stroke="#3c7fc0" stroke-width="2" pointer-events="visiblePainted" fill="#438dd5" style="fill: rgb(67, 141, 213); stroke: rgb(60, 127, 192);"></path><rect  id="v-3590" stroke-width="0" pointer-events="visiblePainted" fill="none" stroke="none" width="450" height="270" x="0" y="30"></rect><text  id="v-3591" font-size="34px" xml:space="preserve" y="0.8em" font-weight="bold" text-anchor="middle" pointer-events="visible" font-family="Open Sans" fill="#ffffff" transform="matrix(1,0,0,1,225,90)" style="fill: rgb(255, 255, 255);"><tspan  dy="0">Registered LPA Data Store</tspan></text><text  id="v-3592" font-size="19px" xml:space="preserve" y="0.8em" text-anchor="middle" font-family="Open Sans" fill="#ffffff" transform="matrix(1,0,0,1,225,132.5)" style="fill: rgb(255, 255, 255);"><tspan  dy="0">[Container: AuroraDB]</tspan></text><text  id="v-3593" font-size="24px" xml:space="preserve" y="0.8em" text-anchor="middle" font-family="Open Sans" fill="#ffffff" transform="matrix(1,0,0,1,225,180)" style="fill: rgb(255, 255, 255);"><tspan  dy="0">Stores immutable LPA data with high</tspan><tspan dy="1.2em" x="0" >availablility, security and auditing.</tspan></text><text  id="v-3594" font-weight="normal" text-anchor="middle" font-family="Open Sans" fill="#ffffff" font-size="34" transform="matrix(1,0,0,1,225,251)" xml:space="preserve" y="0.8em" display="none" style="fill: rgb(255, 255, 255);"><tspan  dy="0">+</tspan></text><image  id="v-3595"></image></g></g><g   id="j_250"  transform="translate(958,808)" style=""><g  id="v-3602" style="opacity: 1;"><rect  id="v-3603" rx="20" ry="20" stroke="#3c7fc0" stroke-width="2" pointer-events="visiblePainted" fill="#438dd5" width="450" height="300" style="fill: rgb(67, 141, 213); stroke: rgb(60, 127, 192);"></rect><text  id="v-3604" font-size="34" xml:space="preserve" y="0.8em" font-weight="bold" text-anchor="middle" pointer-events="visible" font-family="Open Sans" fill="#ffffff" transform="matrix(1,0,0,1,225,75)" style="fill: rgb(255, 255, 255);"><tspan  dy="0">Registered LPA Read API</tspan></text><text  id="v-3605" font-size="19" xml:space="preserve" y="0.8em" text-anchor="middle" font-family="Open Sans" fill="#ffffff" transform="matrix(1,0,0,1,225,117.5)" style="fill: rgb(255, 255, 255);"><tspan  dy="0">[Component: API Gateway]</tspan></text><text  id="v-3606" font-size="24" xml:space="preserve" y="0.8em" text-anchor="middle" font-family="Open Sans" fill="#ffffff" transform="matrix(1,0,0,1,225,165)" style="fill: rgb(255, 255, 255);"><tspan  dy="0">Highly available API for reading and</tspan><tspan dy="1.2em" x="0" >searching the LPA Register</tspan></text><text  id="v-3607" font-weight="normal" text-anchor="middle" font-family="Open Sans" fill="#ffffff" font-size="34" transform="matrix(1,0,0,1,225,251)" xml:space="preserve" display="none" y="0.8em" style="fill: rgb(255, 255, 255);"><tspan style="fill-opacity: 0; stroke-opacity: 0;"  dy="0">-</tspan></text><image  id="v-3608"></image></g></g><g   id="j_251"  transform="translate(1708,808)" style=""><g  id="v-3615" style="opacity: 1;"><rect  id="v-3616" rx="20" ry="20" stroke="#3c7fc0" stroke-width="2" pointer-events="visiblePainted" fill="#438dd5" width="450" height="300" style="fill: rgb(67, 141, 213); stroke: rgb(60, 127, 192);"></rect><text  id="v-3617" font-size="34" xml:space="preserve" y="0.8em" font-weight="bold" text-anchor="middle" pointer-events="visible" font-family="Open Sans" fill="#ffffff" transform="matrix(1,0,0,1,225,75)" style="fill: rgb(255, 255, 255);"><tspan  dy="0">Registered LPA Write API</tspan></text><text  id="v-3618" font-size="19" xml:space="preserve" y="0.8em" text-anchor="middle" font-family="Open Sans" fill="#ffffff" transform="matrix(1,0,0,1,225,117.5)" style="fill: rgb(255, 255, 255);"><tspan  dy="0">[Component: API Gateway, Go]</tspan></text><text  id="v-3619" font-size="24" xml:space="preserve" y="0.8em" text-anchor="middle" font-family="Open Sans" fill="#ffffff" transform="matrix(1,0,0,1,225,165)" style="fill: rgb(255, 255, 255);"><tspan  dy="0">Interface to writing to the Registered</tspan><tspan dy="1.2em" x="0" >LPA Database.</tspan></text><text  id="v-3620" font-weight="normal" text-anchor="middle" font-family="Open Sans" fill="#ffffff" font-size="34" transform="matrix(1,0,0,1,225,251)" xml:space="preserve" display="none" y="0.8em" style="fill: rgb(255, 255, 255);"><tspan style="fill-opacity: 0; stroke-opacity: 0;"  dy="0">-</tspan></text><image  id="v-3621"></image></g></g><g   id="j_252"  transform="translate(1708,208)" style=""><g  id="v-3628" style="opacity: 1;"><rect  id="v-3629" rx="20" ry="20" stroke="#3c7fc0" stroke-width="2" pointer-events="visiblePainted" fill="#438dd5" width="450" height="300" style="fill: rgb(67, 141, 213); stroke: rgb(60, 127, 192);"></rect><text  id="v-3630" font-size="34" xml:space="preserve" y="0.8em" font-weight="bold" text-anchor="middle" pointer-events="visible" font-family="Open Sans" fill="#ffffff" transform="matrix(1,0,0,1,225,75)" style="fill: rgb(255, 255, 255);"><tspan  dy="0">Staging Service</tspan></text><text  id="v-3631" font-size="19" xml:space="preserve" y="0.8em" text-anchor="middle" font-family="Open Sans" fill="#ffffff" transform="matrix(1,0,0,1,225,117.5)" style="fill: rgb(255, 255, 255);"><tspan  dy="0">[Container: API Gateway, Go, DynamoDB]</tspan></text><text  id="v-3632" font-size="24" xml:space="preserve" y="0.8em" text-anchor="middle" font-family="Open Sans" fill="#ffffff" transform="matrix(1,0,0,1,225,165)" style="fill: rgb(255, 255, 255);"><tspan  dy="0">Stores and manages data for</tspan><tspan dy="1.2em" x="0" >pre-registration.</tspan></text><text  id="v-3633" font-weight="normal" text-anchor="middle" font-family="Open Sans" fill="#ffffff" font-size="34" transform="matrix(1,0,0,1,225,251)" xml:space="preserve" y="0.8em" display="none" style="fill: rgb(255, 255, 255);"><tspan  dy="0">+</tspan></text><image  id="v-3634"></image></g></g><g   id="j_253"  transform="translate(992,1408)" style=""><g  id="v-3641" style="opacity: 1;"><path  d="M 0,30 a 225,30 0,0,0 450 0 a 225,30 0,0,0 -450 0 l 0,240 a 225,30 0,0,0 450 0 l 0,-240" id="v-3642" stroke="#78a8d8" stroke-width="2" pointer-events="visiblePainted" fill="#85bbf0" style="fill: rgb(133, 187, 240); stroke: rgb(120, 168, 216);"></path><rect  id="v-3643" stroke-width="0" pointer-events="visiblePainted" fill="none" stroke="none" width="450" height="270" x="0" y="30"></rect><text  id="v-3644" font-size="34px" xml:space="preserve" y="0.8em" font-weight="bold" text-anchor="middle" pointer-events="visible" font-family="Open Sans" fill="#000000" transform="matrix(1,0,0,1,225,68.80000305175781)" style="fill: rgb(0, 0, 0);"><tspan  dy="0">Read Replica LPA</tspan><tspan dy="1.2em" x="0" >Database</tspan></text><text  id="v-3645" font-size="19px" xml:space="preserve" y="0.8em" text-anchor="middle" font-family="Open Sans" fill="#000000" transform="matrix(1,0,0,1,225,153.8000030517578)" style="fill: rgb(0, 0, 0);"><tspan  dy="0">[Component: AuroraDB]</tspan></text><text  id="v-3646" font-size="24px" xml:space="preserve" y="0.8em" text-anchor="middle" font-family="Open Sans" fill="#000000" transform="matrix(1,0,0,1,225,201.3000030517578)" style="fill: rgb(0, 0, 0);"><tspan  dy="0">Cached version of Registered LPA</tspan><tspan dy="1.2em" x="0" >Data.</tspan></text><text  id="v-3647" font-weight="normal" text-anchor="middle" font-family="Open Sans" fill="#000000" font-size="34" transform="matrix(1,0,0,1,225,251)" xml:space="preserve" display="none" y="0.8em" style="fill: rgb(0, 0, 0);"><tspan style="fill-opacity: 0; stroke-opacity: 0;"  dy="0">-</tspan></text><image  id="v-3648"></image></g></g><g   id="j_254"  transform="translate(992,2008)" style=""><g  id="v-3655" style="opacity: 1;"><path  d="M 0,30 a 225,30 0,0,0 450 0 a 225,30 0,0,0 -450 0 l 0,240 a 225,30 0,0,0 450 0 l 0,-240" id="v-3656" stroke="#78a8d8" stroke-width="2" pointer-events="visiblePainted" fill="#85bbf0" style="fill: rgb(133, 187, 240); stroke: rgb(120, 168, 216);"></path><rect  id="v-3657" stroke-width="0" pointer-events="visiblePainted" fill="none" stroke="none" width="450" height="270" x="0" y="30"></rect><text  id="v-3658" font-size="34px" xml:space="preserve" y="0.8em" font-weight="bold" text-anchor="middle" pointer-events="visible" font-family="Open Sans" fill="#000000" transform="matrix(1,0,0,1,225,83.80000305175781)" style="fill: rgb(0, 0, 0);"><tspan  dy="0">Monitoring and</tspan><tspan dy="1.2em" x="0" >Telemetery</tspan></text><text  id="v-3659" font-size="19px" xml:space="preserve" y="0.8em" text-anchor="middle" font-family="Open Sans" fill="#000000" transform="matrix(1,0,0,1,225,168.8000030517578)" style="fill: rgb(0, 0, 0);"><tspan  dy="0">[Component: AWS Cloudwatch]</tspan></text><text  id="v-3660" font-size="24px" xml:space="preserve" y="0.8em" text-anchor="middle" font-family="Open Sans" fill="#000000" transform="matrix(1,0,0,1,225,216.3000030517578)" style="fill: rgb(0, 0, 0);"><tspan  dy="0">Cloudwatch logs and X-Ray</tspan></text><text  id="v-3661" font-weight="normal" text-anchor="middle" font-family="Open Sans" fill="#000000" font-size="34" transform="matrix(1,0,0,1,225,251)" xml:space="preserve" display="none" y="0.8em" style="fill: rgb(0, 0, 0);"><tspan style="fill-opacity: 0; stroke-opacity: 0;"  dy="0">-</tspan></text><image  id="v-3662"></image></g></g><g   id="j_255"  transform="translate(958,208)" style=""><g  id="v-3666" style="opacity: 1;"><rect  id="v-3667" rx="10" ry="10" stroke="#8a8a8a" stroke-width="2" pointer-events="visiblePainted" fill="#8a8a8a" width="450" height="300" style="fill: rgb(138, 138, 138); stroke: rgb(138, 138, 138);"></rect><rect  id="v-3668" rx="10" ry="10" stroke="#8a8a8a" stroke-width="0" pointer-events="visiblePainted" fill="#999999" width="430" height="250" x="10" y="40" style="fill: rgb(153, 153, 153);"></rect><ellipse  id="v-3675" fill="#999999" cx="20" cy="20" rx="10" ry="10" style="fill: rgb(153, 153, 153);"></ellipse><ellipse  id="v-3676" fill="#999999" cx="50" cy="20" rx="10" ry="10" style="fill: rgb(153, 153, 153);"></ellipse><ellipse  id="v-3677" fill="#999999" cx="80" cy="20" rx="10" ry="10" style="fill: rgb(153, 153, 153);"></ellipse><rect  id="v-3669" rx="10" ry="10" stroke="#444444" stroke-width="0" pointer-events="visiblePainted" fill="#999999" width="340" height="20" x="100" y="10" style="fill: rgb(153, 153, 153);"></rect><text  id="v-3670" font-size="34" xml:space="preserve" y="0.8em" font-weight="bold" text-anchor="middle" pointer-events="visible" font-family="Open Sans" fill="#ffffff" transform="matrix(1,0,0,1,225,110)" style="fill: rgb(255, 255, 255);"><tspan  dy="0">Use an LPA</tspan></text><text  id="v-3671" font-size="19" xml:space="preserve" y="0.8em" text-anchor="middle" font-family="Open Sans" fill="#ffffff" transform="matrix(1,0,0,1,225,152.5)" style="fill: rgb(255, 255, 255);"><tspan  dy="0">[Software System]</tspan></text><text  id="v-3672" font-size="24" xml:space="preserve" y="0.8em" text-anchor="middle" font-family="Open Sans" fill="#ffffff" transform="matrix(1,0,0,1,225,200)" style="fill: rgb(255, 255, 255);"><tspan  dy="0">Use/View an LPA Service.</tspan></text><text  id="v-3673" font-weight="normal" text-anchor="middle" font-family="Open Sans" fill="#ffffff" font-size="34" transform="matrix(1,0,0,1,225,251)" xml:space="preserve" display="none" y="0.8em" style="fill: rgb(255, 255, 255);"><tspan style="fill-opacity: 0; stroke-opacity: 0;"  dy="0">-</tspan></text><image  id="v-3674"></image></g></g><g   id="j_256" ><path  stroke="#707070" d="M 1442 1656 L 2367 2060" id="v-3690" stroke-width="2" stroke-dasharray="30 30" fill="none" style="opacity: 1;"></path><path  fill="black" stroke="black" d="M 0 0 0 0" transform="matrix(0.9165380597114563,0.39994749426841736,-0.39994749426841736,0.9165380597114563,1442,1656.1800537109375)"></path><path  fill="#707070" stroke="#707070" d="M 20 0 L 0 10 L 20 20 z" id="v-3692" transform="matrix(-0.9165381193161011,-0.3999474048614502,0.3999474048614502,-0.9165381193161011,2363.000732421875,2068.9853515625)" style="opacity: 1;"></path><path  d="M 1442 1656 L 2367 2060" id="v-3691" fill="none" style="cursor: auto; pointer-events: visiblepainted;"></path><g ><g id="v-3681"  label-idx="0" cursor="move" transform="matrix(1,0,0,1,1904.5,1858)" style="opacity: 1;"><rect joint-selector="rect" id="v-3685" fill="#ffffff" rx="3" ry="3" stroke="#ffffff" stroke-width="20px" pointer-events="none" width="119.67699432373047" height="34.86795425415039" transform="matrix(1,0,0,1,-59.79999923706055,-17.5)"></rect><text joint-selector="text" id="v-3684" font-size="24px" xml:space="preserve" y="0.8em" fill="#707070" text-anchor="middle" pointer-events="none" font-family="Open Sans" font-weight="normal" transform="matrix(1,0,0,1,0,-10.5)"><tspan  dy="0">syncs with</tspan></text></g><g id="v-3682"  label-idx="1" cursor="move" transform="matrix(1,0,0,1,1904.5,1889.199951171875)" style="opacity: 1;"><rect joint-selector="rect" id="v-3687" fill="#ffffff" rx="3" ry="3" pointer-events="none" width="0" height="0" transform="matrix(1,0,0,1,0,0)"></rect><text joint-selector="text" id="v-3686" font-size="19px" xml:space="preserve" display="none" y="0.8em" fill="#707070" text-anchor="middle" pointer-events="none" font-family="Open Sans" font-weight="normal"><tspan style="fill-opacity: 0; stroke-opacity: 0;"  dy="0">-</tspan></text></g><g id="v-3683"  label-idx="2" cursor="move" transform="matrix(1,0,0,1,1904.5,1913.199951171875)" style="opacity: 1;"><rect joint-selector="rect" id="v-3689" fill="#ffffff" rx="3" ry="3" pointer-events="none"  width="0" height="0" transform="matrix(1,0,0,1,0,0)" display="none"></rect><text joint-selector="text" id="v-3688" font-size="19px" xml:space="preserve" display="none" y="0.8em" fill="#707070" text-anchor="middle" pointer-events="none" font-family="Open Sans" font-weight="normal" ><tspan style="fill-opacity: 0; stroke-opacity: 0;"  dy="0">-</tspan></text></g></g><g  display="none" style="display: none;"></g><g  id="v-3694" display="none"><g  id="v-3679"><path  end="source" d="M 26 0 L 0 13 L 26 26 z"></path></g><g  id="v-3680"><path  end="target" d="M 26 0 L 0 13 L 26 26 z"></path></g></g><g  id="v-3693" display="none"><g  id="v-3678" transform="translate(1478.656290813896, 1672.0098826906096) "><g  event="remove"><circle r="11"></circle><path transform="scale(.8) translate(-16, -16)" d="M24.778,21.419 19.276,15.917 24.777,10.415 21.949,7.585 16.447,13.087 10.945,7.585 8.117,10.415 13.618,15.917 8.116,21.419 10.946,24.248 16.447,18.746 21.948,24.248z"></path><title>Remove link.</title></g><g  event="link:options"><circle r="11" transform="translate(25)"></circle><path fill="white" transform="scale(.55) translate(29, -16)" d="M31.229,17.736c0.064-0.571,0.104-1.148,0.104-1.736s-0.04-1.166-0.104-1.737l-4.377-1.557c-0.218-0.716-0.504-1.401-0.851-2.05l1.993-4.192c-0.725-0.91-1.549-1.734-2.458-2.459l-4.193,1.994c-0.647-0.347-1.334-0.632-2.049-0.849l-1.558-4.378C17.165,0.708,16.588,0.667,16,0.667s-1.166,0.041-1.737,0.105L12.707,5.15c-0.716,0.217-1.401,0.502-2.05,0.849L6.464,4.005C5.554,4.73,4.73,5.554,4.005,6.464l1.994,4.192c-0.347,0.648-0.632,1.334-0.849,2.05l-4.378,1.557C0.708,14.834,0.667,15.412,0.667,16s0.041,1.165,0.105,1.736l4.378,1.558c0.217,0.715,0.502,1.401,0.849,2.049l-1.994,4.193c0.725,0.909,1.549,1.733,2.459,2.458l4.192-1.993c0.648,0.347,1.334,0.633,2.05,0.851l1.557,4.377c0.571,0.064,1.148,0.104,1.737,0.104c0.588,0,1.165-0.04,1.736-0.104l1.558-4.377c0.715-0.218,1.399-0.504,2.049-0.851l4.193,1.993c0.909-0.725,1.733-1.549,2.458-2.458l-1.993-4.193c0.347-0.647,0.633-1.334,0.851-2.049L31.229,17.736zM16,20.871c-2.69,0-4.872-2.182-4.872-4.871c0-2.69,2.182-4.872,4.872-4.872c2.689,0,4.871,2.182,4.871,4.872C20.871,18.689,18.689,20.871,16,20.871z"></path><title>Link options.</title></g></g></g></g><g   id="j_257" ><path  stroke="#707070" d="M 1183 508 L 1183 808" id="v-3710" stroke-width="2" stroke-dasharray="30 30" fill="none" style="opacity: 1;"></path><path  fill="black" stroke="black" d="M 0 0 0 0" transform="matrix(6.123234262925839e-17,1,-1,6.123234262925839e-17,1183,508)"></path><path  fill="#707070" stroke="#707070" d="M 20 0 L 0 10 L 20 20 z" id="v-3712" transform="matrix(-1.8369701465288538e-16,-1,1,-1.8369701465288538e-16,1173,808)" style="opacity: 1;"></path><path  d="M 1183 508 L 1183 808" id="v-3711" fill="none" style="cursor: auto; pointer-events: visiblepainted;"></path><g ><g id="v-3701"  label-idx="0" cursor="move" transform="matrix(1,0,0,1,1183,658)" style="opacity: 1;"><rect joint-selector="rect" id="v-3705" fill="#ffffff" rx="3" ry="3" stroke="#ffffff" stroke-width="20px" pointer-events="none" width="172.59637451171875" height="34.86795425415039" transform="matrix(1,0,0,1,-86.30000305175781,-17.5)"></rect><text joint-selector="text" id="v-3704" font-size="24px" xml:space="preserve" y="0.8em" fill="#707070" text-anchor="middle" pointer-events="none" font-family="Open Sans" font-weight="normal" transform="matrix(1,0,0,1,0,-10.5)"><tspan  dy="0">read data from</tspan></text></g><g id="v-3702"  label-idx="1" cursor="move" transform="matrix(1,0,0,1,1183,689.2000122070312)" style="opacity: 1;"><rect joint-selector="rect" id="v-3707" fill="#ffffff" rx="3" ry="3" pointer-events="none" width="0" height="0" transform="matrix(1,0,0,1,0,0)"></rect><text joint-selector="text" id="v-3706" font-size="19px" xml:space="preserve" display="none" y="0.8em" fill="#707070" text-anchor="middle" pointer-events="none" font-family="Open Sans" font-weight="normal"><tspan style="fill-opacity: 0; stroke-opacity: 0;"  dy="0">-</tspan></text></g><g id="v-3703"  label-idx="2" cursor="move" transform="matrix(1,0,0,1,1183,713.2000122070312)" style="opacity: 1;"><rect joint-selector="rect" id="v-3709" fill="#ffffff" rx="3" ry="3" pointer-events="none"  width="0" height="0" transform="matrix(1,0,0,1,0,0)" display="none"></rect><text joint-selector="text" id="v-3708" font-size="19px" xml:space="preserve" display="none" y="0.8em" fill="#707070" text-anchor="middle" pointer-events="none" font-family="Open Sans" font-weight="normal" ><tspan style="fill-opacity: 0; stroke-opacity: 0;"  dy="0">-</tspan></text></g></g><g  display="none" style="display: none;"></g><g  id="v-3714" display="none"><g  id="v-3699"><path  end="source" d="M 26 0 L 0 13 L 26 26 z"></path></g><g  id="v-3700"><path  end="target" d="M 26 0 L 0 13 L 26 26 z"></path></g></g><g  id="v-3713" display="none"><g  id="v-3698" transform="translate(1183, 548) "><g  event="remove"><circle r="11"></circle><path transform="scale(.8) translate(-16, -16)" d="M24.778,21.419 19.276,15.917 24.777,10.415 21.949,7.585 16.447,13.087 10.945,7.585 8.117,10.415 13.618,15.917 8.116,21.419 10.946,24.248 16.447,18.746 21.948,24.248z"></path><title>Remove link.</title></g><g  event="link:options"><circle r="11" transform="translate(25)"></circle><path fill="white" transform="scale(.55) translate(29, -16)" d="M31.229,17.736c0.064-0.571,0.104-1.148,0.104-1.736s-0.04-1.166-0.104-1.737l-4.377-1.557c-0.218-0.716-0.504-1.401-0.851-2.05l1.993-4.192c-0.725-0.91-1.549-1.734-2.458-2.459l-4.193,1.994c-0.647-0.347-1.334-0.632-2.049-0.849l-1.558-4.378C17.165,0.708,16.588,0.667,16,0.667s-1.166,0.041-1.737,0.105L12.707,5.15c-0.716,0.217-1.401,0.502-2.05,0.849L6.464,4.005C5.554,4.73,4.73,5.554,4.005,6.464l1.994,4.192c-0.347,0.648-0.632,1.334-0.849,2.05l-4.378,1.557C0.708,14.834,0.667,15.412,0.667,16s0.041,1.165,0.105,1.736l4.378,1.558c0.217,0.715,0.502,1.401,0.849,2.049l-1.994,4.193c0.725,0.909,1.549,1.733,2.459,2.458l4.192-1.993c0.648,0.347,1.334,0.633,2.05,0.851l1.557,4.377c0.571,0.064,1.148,0.104,1.737,0.104c0.588,0,1.165-0.04,1.736-0.104l1.558-4.377c0.715-0.218,1.399-0.504,2.049-0.851l4.193,1.993c0.909-0.725,1.733-1.549,2.458-2.458l-1.993-4.193c0.347-0.647,0.633-1.334,0.851-2.049L31.229,17.736zM16,20.871c-2.69,0-4.872-2.182-4.872-4.871c0-2.69,2.182-4.872,4.872-4.872c2.689,0,4.871,2.182,4.871,4.872C20.871,18.689,18.689,20.871,16,20.871z"></path><title>Link options.</title></g></g></g></g><g   id="j_258" ><path  stroke="#707070" d="M 2015 1108 L 2510 2008" id="v-3730" stroke-width="2" stroke-dasharray="30 30" fill="none" style="opacity: 1;"></path><path  fill="black" stroke="black" d="M 0 0 0 0" transform="matrix(0.4813578724861145,0.8765241503715515,-0.8765241503715515,0.4813578724861145,2015.3800048828125,1108)"></path><path  fill="#707070" stroke="#707070" d="M 20 0 L 0 10 L 20 20 z" id="v-3732" transform="matrix(-0.4813578724861145,-0.8765241503715515,0.8765241503715515,-0.4813578724861145,2500.86474609375,2012.8135986328125)" style="opacity: 1;"></path><path  d="M 2015 1108 L 2510 2008" id="v-3731" fill="none" style="cursor: auto; pointer-events: visiblepainted;"></path><g ><g id="v-3721"  label-idx="0" cursor="move" transform="matrix(1,0,0,1,2262.5,1558)" style="opacity: 1;"><rect joint-selector="rect" id="v-3725" fill="#ffffff" rx="3" ry="3" stroke="#ffffff" stroke-width="20px" pointer-events="none" width="157.74118041992188" height="34.86795425415039" transform="matrix(1,0,0,1,-78.9000015258789,-17.5)"></rect><text joint-selector="text" id="v-3724" font-size="24px" xml:space="preserve" y="0.8em" fill="#707070" text-anchor="middle" pointer-events="none" font-family="Open Sans" font-weight="normal" transform="matrix(1,0,0,1,0,-10.5)"><tspan  dy="0">writes data to</tspan></text></g><g id="v-3722"  label-idx="1" cursor="move" transform="matrix(1,0,0,1,2262.5,1589.199951171875)" style="opacity: 1;"><rect joint-selector="rect" id="v-3727" fill="#ffffff" rx="3" ry="3" pointer-events="none" width="0" height="0" transform="matrix(1,0,0,1,0,0)"></rect><text joint-selector="text" id="v-3726" font-size="19px" xml:space="preserve" display="none" y="0.8em" fill="#707070" text-anchor="middle" pointer-events="none" font-family="Open Sans" font-weight="normal"><tspan style="fill-opacity: 0; stroke-opacity: 0;"  dy="0">-</tspan></text></g><g id="v-3723"  label-idx="2" cursor="move" transform="matrix(1,0,0,1,2262.5,1613.199951171875)" style="opacity: 1;"><rect joint-selector="rect" id="v-3729" fill="#ffffff" rx="3" ry="3" pointer-events="none"  width="0" height="0" transform="matrix(1,0,0,1,0,0)" display="none"></rect><text joint-selector="text" id="v-3728" font-size="19px" xml:space="preserve" display="none" y="0.8em" fill="#707070" text-anchor="middle" pointer-events="none" font-family="Open Sans" font-weight="normal" ><tspan style="fill-opacity: 0; stroke-opacity: 0;"  dy="0">-</tspan></text></g></g><g  display="none" style="display: none;"></g><g  id="v-3734" display="none"><g  id="v-3719"><path  end="source" d="M 26 0 L 0 13 L 26 26 z"></path></g><g  id="v-3720"><path  end="target" d="M 26 0 L 0 13 L 26 26 z"></path></g></g><g  id="v-3733" display="none"><g  id="v-3718" transform="translate(2034.2767499908864, 1143.048636347066) "><g  event="remove"><circle r="11"></circle><path transform="scale(.8) translate(-16, -16)" d="M24.778,21.419 19.276,15.917 24.777,10.415 21.949,7.585 16.447,13.087 10.945,7.585 8.117,10.415 13.618,15.917 8.116,21.419 10.946,24.248 16.447,18.746 21.948,24.248z"></path><title>Remove link.</title></g><g  event="link:options"><circle r="11" transform="translate(25)"></circle><path fill="white" transform="scale(.55) translate(29, -16)" d="M31.229,17.736c0.064-0.571,0.104-1.148,0.104-1.736s-0.04-1.166-0.104-1.737l-4.377-1.557c-0.218-0.716-0.504-1.401-0.851-2.05l1.993-4.192c-0.725-0.91-1.549-1.734-2.458-2.459l-4.193,1.994c-0.647-0.347-1.334-0.632-2.049-0.849l-1.558-4.378C17.165,0.708,16.588,0.667,16,0.667s-1.166,0.041-1.737,0.105L12.707,5.15c-0.716,0.217-1.401,0.502-2.05,0.849L6.464,4.005C5.554,4.73,4.73,5.554,4.005,6.464l1.994,4.192c-0.347,0.648-0.632,1.334-0.849,2.05l-4.378,1.557C0.708,14.834,0.667,15.412,0.667,16s0.041,1.165,0.105,1.736l4.378,1.558c0.217,0.715,0.502,1.401,0.849,2.049l-1.994,4.193c0.725,0.909,1.549,1.733,2.459,2.458l4.192-1.993c0.648,0.347,1.334,0.633,2.05,0.851l1.557,4.377c0.571,0.064,1.148,0.104,1.737,0.104c0.588,0,1.165-0.04,1.736-0.104l1.558-4.377c0.715-0.218,1.399-0.504,2.049-0.851l4.193,1.993c0.909-0.725,1.733-1.549,2.458-2.458l-1.993-4.193c0.347-0.647,0.633-1.334,0.851-2.049L31.229,17.736zM16,20.871c-2.69,0-4.872-2.182-4.872-4.871c0-2.69,2.182-4.872,4.872-4.872c2.689,0,4.871,2.182,4.871,4.872C20.871,18.689,18.689,20.871,16,20.871z"></path><title>Link options.</title></g></g></g></g><g   id="j_259" ><path  stroke="#707070" d="M 1933 508 L 1933 808" id="v-3750" stroke-width="2" stroke-dasharray="30 30" fill="none" style="opacity: 1;"></path><path  fill="black" stroke="black" d="M 0 0 0 0" transform="matrix(6.123234262925839e-17,1,-1,6.123234262925839e-17,1933,508)"></path><path  fill="#707070" stroke="#707070" d="M 20 0 L 0 10 L 20 20 z" id="v-3752" transform="matrix(-1.8369701465288538e-16,-1,1,-1.8369701465288538e-16,1923,808)" style="opacity: 1;"></path><path  d="M 1933 508 L 1933 808" id="v-3751" fill="none" style="cursor: auto; pointer-events: visiblepainted;"></path><g ><g id="v-3741"  label-idx="0" cursor="move" transform="matrix(1,0,0,1,1933,658)" style="opacity: 1;"><rect joint-selector="rect" id="v-3745" fill="#ffffff" rx="3" ry="3" stroke="#ffffff" stroke-width="20px" pointer-events="none" width="180.73223876953125" height="63.66795349121094" transform="matrix(1,0,0,1,-90.4000015258789,-31.899999618530273)"></rect><text joint-selector="text" id="v-3744" font-size="24px" xml:space="preserve" y="0.8em" fill="#707070" text-anchor="middle" pointer-events="none" font-family="Open Sans" font-weight="normal" transform="matrix(1,0,0,1,0,-24.899999618530273)"><tspan  dy="0">writes validated</tspan><tspan dy="1.2em" x="0" >data to</tspan></text></g><g id="v-3742"  label-idx="1" cursor="move" transform="matrix(1,0,0,1,1933,701.2000122070312)" style="opacity: 1;"><rect joint-selector="rect" id="v-3747" fill="#ffffff" rx="3" ry="3" pointer-events="none" width="0" height="0" transform="matrix(1,0,0,1,0,0)"></rect><text joint-selector="text" id="v-3746" font-size="19px" xml:space="preserve" display="none" y="0.8em" fill="#707070" text-anchor="middle" pointer-events="none" font-family="Open Sans" font-weight="normal"><tspan style="fill-opacity: 0; stroke-opacity: 0;"  dy="0">-</tspan></text></g><g id="v-3743"  label-idx="2" cursor="move" transform="matrix(1,0,0,1,1933,725.2000122070312)" style="opacity: 1;"><rect joint-selector="rect" id="v-3749" fill="#ffffff" rx="3" ry="3" pointer-events="none"  width="0" height="0" transform="matrix(1,0,0,1,0,0)" display="none"></rect><text joint-selector="text" id="v-3748" font-size="19px" xml:space="preserve" display="none" y="0.8em" fill="#707070" text-anchor="middle" pointer-events="none" font-family="Open Sans" font-weight="normal" ><tspan style="fill-opacity: 0; stroke-opacity: 0;"  dy="0">-</tspan></text></g></g><g  display="none" style="display: none;"></g><g  id="v-3754" display="none"><g  id="v-3739"><path  end="source" d="M 26 0 L 0 13 L 26 26 z"></path></g><g  id="v-3740"><path  end="target" d="M 26 0 L 0 13 L 26 26 z"></path></g></g><g  id="v-3753" display="none"><g  id="v-3738" transform="translate(1933, 548) "><g  event="remove"><circle r="11"></circle><path transform="scale(.8) translate(-16, -16)" d="M24.778,21.419 19.276,15.917 24.777,10.415 21.949,7.585 16.447,13.087 10.945,7.585 8.117,10.415 13.618,15.917 8.116,21.419 10.946,24.248 16.447,18.746 21.948,24.248z"></path><title>Remove link.</title></g><g  event="link:options"><circle r="11" transform="translate(25)"></circle><path fill="white" transform="scale(.55) translate(29, -16)" d="M31.229,17.736c0.064-0.571,0.104-1.148,0.104-1.736s-0.04-1.166-0.104-1.737l-4.377-1.557c-0.218-0.716-0.504-1.401-0.851-2.05l1.993-4.192c-0.725-0.91-1.549-1.734-2.458-2.459l-4.193,1.994c-0.647-0.347-1.334-0.632-2.049-0.849l-1.558-4.378C17.165,0.708,16.588,0.667,16,0.667s-1.166,0.041-1.737,0.105L12.707,5.15c-0.716,0.217-1.401,0.502-2.05,0.849L6.464,4.005C5.554,4.73,4.73,5.554,4.005,6.464l1.994,4.192c-0.347,0.648-0.632,1.334-0.849,2.05l-4.378,1.557C0.708,14.834,0.667,15.412,0.667,16s0.041,1.165,0.105,1.736l4.378,1.558c0.217,0.715,0.502,1.401,0.849,2.049l-1.994,4.193c0.725,0.909,1.549,1.733,2.459,2.458l4.192-1.993c0.648,0.347,1.334,0.633,2.05,0.851l1.557,4.377c0.571,0.064,1.148,0.104,1.737,0.104c0.588,0,1.165-0.04,1.736-0.104l1.558-4.377c0.715-0.218,1.399-0.504,2.049-0.851l4.193,1.993c0.909-0.725,1.733-1.549,2.458-2.458l-1.993-4.193c0.347-0.647,0.633-1.334,0.851-2.049L31.229,17.736zM16,20.871c-2.69,0-4.872-2.182-4.872-4.871c0-2.69,2.182-4.872,4.872-4.872c2.689,0,4.871,2.182,4.871,4.872C20.871,18.689,18.689,20.871,16,20.871z"></path><title>Link options.</title></g></g></g></g><g   id="j_260" ><path  stroke="#707070" d="M 621 508 L 996 808" id="v-3770" stroke-width="2" stroke-dasharray="30 30" fill="none" style="opacity: 1;"></path><path  fill="black" stroke="black" d="M 0 0 0 0" transform="matrix(0.7808688282966614,0.6246950626373291,-0.6246950626373291,0.7808688282966614,620.5,508)"></path><path  fill="#707070" stroke="#707070" d="M 20 0 L 0 10 L 20 20 z" id="v-3772" transform="matrix(-0.7808688282966614,-0.6246950030326843,0.6246950030326843,-0.7808688282966614,989.2530517578125,815.8087158203125)" style="opacity: 1;"></path><path  d="M 621 508 L 996 808" id="v-3771" fill="none" style="cursor: auto; pointer-events: visiblepainted;"></path><g ><g id="v-3761"  label-idx="0" cursor="move" transform="matrix(1,0,0,1,808.5,658)" style="opacity: 1;"><rect joint-selector="rect" id="v-3765" fill="#ffffff" rx="3" ry="3" stroke="#ffffff" stroke-width="20px" pointer-events="none" width="184.0374298095703" height="34.86795425415039" transform="matrix(1,0,0,1,-92,-17.5)"></rect><text joint-selector="text" id="v-3764" font-size="24px" xml:space="preserve" y="0.8em" fill="#707070" text-anchor="middle" pointer-events="none" font-family="Open Sans" font-weight="normal" transform="matrix(1,0,0,1,0,-10.5)"><tspan  dy="0">reads data from</tspan></text></g><g id="v-3762"  label-idx="1" cursor="move" transform="matrix(1,0,0,1,808.5,689.2000122070312)" style="opacity: 1;"><rect joint-selector="rect" id="v-3767" fill="#ffffff" rx="3" ry="3" pointer-events="none" width="0" height="0" transform="matrix(1,0,0,1,0,0)"></rect><text joint-selector="text" id="v-3766" font-size="19px" xml:space="preserve" display="none" y="0.8em" fill="#707070" text-anchor="middle" pointer-events="none" font-family="Open Sans" font-weight="normal"><tspan style="fill-opacity: 0; stroke-opacity: 0;"  dy="0">-</tspan></text></g><g id="v-3763"  label-idx="2" cursor="move" transform="matrix(1,0,0,1,808.5,713.2000122070312)" style="opacity: 1;"><rect joint-selector="rect" id="v-3769" fill="#ffffff" rx="3" ry="3" pointer-events="none"  width="0" height="0" transform="matrix(1,0,0,1,0,0)" display="none"></rect><text joint-selector="text" id="v-3768" font-size="19px" xml:space="preserve" display="none" y="0.8em" fill="#707070" text-anchor="middle" pointer-events="none" font-family="Open Sans" font-weight="normal" ><tspan style="fill-opacity: 0; stroke-opacity: 0;"  dy="0">-</tspan></text></g></g><g  display="none" style="display: none;"></g><g  id="v-3774" display="none"><g  id="v-3759"><path  end="source" d="M 26 0 L 0 13 L 26 26 z"></path></g><g  id="v-3760"><path  end="target" d="M 26 0 L 0 13 L 26 26 z"></path></g></g><g  id="v-3773" display="none"><g  id="v-3758" transform="translate(652.2347523777212, 532.987801902177) "><g  event="remove"><circle r="11"></circle><path transform="scale(.8) translate(-16, -16)" d="M24.778,21.419 19.276,15.917 24.777,10.415 21.949,7.585 16.447,13.087 10.945,7.585 8.117,10.415 13.618,15.917 8.116,21.419 10.946,24.248 16.447,18.746 21.948,24.248z"></path><title>Remove link.</title></g><g  event="link:options"><circle r="11" transform="translate(25)"></circle><path fill="white" transform="scale(.55) translate(29, -16)" d="M31.229,17.736c0.064-0.571,0.104-1.148,0.104-1.736s-0.04-1.166-0.104-1.737l-4.377-1.557c-0.218-0.716-0.504-1.401-0.851-2.05l1.993-4.192c-0.725-0.91-1.549-1.734-2.458-2.459l-4.193,1.994c-0.647-0.347-1.334-0.632-2.049-0.849l-1.558-4.378C17.165,0.708,16.588,0.667,16,0.667s-1.166,0.041-1.737,0.105L12.707,5.15c-0.716,0.217-1.401,0.502-2.05,0.849L6.464,4.005C5.554,4.73,4.73,5.554,4.005,6.464l1.994,4.192c-0.347,0.648-0.632,1.334-0.849,2.05l-4.378,1.557C0.708,14.834,0.667,15.412,0.667,16s0.041,1.165,0.105,1.736l4.378,1.558c0.217,0.715,0.502,1.401,0.849,2.049l-1.994,4.193c0.725,0.909,1.549,1.733,2.459,2.458l4.192-1.993c0.648,0.347,1.334,0.633,2.05,0.851l1.557,4.377c0.571,0.064,1.148,0.104,1.737,0.104c0.588,0,1.165-0.04,1.736-0.104l1.558-4.377c0.715-0.218,1.399-0.504,2.049-0.851l4.193,1.993c0.909-0.725,1.733-1.549,2.458-2.458l-1.993-4.193c0.347-0.647,0.633-1.334,0.851-2.049L31.229,17.736zM16,20.871c-2.69,0-4.872-2.182-4.872-4.871c0-2.69,2.182-4.872,4.872-4.872c2.689,0,4.871,2.182,4.871,4.872C20.871,18.689,18.689,20.871,16,20.871z"></path><title>Link options.</title></g></g></g></g><g   id="j_261" ><path  stroke="#707070" d="M 1192 1108 L 1209 1408" id="v-3790" stroke-width="2" stroke-dasharray="30 30" fill="none" style="opacity: 1;"></path><path  fill="black" stroke="black" d="M 0 0 0 0" transform="matrix(0.05657592788338661,0.9983983039855957,-0.9983983039855957,0.05657592788338661,1191.5,1108)"></path><path  fill="#707070" stroke="#707070" d="M 20 0 L 0 10 L 20 20 z" id="v-3792" transform="matrix(-0.056575797498226166,-0.9983983039855957,0.9983983039855957,-0.056575797498226166,1198.5159912109375,1408.565673828125)" style="opacity: 1;"></path><path  d="M 1192 1108 L 1209 1408" id="v-3791" fill="none" style="cursor: auto; pointer-events: visiblepainted;"></path><g ><g id="v-3781"  label-idx="0" cursor="move" transform="matrix(1,0,0,1,1200.5,1258)" style="opacity: 1;"><rect joint-selector="rect" id="v-3785" fill="#ffffff" rx="3" ry="3" stroke="#ffffff" stroke-width="20px" pointer-events="none" width="184.0374298095703" height="34.86795425415039" transform="matrix(1,0,0,1,-92,-17.5)"></rect><text joint-selector="text" id="v-3784" font-size="24px" xml:space="preserve" y="0.8em" fill="#707070" text-anchor="middle" pointer-events="none" font-family="Open Sans" font-weight="normal" transform="matrix(1,0,0,1,0,-10.5)"><tspan  dy="0">reads data from</tspan></text></g><g id="v-3782"  label-idx="1" cursor="move" transform="matrix(1,0,0,1,1200.5,1289.199951171875)" style="opacity: 1;"><rect joint-selector="rect" id="v-3787" fill="#ffffff" rx="3" ry="3" pointer-events="none" width="0" height="0" transform="matrix(1,0,0,1,0,0)"></rect><text joint-selector="text" id="v-3786" font-size="19px" xml:space="preserve" display="none" y="0.8em" fill="#707070" text-anchor="middle" pointer-events="none" font-family="Open Sans" font-weight="normal"><tspan style="fill-opacity: 0; stroke-opacity: 0;"  dy="0">-</tspan></text></g><g id="v-3783"  label-idx="2" cursor="move" transform="matrix(1,0,0,1,1200.5,1313.199951171875)" style="opacity: 1;"><rect joint-selector="rect" id="v-3789" fill="#ffffff" rx="3" ry="3" pointer-events="none"  width="0" height="0" transform="matrix(1,0,0,1,0,0)" display="none"></rect><text joint-selector="text" id="v-3788" font-size="19px" xml:space="preserve" display="none" y="0.8em" fill="#707070" text-anchor="middle" pointer-events="none" font-family="Open Sans" font-weight="normal" ><tspan style="fill-opacity: 0; stroke-opacity: 0;"  dy="0">-</tspan></text></g></g><g  display="none" style="display: none;"></g><g  id="v-3794" display="none"><g  id="v-3779"><path  end="source" d="M 26 0 L 0 13 L 26 26 z"></path></g><g  id="v-3780"><path  end="target" d="M 26 0 L 0 13 L 26 26 z"></path></g></g><g  id="v-3793" display="none"><g  id="v-3778" transform="translate(1194.2630361485692, 1147.9359320335743) "><g  event="remove"><circle r="11"></circle><path transform="scale(.8) translate(-16, -16)" d="M24.778,21.419 19.276,15.917 24.777,10.415 21.949,7.585 16.447,13.087 10.945,7.585 8.117,10.415 13.618,15.917 8.116,21.419 10.946,24.248 16.447,18.746 21.948,24.248z"></path><title>Remove link.</title></g><g  event="link:options"><circle r="11" transform="translate(25)"></circle><path fill="white" transform="scale(.55) translate(29, -16)" d="M31.229,17.736c0.064-0.571,0.104-1.148,0.104-1.736s-0.04-1.166-0.104-1.737l-4.377-1.557c-0.218-0.716-0.504-1.401-0.851-2.05l1.993-4.192c-0.725-0.91-1.549-1.734-2.458-2.459l-4.193,1.994c-0.647-0.347-1.334-0.632-2.049-0.849l-1.558-4.378C17.165,0.708,16.588,0.667,16,0.667s-1.166,0.041-1.737,0.105L12.707,5.15c-0.716,0.217-1.401,0.502-2.05,0.849L6.464,4.005C5.554,4.73,4.73,5.554,4.005,6.464l1.994,4.192c-0.347,0.648-0.632,1.334-0.849,2.05l-4.378,1.557C0.708,14.834,0.667,15.412,0.667,16s0.041,1.165,0.105,1.736l4.378,1.558c0.217,0.715,0.502,1.401,0.849,2.049l-1.994,4.193c0.725,0.909,1.549,1.733,2.459,2.458l4.192-1.993c0.648,0.347,1.334,0.633,2.05,0.851l1.557,4.377c0.571,0.064,1.148,0.104,1.737,0.104c0.588,0,1.165-0.04,1.736-0.104l1.558-4.377c0.715-0.218,1.399-0.504,2.049-0.851l4.193,1.993c0.909-0.725,1.733-1.549,2.458-2.458l-1.993-4.193c0.347-0.647,0.633-1.334,0.851-2.049L31.229,17.736zM16,20.871c-2.69,0-4.872-2.182-4.872-4.871c0-2.69,2.182-4.872,4.872-4.872c2.689,0,4.871,2.182,4.871,4.872C20.871,18.689,18.689,20.871,16,20.871z"></path><title>Link options.</title></g></g></g></g><g   id="j_262" ><path  stroke="#707070" d="M 1217 1708 L 1217 2008" id="v-3810" stroke-width="2" stroke-dasharray="30 30" fill="none" style="opacity: 1;"></path><path  fill="black" stroke="black" d="M 0 0 0 0" transform="matrix(6.123234262925839e-17,1,-1,6.123234262925839e-17,1217,1708)"></path><path  fill="#707070" stroke="#707070" d="M 20 0 L 0 10 L 20 20 z" id="v-3812" transform="matrix(-1.8369701465288538e-16,-1,1,-1.8369701465288538e-16,1207,2008)" style="opacity: 1;"></path><path  d="M 1217 1708 L 1217 2008" id="v-3811" fill="none" style="cursor: auto; pointer-events: visiblepainted;"></path><g ><g id="v-3801"  label-idx="0" cursor="move" transform="matrix(1,0,0,1,1217,1858)" style="opacity: 1;"><rect joint-selector="rect" id="v-3805" fill="#ffffff" rx="3" ry="3" stroke="#ffffff" stroke-width="20px" pointer-events="none" width="156.0341033935547" height="34.86795425415039" transform="matrix(1,0,0,1,-78,-17.5)"></rect><text joint-selector="text" id="v-3804" font-size="24px" xml:space="preserve" y="0.8em" fill="#707070" text-anchor="middle" pointer-events="none" font-family="Open Sans" font-weight="normal" transform="matrix(1,0,0,1,0,-10.5)"><tspan  dy="0">interacts with</tspan></text></g><g id="v-3802"  label-idx="1" cursor="move" transform="matrix(1,0,0,1,1217,1889.199951171875)" style="opacity: 1;"><rect joint-selector="rect" id="v-3807" fill="#ffffff" rx="3" ry="3" pointer-events="none" width="0" height="0" transform="matrix(1,0,0,1,0,0)"></rect><text joint-selector="text" id="v-3806" font-size="19px" xml:space="preserve" display="none" y="0.8em" fill="#707070" text-anchor="middle" pointer-events="none" font-family="Open Sans" font-weight="normal"><tspan style="fill-opacity: 0; stroke-opacity: 0;"  dy="0">-</tspan></text></g><g id="v-3803"  label-idx="2" cursor="move" transform="matrix(1,0,0,1,1217,1913.199951171875)" style="opacity: 1;"><rect joint-selector="rect" id="v-3809" fill="#ffffff" rx="3" ry="3" pointer-events="none"  width="0" height="0" transform="matrix(1,0,0,1,0,0)" display="none"></rect><text joint-selector="text" id="v-3808" font-size="19px" xml:space="preserve" display="none" y="0.8em" fill="#707070" text-anchor="middle" pointer-events="none" font-family="Open Sans" font-weight="normal" ><tspan style="fill-opacity: 0; stroke-opacity: 0;"  dy="0">-</tspan></text></g></g><g  display="none" style="display: none;"></g><g  id="v-3814" display="none"><g  id="v-3799"><path  end="source" d="M 26 0 L 0 13 L 26 26 z"></path></g><g  id="v-3800"><path  end="target" d="M 26 0 L 0 13 L 26 26 z"></path></g></g><g  id="v-3813" display="none"><g  id="v-3798" transform="translate(1217, 1748) "><g  event="remove"><circle r="11"></circle><path transform="scale(.8) translate(-16, -16)" d="M24.778,21.419 19.276,15.917 24.777,10.415 21.949,7.585 16.447,13.087 10.945,7.585 8.117,10.415 13.618,15.917 8.116,21.419 10.946,24.248 16.447,18.746 21.948,24.248z"></path><title>Remove link.</title></g><g  event="link:options"><circle r="11" transform="translate(25)"></circle><path fill="white" transform="scale(.55) translate(29, -16)" d="M31.229,17.736c0.064-0.571,0.104-1.148,0.104-1.736s-0.04-1.166-0.104-1.737l-4.377-1.557c-0.218-0.716-0.504-1.401-0.851-2.05l1.993-4.192c-0.725-0.91-1.549-1.734-2.458-2.459l-4.193,1.994c-0.647-0.347-1.334-0.632-2.049-0.849l-1.558-4.378C17.165,0.708,16.588,0.667,16,0.667s-1.166,0.041-1.737,0.105L12.707,5.15c-0.716,0.217-1.401,0.502-2.05,0.849L6.464,4.005C5.554,4.73,4.73,5.554,4.005,6.464l1.994,4.192c-0.347,0.648-0.632,1.334-0.849,2.05l-4.378,1.557C0.708,14.834,0.667,15.412,0.667,16s0.041,1.165,0.105,1.736l4.378,1.558c0.217,0.715,0.502,1.401,0.849,2.049l-1.994,4.193c0.725,0.909,1.549,1.733,2.459,2.458l4.192-1.993c0.648,0.347,1.334,0.633,2.05,0.851l1.557,4.377c0.571,0.064,1.148,0.104,1.737,0.104c0.588,0,1.165-0.04,1.736-0.104l1.558-4.377c0.715-0.218,1.399-0.504,2.049-0.851l4.193,1.993c0.909-0.725,1.733-1.549,2.458-2.458l-1.993-4.193c0.347-0.647,0.633-1.334,0.851-2.049L31.229,17.736zM16,20.871c-2.69,0-4.872-2.182-4.872-4.871c0-2.69,2.182-4.872,4.872-4.872c2.689,0,4.871,2.182,4.871,4.872C20.871,18.689,18.689,20.871,16,20.871z"></path><title>Link options.</title></g></g></g></g></g><g ></g><g ></g><g ></g></g></svg>