<svg xmlns="http://www.w3.org/2000/svg" xmlns:xlink="http://www.w3.org/1999/xlink" version="1.1" viewBox="0 0 3066 2016" style="background: #ffffff"><defs joint-selector="defs"></defs><g  joint-selector="layers" transform="matrix(1,0,0,1,0,0)"><g ></g><g ><g   id="j_152"  transform="translate(20,1971)"><g id="v-2172"><text  id="v-2173" font-size="22px" xml:space="preserve" y="0.8em" font-weight="normal" text-anchor="start" fill="#aaaaaa" pointer-events="none" font-family="Open Sans" display="block"><tspan  dy="0">Thursday, 23 February 2023 at 16:07 Greenwich Mean Time</tspan></text></g></g><g   id="j_151"  transform="translate(20,1927)"><g id="v-2170"><text  id="v-2171" font-size="36px" xml:space="preserve" y="0.8em" font-weight="normal" text-anchor="start" fill="#000000" pointer-events="none" font-family="Open Sans" display="block"><tspan  dy="0">[System Context] Modernising Lasting Power of Attorney</tspan></text></g></g><g   id="j_143"  transform="translate(1276,888)" style=""><g id="v-2031"><rect  id="v-2032" width="490" height="413" rx="0" ry="0" fill="#ffffff" stroke="#444444" stroke-width="1" stroke-dasharray="20,20" pointer-events="none"></rect><text  id="v-2033" font-size="24px" xml:space="preserve" y="374" font-weight="normal" fill="#444444" text-anchor="start" pointer-events="visible" font-family="Open Sans" transform="matrix(1,0,0,1,15,0)"><tspan  dy="0">Modernising Lasting Power of Attorney</tspan></text><text  id="v-2034" font-size="19px" xml:space="preserve" y="398" font-weight="normal" fill="#444444" text-anchor="start" pointer-events="visible" font-family="Open Sans" transform="matrix(1,0,0,1,15,0)"><tspan  dy="0">[Enterprise]</tspan></text><image  id="v-2035" pointer-events="visible"></image></g></g><g   id="j_139"  transform="translate(208,258)" style=""><g  id="v-1988" style="opacity: 1;"><rect  id="v-1989" rx="20" ry="20" stroke="#8a8a8a" stroke-width="2" pointer-events="visiblePainted" fill="#999999" width="450" height="300" style="fill: rgb(153, 153, 153); stroke: rgb(138, 138, 138);"></rect><text  id="v-1990" font-size="34" xml:space="preserve" y="0.8em" font-weight="bold" text-anchor="middle" pointer-events="visible" font-family="Open Sans" fill="#ffffff" transform="matrix(1,0,0,1,225,90)" style="fill: rgb(255, 255, 255);"><tspan  dy="0">OPG Services</tspan></text><text  id="v-1991" font-size="19" xml:space="preserve" y="0.8em" text-anchor="middle" font-family="Open Sans" fill="#ffffff" transform="matrix(1,0,0,1,225,132.5)" style="fill: rgb(255, 255, 255);"><tspan  dy="0">[Software System]</tspan></text><text  id="v-1992" font-size="24" xml:space="preserve" y="0.8em" text-anchor="middle" font-family="Open Sans" fill="#ffffff" transform="matrix(1,0,0,1,225,180)" style="fill: rgb(255, 255, 255);"><tspan  dy="0">Court Ordered Severances</tspan></text><text  id="v-1993" font-weight="normal" text-anchor="middle" font-family="Open Sans" fill="#ffffff" font-size="34" transform="matrix(1,0,0,1,225,251)" xml:space="preserve" display="none" y="0.8em" style="fill: rgb(255, 255, 255);"><tspan style="fill-opacity: 0; stroke-opacity: 0;"  dy="0">-</tspan></text><image  id="v-1994"></image></g></g><g   id="j_140"  transform="translate(958,208)" style=""><g  id="v-1998" style="opacity: 1;"><rect  x="0" y="160" width="400" height="240" rx="70" id="v-2000" stroke="#073b6f" stroke-width="2" pointer-events="visiblePainted" fill="#08427b" style="fill: rgb(8, 66, 123); stroke: rgb(7, 59, 111);"></rect><circle  cx="200" cy="88.88888888888889" r="88.88888888888889" id="v-1999" stroke="#073b6f" stroke-width="2" pointer-events="visiblePainted" fill="#08427b" style="fill: rgb(8, 66, 123); stroke: rgb(7, 59, 111);"></circle><line  x1="80" y1="266.6666666666667" x2="80" y2="400" id="v-2006" stroke="#073b6f" stroke-width="2" style="stroke: rgb(7, 59, 111);"></line><line  x1="320" y1="266.6666666666667" x2="320" y2="400" id="v-2007" stroke="#073b6f" stroke-width="2" style="stroke: rgb(7, 59, 111);"></line><text  id="v-2001" font-size="34px" xml:space="preserve" y="0.8em" font-weight="bold" text-anchor="middle" pointer-events="visible" font-family="Open Sans" fill="#ffffff" transform="matrix(1,0,0,1,200,205)" style="fill: rgb(255, 255, 255);"><tspan  dy="0">Actor</tspan></text><text  id="v-2002" font-size="19px" xml:space="preserve" y="0.8em" text-anchor="middle" font-family="Open Sans" fill="#ffffff" transform="matrix(1,0,0,1,200,247.5)" style="fill: rgb(255, 255, 255);"><tspan  dy="0">[Person]</tspan></text><text  id="v-2003" font-size="24px" xml:space="preserve" y="0.8em" text-anchor="middle" font-family="Open Sans" fill="#ffffff" transform="matrix(1,0,0,1,200,295)" style="fill: rgb(255, 255, 255);"><tspan  dy="0">Actor interacting with a Lasting</tspan><tspan dy="1.2em" x="0" >Power of Attorney.</tspan></text><text  id="v-2004" font-weight="normal" text-anchor="middle" font-family="Open Sans" fill="#ffffff" font-size="34" transform="matrix(1,0,0,1,200,351)" xml:space="preserve" display="none" y="0.8em" style="fill: rgb(255, 255, 255);"><tspan style="fill-opacity: 0; stroke-opacity: 0;"  dy="0">-</tspan></text><image  id="v-2005"></image></g></g><g   id="j_141"  transform="translate(1658,258)" style=""><g  id="v-2011" style="opacity: 1;"><rect  id="v-2012" rx="20" ry="20" stroke="#8a8a8a" stroke-width="2" pointer-events="visiblePainted" fill="#999999" width="450" height="300" style="fill: rgb(153, 153, 153); stroke: rgb(138, 138, 138);"></rect><text  id="v-2013" font-size="34" xml:space="preserve" y="0.8em" font-weight="bold" text-anchor="middle" pointer-events="visible" font-family="Open Sans" fill="#ffffff" transform="matrix(1,0,0,1,225,90)" style="fill: rgb(255, 255, 255);"><tspan  dy="0">Scanning Software</tspan></text><text  id="v-2014" font-size="19" xml:space="preserve" y="0.8em" text-anchor="middle" font-family="Open Sans" fill="#ffffff" transform="matrix(1,0,0,1,225,132.5)" style="fill: rgb(255, 255, 255);"><tspan  dy="0">[Software System]</tspan></text><text  id="v-2015" font-size="24" xml:space="preserve" y="0.8em" text-anchor="middle" font-family="Open Sans" fill="#ffffff" transform="matrix(1,0,0,1,225,180)" style="fill: rgb(255, 255, 255);"><tspan  dy="0">TBC</tspan></text><text  id="v-2016" font-weight="normal" text-anchor="middle" font-family="Open Sans" fill="#ffffff" font-size="34" transform="matrix(1,0,0,1,225,251)" xml:space="preserve" display="none" y="0.8em" style="fill: rgb(255, 255, 255);"><tspan style="fill-opacity: 0; stroke-opacity: 0;"  dy="0">-</tspan></text><image  id="v-2017"></image></g></g><g   id="j_142"  transform="translate(1296,908)" style=""><g  id="v-2024" style="opacity: 1;"><rect  id="v-2025" rx="20" ry="20" stroke="#0f5eaa" stroke-width="2" pointer-events="visiblePainted" fill="#1168bd" width="450" height="300" style="fill: rgb(17, 104, 189); stroke: rgb(15, 94, 170);"></rect><text  id="v-2026" font-size="34" xml:space="preserve" y="0.8em" font-weight="bold" text-anchor="middle" pointer-events="visible" font-family="Open Sans" fill="#ffffff" transform="matrix(1,0,0,1,225,53.70000076293945)" style="fill: rgb(255, 255, 255);"><tspan  dy="0">Modernising Lasting</tspan><tspan dy="1.2em" x="0" >Power of Attorney</tspan></text><text  id="v-2027" font-size="19" xml:space="preserve" y="0.8em" text-anchor="middle" font-family="Open Sans" fill="#ffffff" transform="matrix(1,0,0,1,225,138.6999969482422)" style="fill: rgb(255, 255, 255);"><tspan  dy="0">[Software System]</tspan></text><text  id="v-2028" font-size="24" xml:space="preserve" y="0.8em" text-anchor="middle" font-family="Open Sans" fill="#ffffff" transform="matrix(1,0,0,1,225,186.1999969482422)" style="fill: rgb(255, 255, 255);"><tspan  dy="0">Digital Lasting Power of Attorney</tspan><tspan dy="1.2em" x="0" >infrastructure</tspan></text><text  id="v-2029" font-weight="normal" text-anchor="middle" font-family="Open Sans" fill="#ffffff" font-size="34" transform="matrix(1,0,0,1,225,251)" xml:space="preserve" y="0.8em" display="none" style="fill: rgb(255, 255, 255);"><tspan  dy="0">+</tspan></text><image  id="v-2030"></image></g></g><g   id="j_144"  transform="translate(2408,258)" style=""><g  id="v-2039" style="opacity: 1;"><rect  id="v-2040" rx="10" ry="10" stroke="#8a8a8a" stroke-width="2" pointer-events="visiblePainted" fill="#8a8a8a" width="450" height="300" style="fill: rgb(138, 138, 138); stroke: rgb(138, 138, 138);"></rect><rect  id="v-2041" rx="10" ry="10" stroke="#8a8a8a" stroke-width="0" pointer-events="visiblePainted" fill="#999999" width="430" height="250" x="10" y="40" style="fill: rgb(153, 153, 153);"></rect><ellipse  id="v-2048" fill="#999999" cx="20" cy="20" rx="10" ry="10" style="fill: rgb(153, 153, 153);"></ellipse><ellipse  id="v-2049" fill="#999999" cx="50" cy="20" rx="10" ry="10" style="fill: rgb(153, 153, 153);"></ellipse><ellipse  id="v-2050" fill="#999999" cx="80" cy="20" rx="10" ry="10" style="fill: rgb(153, 153, 153);"></ellipse><rect  id="v-2042" rx="10" ry="10" stroke="#444444" stroke-width="0" pointer-events="visiblePainted" fill="#999999" width="340" height="20" x="100" y="10" style="fill: rgb(153, 153, 153);"></rect><text  id="v-2043" font-size="34" xml:space="preserve" y="0.8em" font-weight="bold" text-anchor="middle" pointer-events="visible" font-family="Open Sans" fill="#ffffff" transform="matrix(1,0,0,1,225,110)" style="fill: rgb(255, 255, 255);"><tspan  dy="0">Use an LPA</tspan></text><text  id="v-2044" font-size="19" xml:space="preserve" y="0.8em" text-anchor="middle" font-family="Open Sans" fill="#ffffff" transform="matrix(1,0,0,1,225,152.5)" style="fill: rgb(255, 255, 255);"><tspan  dy="0">[Software System]</tspan></text><text  id="v-2045" font-size="24" xml:space="preserve" y="0.8em" text-anchor="middle" font-family="Open Sans" fill="#ffffff" transform="matrix(1,0,0,1,225,200)" style="fill: rgb(255, 255, 255);"><tspan  dy="0">Use/View an LPA Service.</tspan></text><text  id="v-2046" font-weight="normal" text-anchor="middle" font-family="Open Sans" fill="#ffffff" font-size="34" transform="matrix(1,0,0,1,225,251)" xml:space="preserve" display="none" y="0.8em" style="fill: rgb(255, 255, 255);"><tspan style="fill-opacity: 0; stroke-opacity: 0;"  dy="0">-</tspan></text><image  id="v-2047"></image></g></g><g   id="j_145"  transform="translate(1296,1508)" style=""><g  id="v-2057" style="opacity: 1;"><rect  id="v-2058" rx="20" ry="20" stroke="#8a8a8a" stroke-width="2" pointer-events="visiblePainted" fill="#999999" width="450" height="300" style="fill: rgb(153, 153, 153); stroke: rgb(138, 138, 138);"></rect><text  id="v-2059" font-size="34" xml:space="preserve" y="0.8em" font-weight="bold" text-anchor="middle" pointer-events="visible" font-family="Open Sans" fill="#ffffff" transform="matrix(1,0,0,1,225,75)" style="fill: rgb(255, 255, 255);"><tspan  dy="0">External Services</tspan></text><text  id="v-2060" font-size="19" xml:space="preserve" y="0.8em" text-anchor="middle" font-family="Open Sans" fill="#ffffff" transform="matrix(1,0,0,1,225,117.5)" style="fill: rgb(255, 255, 255);"><tspan  dy="0">[Software System]</tspan></text><text  id="v-2061" font-size="24" xml:space="preserve" y="0.8em" text-anchor="middle" font-family="Open Sans" fill="#ffffff" transform="matrix(1,0,0,1,225,165)" style="fill: rgb(255, 255, 255);"><tspan  dy="0">GOV.UK Notify, Pay, One Login, Yoti,</tspan><tspan dy="1.2em" x="0" >Ordanance Survey</tspan></text><text  id="v-2062" font-weight="normal" text-anchor="middle" font-family="Open Sans" fill="#ffffff" font-size="34" transform="matrix(1,0,0,1,225,251)" xml:space="preserve" display="none" y="0.8em" style="fill: rgb(255, 255, 255);"><tspan style="fill-opacity: 0; stroke-opacity: 0;"  dy="0">-</tspan></text><image  id="v-2063"></image></g></g><g   id="j_146" ><path  stroke="#707070" d="M 658 542 L 1296 924" id="v-2079" stroke-width="2" stroke-dasharray="30 30" fill="none" style="opacity: 1;"></path><path  fill="black" stroke="black" d="M 0 0 0 0" transform="matrix(0.8584649562835693,0.5128722786903381,-0.5128722786903381,0.8584649562835693,658,542.4199829101562)"></path><path  fill="#707070" stroke="#707070" d="M 20 0 L 0 10 L 20 20 z" id="v-2081" transform="matrix(-0.8584648966789246,-0.5128723382949829,0.5128723382949829,-0.8584648966789246,1290.871337890625,932.1646728515625)" style="opacity: 1;"></path><path  d="M 658 542 L 1296 924" id="v-2080" fill="none" style="cursor: auto; pointer-events: visiblepainted;"></path><g ><g id="v-2070"  label-idx="0" cursor="move" transform="matrix(1,0,0,1,977,733)" style="opacity: 1;"><rect joint-selector="rect" id="v-2074" fill="#ffffff" rx="3" ry="3" stroke="#ffffff" stroke-width="20px" pointer-events="none" width="155.5191650390625" height="34.412086486816406" transform="matrix(1,0,0,1,-77.80000305175781,-17.200000762939453)"></rect><text joint-selector="text" id="v-2073" font-size="24px" xml:space="preserve" y="0.8em" fill="#707070" text-anchor="middle" pointer-events="none" font-family="Open Sans" font-weight="normal" transform="matrix(1,0,0,1,0,-10.600000381469727)"><tspan  dy="0">sends data to</tspan></text></g><g id="v-2071"  label-idx="1" cursor="move" transform="matrix(1,0,0,1,977,764.2000122070312)" style="opacity: 1;"><rect joint-selector="rect" id="v-2076" fill="#ffffff" rx="3" ry="3" pointer-events="none" width="0" height="0" transform="matrix(1,0,0,1,0,0)"></rect><text joint-selector="text" id="v-2075" font-size="19px" xml:space="preserve" display="none" y="0.8em" fill="#707070" text-anchor="middle" pointer-events="none" font-family="Open Sans" font-weight="normal"><tspan style="fill-opacity: 0; stroke-opacity: 0;"  dy="0">-</tspan></text></g><g id="v-2072"  label-idx="2" cursor="move" transform="matrix(1,0,0,1,977,788.2000122070312)" style="opacity: 1;"><rect joint-selector="rect" id="v-2078" fill="#ffffff" rx="3" ry="3" pointer-events="none"  width="0" height="0" transform="matrix(1,0,0,1,0,0)" display="none"></rect><text joint-selector="text" id="v-2077" font-size="19px" xml:space="preserve" display="none" y="0.8em" fill="#707070" text-anchor="middle" pointer-events="none" font-family="Open Sans" font-weight="normal" ><tspan style="fill-opacity: 0; stroke-opacity: 0;"  dy="0">-</tspan></text></g></g><g  display="none" style="display: none;"></g><g  id="v-2083" display="none"><g  id="v-2068"><path  end="source" d="M 26 0 L 0 13 L 26 26 z"></path></g><g  id="v-2069"><path  end="target" d="M 26 0 L 0 13 L 26 26 z"></path></g></g><g  id="v-2082" display="none"><g  id="v-2067" transform="translate(692.3186875087301, 562.5481796682366) "><g  event="remove"><circle r="11"></circle><path transform="scale(.8) translate(-16, -16)" d="M24.778,21.419 19.276,15.917 24.777,10.415 21.949,7.585 16.447,13.087 10.945,7.585 8.117,10.415 13.618,15.917 8.116,21.419 10.946,24.248 16.447,18.746 21.948,24.248z"></path><title>Remove link.</title></g><g  event="link:options"><circle r="11" transform="translate(25)"></circle><path fill="white" transform="scale(.55) translate(29, -16)" d="M31.229,17.736c0.064-0.571,0.104-1.148,0.104-1.736s-0.04-1.166-0.104-1.737l-4.377-1.557c-0.218-0.716-0.504-1.401-0.851-2.05l1.993-4.192c-0.725-0.91-1.549-1.734-2.458-2.459l-4.193,1.994c-0.647-0.347-1.334-0.632-2.049-0.849l-1.558-4.378C17.165,0.708,16.588,0.667,16,0.667s-1.166,0.041-1.737,0.105L12.707,5.15c-0.716,0.217-1.401,0.502-2.05,0.849L6.464,4.005C5.554,4.73,4.73,5.554,4.005,6.464l1.994,4.192c-0.347,0.648-0.632,1.334-0.849,2.05l-4.378,1.557C0.708,14.834,0.667,15.412,0.667,16s0.041,1.165,0.105,1.736l4.378,1.558c0.217,0.715,0.502,1.401,0.849,2.049l-1.994,4.193c0.725,0.909,1.549,1.733,2.459,2.458l4.192-1.993c0.648,0.347,1.334,0.633,2.05,0.851l1.557,4.377c0.571,0.064,1.148,0.104,1.737,0.104c0.588,0,1.165-0.04,1.736-0.104l1.558-4.377c0.715-0.218,1.399-0.504,2.049-0.851l4.193,1.993c0.909-0.725,1.733-1.549,2.458-2.458l-1.993-4.193c0.347-0.647,0.633-1.334,0.851-2.049L31.229,17.736zM16,20.871c-2.69,0-4.872-2.182-4.872-4.871c0-2.69,2.182-4.872,4.872-4.872c2.689,0,4.871,2.182,4.871,4.872C20.871,18.689,18.689,20.871,16,20.871z"></path><title>Link options.</title></g></g></g></g><g   id="j_147" ><path  stroke="#707070" d="M 1521 1208 L 1521 1508" id="v-2099" stroke-width="2" stroke-dasharray="30 30" fill="none" style="opacity: 1;"></path><path  fill="black" stroke="black" d="M 0 0 0 0" transform="matrix(6.123234262925839e-17,1,-1,6.123234262925839e-17,1521,1208)"></path><path  fill="#707070" stroke="#707070" d="M 20 0 L 0 10 L 20 20 z" id="v-2101" transform="matrix(-1.8369701465288538e-16,-1,1,-1.8369701465288538e-16,1511,1508)" style="opacity: 1;"></path><path  d="M 1521 1208 L 1521 1508" id="v-2100" fill="none" style="cursor: auto; pointer-events: visiblepainted;"></path><g ><g id="v-2090"  label-idx="0" cursor="move" transform="matrix(1,0,0,1,1521,1358)" style="opacity: 1;"><rect joint-selector="rect" id="v-2094" fill="#ffffff" rx="3" ry="3" stroke="#ffffff" stroke-width="20px" pointer-events="none" width="156.02752685546875" height="34.412086486816406" transform="matrix(1,0,0,1,-78,-17.200000762939453)"></rect><text joint-selector="text" id="v-2093" font-size="24px" xml:space="preserve" y="0.8em" fill="#707070" text-anchor="middle" pointer-events="none" font-family="Open Sans" font-weight="normal" transform="matrix(1,0,0,1,0,-10.600000381469727)"><tspan  dy="0">interacts with</tspan></text></g><g id="v-2091"  label-idx="1" cursor="move" transform="matrix(1,0,0,1,1521,1389.199951171875)" style="opacity: 1;"><rect joint-selector="rect" id="v-2096" fill="#ffffff" rx="3" ry="3" pointer-events="none" width="0" height="0" transform="matrix(1,0,0,1,0,0)"></rect><text joint-selector="text" id="v-2095" font-size="19px" xml:space="preserve" display="none" y="0.8em" fill="#707070" text-anchor="middle" pointer-events="none" font-family="Open Sans" font-weight="normal"><tspan style="fill-opacity: 0; stroke-opacity: 0;"  dy="0">-</tspan></text></g><g id="v-2092"  label-idx="2" cursor="move" transform="matrix(1,0,0,1,1521,1413.199951171875)" style="opacity: 1;"><rect joint-selector="rect" id="v-2098" fill="#ffffff" rx="3" ry="3" pointer-events="none"  width="0" height="0" transform="matrix(1,0,0,1,0,0)" display="none"></rect><text joint-selector="text" id="v-2097" font-size="19px" xml:space="preserve" display="none" y="0.8em" fill="#707070" text-anchor="middle" pointer-events="none" font-family="Open Sans" font-weight="normal" ><tspan style="fill-opacity: 0; stroke-opacity: 0;"  dy="0">-</tspan></text></g></g><g  display="none" style="display: none;"></g><g  id="v-2103" display="none"><g  id="v-2088"><path  end="source" d="M 26 0 L 0 13 L 26 26 z"></path></g><g  id="v-2089"><path  end="target" d="M 26 0 L 0 13 L 26 26 z"></path></g></g><g  id="v-2102" display="none"><g  id="v-2087" transform="translate(1521, 1248) "><g  event="remove"><circle r="11"></circle><path transform="scale(.8) translate(-16, -16)" d="M24.778,21.419 19.276,15.917 24.777,10.415 21.949,7.585 16.447,13.087 10.945,7.585 8.117,10.415 13.618,15.917 8.116,21.419 10.946,24.248 16.447,18.746 21.948,24.248z"></path><title>Remove link.</title></g><g  event="link:options"><circle r="11" transform="translate(25)"></circle><path fill="white" transform="scale(.55) translate(29, -16)" d="M31.229,17.736c0.064-0.571,0.104-1.148,0.104-1.736s-0.04-1.166-0.104-1.737l-4.377-1.557c-0.218-0.716-0.504-1.401-0.851-2.05l1.993-4.192c-0.725-0.91-1.549-1.734-2.458-2.459l-4.193,1.994c-0.647-0.347-1.334-0.632-2.049-0.849l-1.558-4.378C17.165,0.708,16.588,0.667,16,0.667s-1.166,0.041-1.737,0.105L12.707,5.15c-0.716,0.217-1.401,0.502-2.05,0.849L6.464,4.005C5.554,4.73,4.73,5.554,4.005,6.464l1.994,4.192c-0.347,0.648-0.632,1.334-0.849,2.05l-4.378,1.557C0.708,14.834,0.667,15.412,0.667,16s0.041,1.165,0.105,1.736l4.378,1.558c0.217,0.715,0.502,1.401,0.849,2.049l-1.994,4.193c0.725,0.909,1.549,1.733,2.459,2.458l4.192-1.993c0.648,0.347,1.334,0.633,2.05,0.851l1.557,4.377c0.571,0.064,1.148,0.104,1.737,0.104c0.588,0,1.165-0.04,1.736-0.104l1.558-4.377c0.715-0.218,1.399-0.504,2.049-0.851l4.193,1.993c0.909-0.725,1.733-1.549,2.458-2.458l-1.993-4.193c0.347-0.647,0.633-1.334,0.851-2.049L31.229,17.736zM16,20.871c-2.69,0-4.872-2.182-4.872-4.871c0-2.69,2.182-4.872,4.872-4.872c2.689,0,4.871,2.182,4.871,4.872C20.871,18.689,18.689,20.871,16,20.871z"></path><title>Link options.</title></g></g></g></g><g   id="j_148" ><path  stroke="#707070" d="M 1270 608 L 1437 908" id="v-2119" stroke-width="2" stroke-dasharray="30 30" fill="none" style="opacity: 1;"></path><path  fill="black" stroke="black" d="M 0 0 0 0" transform="matrix(0.4875839352607727,0.8730761408805847,-0.8730761408805847,0.4875839352607727,1269.68994140625,608)"></path><path  fill="#707070" stroke="#707070" d="M 20 0 L 0 10 L 20 20 z" id="v-2121" transform="matrix(-0.48758387565612793,-0.8730761408805847,0.8730761408805847,-0.48758387565612793,1428.4991455078125,912.8758544921875)" style="opacity: 1;"></path><path  d="M 1270 608 L 1437 908" id="v-2120" fill="none" style="cursor: auto; pointer-events: visiblepainted;"></path><g ><g id="v-2110"  label-idx="0" cursor="move" transform="matrix(1,0,0,1,1353.5,758)" style="opacity: 1;"><rect joint-selector="rect" id="v-2114" fill="#ffffff" rx="3" ry="3" stroke="#ffffff" stroke-width="20px" pointer-events="none" width="156.02752685546875" height="34.412086486816406" transform="matrix(1,0,0,1,-78,-17.200000762939453)"></rect><text joint-selector="text" id="v-2113" font-size="24px" xml:space="preserve" y="0.8em" fill="#707070" text-anchor="middle" pointer-events="none" font-family="Open Sans" font-weight="normal" transform="matrix(1,0,0,1,0,-10.600000381469727)"><tspan  dy="0">interacts with</tspan></text></g><g id="v-2111"  label-idx="1" cursor="move" transform="matrix(1,0,0,1,1353.5,789.2000122070312)" style="opacity: 1;"><rect joint-selector="rect" id="v-2116" fill="#ffffff" rx="3" ry="3" pointer-events="none" width="0" height="0" transform="matrix(1,0,0,1,0,0)"></rect><text joint-selector="text" id="v-2115" font-size="19px" xml:space="preserve" display="none" y="0.8em" fill="#707070" text-anchor="middle" pointer-events="none" font-family="Open Sans" font-weight="normal"><tspan style="fill-opacity: 0; stroke-opacity: 0;"  dy="0">-</tspan></text></g><g id="v-2112"  label-idx="2" cursor="move" transform="matrix(1,0,0,1,1353.5,813.2000122070312)" style="opacity: 1;"><rect joint-selector="rect" id="v-2118" fill="#ffffff" rx="3" ry="3" pointer-events="none"  width="0" height="0" transform="matrix(1,0,0,1,0,0)" display="none"></rect><text joint-selector="text" id="v-2117" font-size="19px" xml:space="preserve" display="none" y="0.8em" fill="#707070" text-anchor="middle" pointer-events="none" font-family="Open Sans" font-weight="normal" ><tspan style="fill-opacity: 0; stroke-opacity: 0;"  dy="0">-</tspan></text></g></g><g  display="none" style="display: none;"></g><g  id="v-2123" display="none"><g  id="v-2108"><path  end="source" d="M 26 0 L 0 13 L 26 26 z"></path></g><g  id="v-2109"><path  end="target" d="M 26 0 L 0 13 L 26 26 z"></path></g></g><g  id="v-2122" display="none"><g  id="v-2107" transform="translate(1289.4553846040722, 642.9497927019263) "><g  event="remove"><circle r="11"></circle><path transform="scale(.8) translate(-16, -16)" d="M24.778,21.419 19.276,15.917 24.777,10.415 21.949,7.585 16.447,13.087 10.945,7.585 8.117,10.415 13.618,15.917 8.116,21.419 10.946,24.248 16.447,18.746 21.948,24.248z"></path><title>Remove link.</title></g><g  event="link:options"><circle r="11" transform="translate(25)"></circle><path fill="white" transform="scale(.55) translate(29, -16)" d="M31.229,17.736c0.064-0.571,0.104-1.148,0.104-1.736s-0.04-1.166-0.104-1.737l-4.377-1.557c-0.218-0.716-0.504-1.401-0.851-2.05l1.993-4.192c-0.725-0.91-1.549-1.734-2.458-2.459l-4.193,1.994c-0.647-0.347-1.334-0.632-2.049-0.849l-1.558-4.378C17.165,0.708,16.588,0.667,16,0.667s-1.166,0.041-1.737,0.105L12.707,5.15c-0.716,0.217-1.401,0.502-2.05,0.849L6.464,4.005C5.554,4.73,4.73,5.554,4.005,6.464l1.994,4.192c-0.347,0.648-0.632,1.334-0.849,2.05l-4.378,1.557C0.708,14.834,0.667,15.412,0.667,16s0.041,1.165,0.105,1.736l4.378,1.558c0.217,0.715,0.502,1.401,0.849,2.049l-1.994,4.193c0.725,0.909,1.549,1.733,2.459,2.458l4.192-1.993c0.648,0.347,1.334,0.633,2.05,0.851l1.557,4.377c0.571,0.064,1.148,0.104,1.737,0.104c0.588,0,1.165-0.04,1.736-0.104l1.558-4.377c0.715-0.218,1.399-0.504,2.049-0.851l4.193,1.993c0.909-0.725,1.733-1.549,2.458-2.458l-1.993-4.193c0.347-0.647,0.633-1.334,0.851-2.049L31.229,17.736zM16,20.871c-2.69,0-4.872-2.182-4.872-4.871c0-2.69,2.182-4.872,4.872-4.872c2.689,0,4.871,2.182,4.871,4.872C20.871,18.689,18.689,20.871,16,20.871z"></path><title>Link options.</title></g></g></g></g><g   id="j_149" ><path  stroke="#707070" d="M 2408 540 L 1746 926" id="v-2139" stroke-width="2" stroke-dasharray="30 30" fill="none" style="opacity: 1;"></path><path  fill="black" stroke="black" d="M 0 0 0 0" transform="matrix(-0.863328218460083,0.5046428442001343,-0.5046428442001343,-0.863328218460083,2408,539.52001953125)"></path><path  fill="#707070" stroke="#707070" d="M 20 0 L 0 10 L 20 20 z" id="v-2141" transform="matrix(0.863328218460083,-0.5046428442001343,0.5046428442001343,0.863328218460083,1740.95361328125,917.8467407226562)" style="opacity: 1;"></path><path  d="M 2408 540 L 1746 926" id="v-2140" fill="none" style="cursor: auto; pointer-events: visiblepainted;"></path><g ><g id="v-2130"  label-idx="0" cursor="move" transform="matrix(1,0,0,1,2077,733)" style="opacity: 1;"><rect joint-selector="rect" id="v-2134" fill="#ffffff" rx="3" ry="3" stroke="#ffffff" stroke-width="20px" pointer-events="none" width="172.5688018798828" height="34.412086486816406" transform="matrix(1,0,0,1,-86.30000305175781,-17.200000762939453)"></rect><text joint-selector="text" id="v-2133" font-size="24px" xml:space="preserve" y="0.8em" fill="#707070" text-anchor="middle" pointer-events="none" font-family="Open Sans" font-weight="normal" transform="matrix(1,0,0,1,0,-10.600000381469727)"><tspan  dy="0">read data from</tspan></text></g><g id="v-2131"  label-idx="1" cursor="move" transform="matrix(1,0,0,1,2077,764.2000122070312)" style="opacity: 1;"><rect joint-selector="rect" id="v-2136" fill="#ffffff" rx="3" ry="3" pointer-events="none" width="0" height="0" transform="matrix(1,0,0,1,0,0)"></rect><text joint-selector="text" id="v-2135" font-size="19px" xml:space="preserve" display="none" y="0.8em" fill="#707070" text-anchor="middle" pointer-events="none" font-family="Open Sans" font-weight="normal"><tspan style="fill-opacity: 0; stroke-opacity: 0;"  dy="0">-</tspan></text></g><g id="v-2132"  label-idx="2" cursor="move" transform="matrix(1,0,0,1,2077,788.2000122070312)" style="opacity: 1;"><rect joint-selector="rect" id="v-2138" fill="#ffffff" rx="3" ry="3" pointer-events="none"  width="0" height="0" transform="matrix(1,0,0,1,0,0)" display="none"></rect><text joint-selector="text" id="v-2137" font-size="19px" xml:space="preserve" display="none" y="0.8em" fill="#707070" text-anchor="middle" pointer-events="none" font-family="Open Sans" font-weight="normal" ><tspan style="fill-opacity: 0; stroke-opacity: 0;"  dy="0">-</tspan></text></g></g><g  display="none" style="display: none;"></g><g  id="v-2143" display="none"><g  id="v-2128"><path  end="source" d="M 26 0 L 0 13 L 26 26 z"></path></g><g  id="v-2129"><path  end="target" d="M 26 0 L 0 13 L 26 26 z"></path></g></g><g  id="v-2142" display="none"><g  id="v-2127" transform="translate(2373.4450582050536, 560.1483497475067) "><g  event="remove"><circle r="11"></circle><path transform="scale(.8) translate(-16, -16)" d="M24.778,21.419 19.276,15.917 24.777,10.415 21.949,7.585 16.447,13.087 10.945,7.585 8.117,10.415 13.618,15.917 8.116,21.419 10.946,24.248 16.447,18.746 21.948,24.248z"></path><title>Remove link.</title></g><g  event="link:options"><circle r="11" transform="translate(25)"></circle><path fill="white" transform="scale(.55) translate(29, -16)" d="M31.229,17.736c0.064-0.571,0.104-1.148,0.104-1.736s-0.04-1.166-0.104-1.737l-4.377-1.557c-0.218-0.716-0.504-1.401-0.851-2.05l1.993-4.192c-0.725-0.91-1.549-1.734-2.458-2.459l-4.193,1.994c-0.647-0.347-1.334-0.632-2.049-0.849l-1.558-4.378C17.165,0.708,16.588,0.667,16,0.667s-1.166,0.041-1.737,0.105L12.707,5.15c-0.716,0.217-1.401,0.502-2.05,0.849L6.464,4.005C5.554,4.73,4.73,5.554,4.005,6.464l1.994,4.192c-0.347,0.648-0.632,1.334-0.849,2.05l-4.378,1.557C0.708,14.834,0.667,15.412,0.667,16s0.041,1.165,0.105,1.736l4.378,1.558c0.217,0.715,0.502,1.401,0.849,2.049l-1.994,4.193c0.725,0.909,1.549,1.733,2.459,2.458l4.192-1.993c0.648,0.347,1.334,0.633,2.05,0.851l1.557,4.377c0.571,0.064,1.148,0.104,1.737,0.104c0.588,0,1.165-0.04,1.736-0.104l1.558-4.377c0.715-0.218,1.399-0.504,2.049-0.851l4.193,1.993c0.909-0.725,1.733-1.549,2.458-2.458l-1.993-4.193c0.347-0.647,0.633-1.334,0.851-2.049L31.229,17.736zM16,20.871c-2.69,0-4.872-2.182-4.872-4.871c0-2.69,2.182-4.872,4.872-4.872c2.689,0,4.871,2.182,4.871,4.872C20.871,18.689,18.689,20.871,16,20.871z"></path><title>Link options.</title></g></g></g></g><g   id="j_150" ><path  stroke="#707070" d="M 1799 558 L 1605 908" id="v-2159" stroke-width="2" stroke-dasharray="30 30" fill="none" style="opacity: 1;"></path><path  fill="black" stroke="black" d="M 0 0 0 0" transform="matrix(-0.4865497648715973,0.8736528754234314,-0.8736528754234314,-0.4865497648715973,1799.4599609375,558)"></path><path  fill="#707070" stroke="#707070" d="M 20 0 L 0 10 L 20 20 z" id="v-2161" transform="matrix(0.4865495562553406,-0.873652994632721,0.873652994632721,0.4865495562553406,1595.803466796875,903.134521484375)" style="opacity: 1;"></path><path  d="M 1799 558 L 1605 908" id="v-2160" fill="none" style="cursor: auto; pointer-events: visiblepainted;"></path><g ><g id="v-2150"  label-idx="0" cursor="move" transform="matrix(1,0,0,1,1702,733)" style="opacity: 1;"><rect joint-selector="rect" id="v-2154" fill="#ffffff" rx="3" ry="3" stroke="#ffffff" stroke-width="20px" pointer-events="none" width="170.33982849121094" height="63.21208572387695" transform="matrix(1,0,0,1,-85.19999694824219,-31.600000381469727)"></rect><text joint-selector="text" id="v-2153" font-size="24px" xml:space="preserve" y="0.8em" fill="#707070" text-anchor="middle" pointer-events="none" font-family="Open Sans" font-weight="normal" transform="matrix(1,0,0,1,0,-25)"><tspan  dy="0">sends scanned</tspan><tspan dy="1.2em" x="0" >LPA Data to</tspan></text></g><g id="v-2151"  label-idx="1" cursor="move" transform="matrix(1,0,0,1,1702,776.2000122070312)" style="opacity: 1;"><rect joint-selector="rect" id="v-2156" fill="#ffffff" rx="3" ry="3" pointer-events="none" width="0" height="0" transform="matrix(1,0,0,1,0,0)"></rect><text joint-selector="text" id="v-2155" font-size="19px" xml:space="preserve" display="none" y="0.8em" fill="#707070" text-anchor="middle" pointer-events="none" font-family="Open Sans" font-weight="normal"><tspan style="fill-opacity: 0; stroke-opacity: 0;"  dy="0">-</tspan></text></g><g id="v-2152"  label-idx="2" cursor="move" transform="matrix(1,0,0,1,1702,800.2000122070312)" style="opacity: 1;"><rect joint-selector="rect" id="v-2158" fill="#ffffff" rx="3" ry="3" pointer-events="none"  width="0" height="0" transform="matrix(1,0,0,1,0,0)" display="none"></rect><text joint-selector="text" id="v-2157" font-size="19px" xml:space="preserve" display="none" y="0.8em" fill="#707070" text-anchor="middle" pointer-events="none" font-family="Open Sans" font-weight="normal" ><tspan style="fill-opacity: 0; stroke-opacity: 0;"  dy="0">-</tspan></text></g></g><g  display="none" style="display: none;"></g><g  id="v-2163" display="none"><g  id="v-2148"><path  end="source" d="M 26 0 L 0 13 L 26 26 z"></path></g><g  id="v-2149"><path  end="target" d="M 26 0 L 0 13 L 26 26 z"></path></g></g><g  id="v-2162" display="none"><g  id="v-2147" transform="translate(1779.608239747533, 592.9851344761005) "><g  event="remove"><circle r="11"></circle><path transform="scale(.8) translate(-16, -16)" d="M24.778,21.419 19.276,15.917 24.777,10.415 21.949,7.585 16.447,13.087 10.945,7.585 8.117,10.415 13.618,15.917 8.116,21.419 10.946,24.248 16.447,18.746 21.948,24.248z"></path><title>Remove link.</title></g><g  event="link:options"><circle r="11" transform="translate(25)"></circle><path fill="white" transform="scale(.55) translate(29, -16)" d="M31.229,17.736c0.064-0.571,0.104-1.148,0.104-1.736s-0.04-1.166-0.104-1.737l-4.377-1.557c-0.218-0.716-0.504-1.401-0.851-2.05l1.993-4.192c-0.725-0.91-1.549-1.734-2.458-2.459l-4.193,1.994c-0.647-0.347-1.334-0.632-2.049-0.849l-1.558-4.378C17.165,0.708,16.588,0.667,16,0.667s-1.166,0.041-1.737,0.105L12.707,5.15c-0.716,0.217-1.401,0.502-2.05,0.849L6.464,4.005C5.554,4.73,4.73,5.554,4.005,6.464l1.994,4.192c-0.347,0.648-0.632,1.334-0.849,2.05l-4.378,1.557C0.708,14.834,0.667,15.412,0.667,16s0.041,1.165,0.105,1.736l4.378,1.558c0.217,0.715,0.502,1.401,0.849,2.049l-1.994,4.193c0.725,0.909,1.549,1.733,2.459,2.458l4.192-1.993c0.648,0.347,1.334,0.633,2.05,0.851l1.557,4.377c0.571,0.064,1.148,0.104,1.737,0.104c0.588,0,1.165-0.04,1.736-0.104l1.558-4.377c0.715-0.218,1.399-0.504,2.049-0.851l4.193,1.993c0.909-0.725,1.733-1.549,2.458-2.458l-1.993-4.193c0.347-0.647,0.633-1.334,0.851-2.049L31.229,17.736zM16,20.871c-2.69,0-4.872-2.182-4.872-4.871c0-2.69,2.182-4.872,4.872-4.872c2.689,0,4.871,2.182,4.871,4.872C20.871,18.689,18.689,20.871,16,20.871z"></path><title>Link options.</title></g></g></g></g></g><g ></g><g ></g><g ></g></g></svg>