<svg xmlns="http://www.w3.org/2000/svg" xmlns:xlink="http://www.w3.org/1999/xlink" version="1.1" viewBox="0 0 1108 2158" style="background: #ffffff"><defs joint-selector="defs"></defs><g  joint-selector="layers" transform="matrix(1,0,0,1,0,0)"><g ></g><g ><g   id="j_238"  transform="translate(20,2113)"><g id="v-3469"><text  id="v-3470" font-size="22px" xml:space="preserve" y="0.8em" font-weight="normal" text-anchor="start" fill="#aaaaaa" pointer-events="none" font-family="Open Sans"><tspan  dy="0">Friday, 24 February 2023 at 12:07 Greenwich Mean Time</tspan></text></g></g><g   id="j_237"  transform="translate(20,2069)"><g id="v-3467"><text  id="v-3468" font-size="36px" xml:space="preserve" y="0.8em" font-weight="normal" text-anchor="start" fill="#000000" pointer-events="none" font-family="Open Sans"><tspan  dy="0">[Component] Modernising Lasting Power of Attorney - Make a Lasting Power of Attorney Online</tspan></text></g></g><g   id="j_231"  transform="translate(309,309)" style=""><g id="v-3373"><rect  id="v-3374" width="490" height="1613" rx="0" ry="0" fill="#ffffff" stroke="#3c7fc0" stroke-width="1" stroke-dasharray="20,20" pointer-events="none"></rect><text  id="v-3375" font-size="24px" xml:space="preserve" y="1574" font-weight="normal" fill="#3c7fc0" text-anchor="start" pointer-events="visible" font-family="Open Sans" transform="matrix(1,0,0,1,15,0)"><tspan  dy="0">Make a Lasting Power of Attorney Online</tspan></text><text  id="v-3376" font-size="19px" xml:space="preserve" y="1598" font-weight="normal" fill="#3c7fc0" text-anchor="start" pointer-events="visible" font-family="Open Sans" transform="matrix(1,0,0,1,15,0)"><tspan  dy="0">[Container]</tspan></text><image  id="v-3377" pointer-events="visible"></image></g></g><g   id="j_232"  transform="translate(329,329)" style=""><g  id="v-3384" style="opacity: 1;"><rect  id="v-3385" rx="10" ry="10" stroke="#78a8d8" stroke-width="2" pointer-events="visiblePainted" fill="#78a8d8" width="450" height="300" style="fill: rgb(120, 168, 216); stroke: rgb(120, 168, 216);"></rect><rect  id="v-3386" rx="10" ry="10" stroke="#78a8d8" stroke-width="0" pointer-events="visiblePainted" fill="#85bbf0" width="430" height="250" x="10" y="40" style="fill: rgb(133, 187, 240);"></rect><ellipse  id="v-3393" fill="#85bbf0" cx="20" cy="20" rx="10" ry="10" style="fill: rgb(133, 187, 240);"></ellipse><ellipse  id="v-3394" fill="#85bbf0" cx="50" cy="20" rx="10" ry="10" style="fill: rgb(133, 187, 240);"></ellipse><ellipse  id="v-3395" fill="#85bbf0" cx="80" cy="20" rx="10" ry="10" style="fill: rgb(133, 187, 240);"></ellipse><rect  id="v-3387" rx="10" ry="10" stroke="#444444" stroke-width="0" pointer-events="visiblePainted" fill="#85bbf0" width="340" height="20" x="100" y="10" style="fill: rgb(133, 187, 240);"></rect><text  id="v-3388" font-size="34" xml:space="preserve" y="0.8em" font-weight="bold" text-anchor="middle" pointer-events="visible" font-family="Open Sans" fill="#000000" transform="matrix(1,0,0,1,225,80)" style="fill: rgb(0, 0, 0);"><tspan  dy="0">App</tspan></text><text  id="v-3389" font-size="19" xml:space="preserve" y="0.8em" text-anchor="middle" font-family="Open Sans" fill="#000000" transform="matrix(1,0,0,1,225,122.5)" style="fill: rgb(0, 0, 0);"><tspan  dy="0">[Component: Go, HTML, CSS, JS]</tspan></text><text  id="v-3390" font-size="24" xml:space="preserve" y="0.8em" text-anchor="middle" font-family="Open Sans" fill="#000000" transform="matrix(1,0,0,1,225,170)" style="fill: rgb(0, 0, 0);"><tspan  dy="0">Provides and delivers static content,</tspan><tspan dy="1.2em" x="0" >business logic, routing, third party</tspan><tspan dy="1.2em" x="0" >access and database access</tspan></text><text  id="v-3391" font-weight="normal" text-anchor="middle" font-family="Open Sans" fill="#000000" font-size="34" transform="matrix(1,0,0,1,225,251)" xml:space="preserve" display="none" y="0.8em" style="fill: rgb(0, 0, 0);"><tspan style="fill-opacity: 0; stroke-opacity: 0;"  dy="0">-</tspan></text><image  id="v-3392"></image></g></g><g   id="j_233"  transform="translate(329,929)" style=""><g  id="v-3399" style="opacity: 1;"><path  d="M 0,30 a 225,30 0,0,0 450 0 a 225,30 0,0,0 -450 0 l 0,240 a 225,30 0,0,0 450 0 l 0,-240" id="v-3400" stroke="#78a8d8" stroke-width="2" pointer-events="visiblePainted" fill="#85bbf0" style="fill: rgb(133, 187, 240); stroke: rgb(120, 168, 216);"></path><rect  id="v-3401" stroke-width="0" pointer-events="visiblePainted" fill="none" stroke="none" width="450" height="270" x="0" y="30"></rect><text  id="v-3402" font-size="34px" xml:space="preserve" y="0.8em" font-weight="bold" text-anchor="middle" pointer-events="visible" font-family="Open Sans" fill="#000000" transform="matrix(1,0,0,1,225,90)" style="fill: rgb(0, 0, 0);"><tspan  dy="0">Database</tspan></text><text  id="v-3403" font-size="19px" xml:space="preserve" y="0.8em" text-anchor="middle" font-family="Open Sans" fill="#000000" transform="matrix(1,0,0,1,225,132.5)" style="fill: rgb(0, 0, 0);"><tspan  dy="0">[Component: DynamoDB]</tspan></text><text  id="v-3404" font-size="24px" xml:space="preserve" y="0.8em" text-anchor="middle" font-family="Open Sans" fill="#000000" transform="matrix(1,0,0,1,225,180)" style="fill: rgb(0, 0, 0);"><tspan  dy="0">Stores actor information, Draft LPA</tspan><tspan dy="1.2em" x="0" >details, access logs, etc.</tspan></text><text  id="v-3405" font-weight="normal" text-anchor="middle" font-family="Open Sans" fill="#000000" font-size="34" transform="matrix(1,0,0,1,225,251)" xml:space="preserve" display="none" y="0.8em" style="fill: rgb(0, 0, 0);"><tspan style="fill-opacity: 0; stroke-opacity: 0;"  dy="0">-</tspan></text><image  id="v-3406"></image></g></g><g   id="j_234"  transform="translate(329,1529)" style=""><g  id="v-3413" style="opacity: 1;"><path  d="M 0,30 a 225,30 0,0,0 450 0 a 225,30 0,0,0 -450 0 l 0,240 a 225,30 0,0,0 450 0 l 0,-240" id="v-3414" stroke="#78a8d8" stroke-width="2" pointer-events="visiblePainted" fill="#85bbf0" style="fill: rgb(133, 187, 240); stroke: rgb(120, 168, 216);"></path><rect  id="v-3415" stroke-width="0" pointer-events="visiblePainted" fill="none" stroke="none" width="450" height="270" x="0" y="30"></rect><text  id="v-3416" font-size="34px" xml:space="preserve" y="0.8em" font-weight="bold" text-anchor="middle" pointer-events="visible" font-family="Open Sans" fill="#000000" transform="matrix(1,0,0,1,225,83.80000305175781)" style="fill: rgb(0, 0, 0);"><tspan  dy="0">Monitoring and</tspan><tspan dy="1.2em" x="0" >Telemetery</tspan></text><text  id="v-3417" font-size="19px" xml:space="preserve" y="0.8em" text-anchor="middle" font-family="Open Sans" fill="#000000" transform="matrix(1,0,0,1,225,168.8000030517578)" style="fill: rgb(0, 0, 0);"><tspan  dy="0">[Component: AWS Cloudwatch]</tspan></text><text  id="v-3418" font-size="24px" xml:space="preserve" y="0.8em" text-anchor="middle" font-family="Open Sans" fill="#000000" transform="matrix(1,0,0,1,225,216.3000030517578)" style="fill: rgb(0, 0, 0);"><tspan  dy="0">Cloudwatch logs, X-Ray and RUM</tspan></text><text  id="v-3419" font-weight="normal" text-anchor="middle" font-family="Open Sans" fill="#000000" font-size="34" transform="matrix(1,0,0,1,225,251)" xml:space="preserve" display="none" y="0.8em" style="fill: rgb(0, 0, 0);"><tspan style="fill-opacity: 0; stroke-opacity: 0;"  dy="0">-</tspan></text><image  id="v-3420"></image></g></g><g   id="j_235" ><path  stroke="#707070" d="M 554 1229 L 554 1529" id="v-3436" stroke-width="2" stroke-dasharray="30 30" fill="none" style="opacity: 1;"></path><path  fill="black" stroke="black" d="M 0 0 0 0" transform="matrix(6.123234262925839e-17,1,-1,6.123234262925839e-17,554,1229)"></path><path  fill="#707070" stroke="#707070" d="M 20 0 L 0 10 L 20 20 z" id="v-3438" transform="matrix(-1.8369701465288538e-16,-1,1,-1.8369701465288538e-16,544,1529)" style="opacity: 1;"></path><path  d="M 554 1229 L 554 1529" id="v-3437" fill="none" style="cursor: auto; pointer-events: visiblepainted;"></path><g ><g id="v-3427"  label-idx="0" cursor="move" transform="matrix(1,0,0,1,554,1379)" style="opacity: 1;"><rect joint-selector="rect" id="v-3431" fill="#ffffff" rx="3" ry="3" stroke="#ffffff" stroke-width="20px" pointer-events="none" width="155.11512756347656" height="34.10439109802246" transform="matrix(1,0,0,1,-77.5999984741211,-17)"></rect><text joint-selector="text" id="v-3430" font-size="24px" xml:space="preserve" y="0.8em" fill="#707070" text-anchor="middle" pointer-events="none" font-family="Open Sans" font-weight="normal" transform="matrix(1,0,0,1,0,-9.300000190734863)"><tspan  dy="0">interacts with</tspan></text></g><g id="v-3428"  label-idx="1" cursor="move" transform="matrix(1,0,0,1,554,1410.199951171875)" style="opacity: 1;"><rect joint-selector="rect" id="v-3433" fill="#ffffff" rx="3" ry="3" pointer-events="none" width="0" height="0" transform="matrix(1,0,0,1,0,0)"></rect><text joint-selector="text" id="v-3432" font-size="19px" xml:space="preserve" display="none" y="0.8em" fill="#707070" text-anchor="middle" pointer-events="none" font-family="Open Sans" font-weight="normal"><tspan style="fill-opacity: 0; stroke-opacity: 0;"  dy="0">-</tspan></text></g><g id="v-3429"  label-idx="2" cursor="move" transform="matrix(1,0,0,1,554,1434.199951171875)" style="opacity: 1;"><rect joint-selector="rect" id="v-3435" fill="#ffffff" rx="3" ry="3" pointer-events="none"  width="0" height="0" transform="matrix(1,0,0,1,0,0)" display="none"></rect><text joint-selector="text" id="v-3434" font-size="19px" xml:space="preserve" display="none" y="0.8em" fill="#707070" text-anchor="middle" pointer-events="none" font-family="Open Sans" font-weight="normal" ><tspan style="fill-opacity: 0; stroke-opacity: 0;"  dy="0">-</tspan></text></g></g><g  display="none" style="display: none;"></g><g  id="v-3440" display="none"><g  id="v-3425"><path  end="source" d="M 26 0 L 0 13 L 26 26 z"></path></g><g  id="v-3426"><path  end="target" d="M 26 0 L 0 13 L 26 26 z"></path></g></g><g  id="v-3439" display="none"><g  id="v-3424" transform="translate(554, 1269) "><g  event="remove"><circle r="11"></circle><path transform="scale(.8) translate(-16, -16)" d="M24.778,21.419 19.276,15.917 24.777,10.415 21.949,7.585 16.447,13.087 10.945,7.585 8.117,10.415 13.618,15.917 8.116,21.419 10.946,24.248 16.447,18.746 21.948,24.248z"></path><title>Remove link.</title></g><g  event="link:options"><circle r="11" transform="translate(25)"></circle><path fill="white" transform="scale(.55) translate(29, -16)" d="M31.229,17.736c0.064-0.571,0.104-1.148,0.104-1.736s-0.04-1.166-0.104-1.737l-4.377-1.557c-0.218-0.716-0.504-1.401-0.851-2.05l1.993-4.192c-0.725-0.91-1.549-1.734-2.458-2.459l-4.193,1.994c-0.647-0.347-1.334-0.632-2.049-0.849l-1.558-4.378C17.165,0.708,16.588,0.667,16,0.667s-1.166,0.041-1.737,0.105L12.707,5.15c-0.716,0.217-1.401,0.502-2.05,0.849L6.464,4.005C5.554,4.73,4.73,5.554,4.005,6.464l1.994,4.192c-0.347,0.648-0.632,1.334-0.849,2.05l-4.378,1.557C0.708,14.834,0.667,15.412,0.667,16s0.041,1.165,0.105,1.736l4.378,1.558c0.217,0.715,0.502,1.401,0.849,2.049l-1.994,4.193c0.725,0.909,1.549,1.733,2.459,2.458l4.192-1.993c0.648,0.347,1.334,0.633,2.05,0.851l1.557,4.377c0.571,0.064,1.148,0.104,1.737,0.104c0.588,0,1.165-0.04,1.736-0.104l1.558-4.377c0.715-0.218,1.399-0.504,2.049-0.851l4.193,1.993c0.909-0.725,1.733-1.549,2.458-2.458l-1.993-4.193c0.347-0.647,0.633-1.334,0.851-2.049L31.229,17.736zM16,20.871c-2.69,0-4.872-2.182-4.872-4.871c0-2.69,2.182-4.872,4.872-4.872c2.689,0,4.871,2.182,4.871,4.872C20.871,18.689,18.689,20.871,16,20.871z"></path><title>Link options.</title></g></g></g></g><g   id="j_236" ><path  stroke="#707070" d="M 554 629 L 554 929" id="v-3456" stroke-width="2" stroke-dasharray="30 30" fill="none" style="opacity: 1;"></path><path  fill="black" stroke="black" d="M 0 0 0 0" transform="matrix(6.123234262925839e-17,1,-1,6.123234262925839e-17,554,629)"></path><path  fill="#707070" stroke="#707070" d="M 20 0 L 0 10 L 20 20 z" id="v-3458" transform="matrix(-1.8369701465288538e-16,-1,1,-1.8369701465288538e-16,544,929)" style="opacity: 1;"></path><path  d="M 554 629 L 554 929" id="v-3457" fill="none" style="cursor: auto; pointer-events: visiblepainted;"></path><g ><g id="v-3447"  label-idx="0" cursor="move" transform="matrix(1,0,0,1,554,779)" style="opacity: 1;"><rect joint-selector="rect" id="v-3451" fill="#ffffff" rx="3" ry="3" stroke="#ffffff" stroke-width="20px" pointer-events="none" width="189.39903259277344" height="62.90439033508301" transform="matrix(1,0,0,1,-94.69999694824219,-31.399999618530273)"></rect><text joint-selector="text" id="v-3450" font-size="24px" xml:space="preserve" y="0.8em" fill="#707070" text-anchor="middle" pointer-events="none" font-family="Open Sans" font-weight="normal" transform="matrix(1,0,0,1,0,-23.700000762939453)"><tspan  dy="0">reads and writes</tspan><tspan dy="1.2em" x="0" >data to</tspan></text></g><g id="v-3448"  label-idx="1" cursor="move" transform="matrix(1,0,0,1,554,822.2000122070312)" style="opacity: 1;"><rect joint-selector="rect" id="v-3453" fill="#ffffff" rx="3" ry="3" pointer-events="none" width="0" height="0" transform="matrix(1,0,0,1,0,0)"></rect><text joint-selector="text" id="v-3452" font-size="19px" xml:space="preserve" display="none" y="0.8em" fill="#707070" text-anchor="middle" pointer-events="none" font-family="Open Sans" font-weight="normal"><tspan style="fill-opacity: 0; stroke-opacity: 0;"  dy="0">-</tspan></text></g><g id="v-3449"  label-idx="2" cursor="move" transform="matrix(1,0,0,1,554,846.2000122070312)" style="opacity: 1;"><rect joint-selector="rect" id="v-3455" fill="#ffffff" rx="3" ry="3" pointer-events="none"  width="0" height="0" transform="matrix(1,0,0,1,0,0)" display="none"></rect><text joint-selector="text" id="v-3454" font-size="19px" xml:space="preserve" display="none" y="0.8em" fill="#707070" text-anchor="middle" pointer-events="none" font-family="Open Sans" font-weight="normal" ><tspan style="fill-opacity: 0; stroke-opacity: 0;"  dy="0">-</tspan></text></g></g><g  display="none" style="display: none;"></g><g  id="v-3460" display="none"><g  id="v-3445"><path  end="source" d="M 26 0 L 0 13 L 26 26 z"></path></g><g  id="v-3446"><path  end="target" d="M 26 0 L 0 13 L 26 26 z"></path></g></g><g  id="v-3459" display="none"><g  id="v-3444" transform="translate(554, 669) "><g  event="remove"><circle r="11"></circle><path transform="scale(.8) translate(-16, -16)" d="M24.778,21.419 19.276,15.917 24.777,10.415 21.949,7.585 16.447,13.087 10.945,7.585 8.117,10.415 13.618,15.917 8.116,21.419 10.946,24.248 16.447,18.746 21.948,24.248z"></path><title>Remove link.</title></g><g  event="link:options"><circle r="11" transform="translate(25)"></circle><path fill="white" transform="scale(.55) translate(29, -16)" d="M31.229,17.736c0.064-0.571,0.104-1.148,0.104-1.736s-0.04-1.166-0.104-1.737l-4.377-1.557c-0.218-0.716-0.504-1.401-0.851-2.05l1.993-4.192c-0.725-0.91-1.549-1.734-2.458-2.459l-4.193,1.994c-0.647-0.347-1.334-0.632-2.049-0.849l-1.558-4.378C17.165,0.708,16.588,0.667,16,0.667s-1.166,0.041-1.737,0.105L12.707,5.15c-0.716,0.217-1.401,0.502-2.05,0.849L6.464,4.005C5.554,4.73,4.73,5.554,4.005,6.464l1.994,4.192c-0.347,0.648-0.632,1.334-0.849,2.05l-4.378,1.557C0.708,14.834,0.667,15.412,0.667,16s0.041,1.165,0.105,1.736l4.378,1.558c0.217,0.715,0.502,1.401,0.849,2.049l-1.994,4.193c0.725,0.909,1.549,1.733,2.459,2.458l4.192-1.993c0.648,0.347,1.334,0.633,2.05,0.851l1.557,4.377c0.571,0.064,1.148,0.104,1.737,0.104c0.588,0,1.165-0.04,1.736-0.104l1.558-4.377c0.715-0.218,1.399-0.504,2.049-0.851l4.193,1.993c0.909-0.725,1.733-1.549,2.458-2.458l-1.993-4.193c0.347-0.647,0.633-1.334,0.851-2.049L31.229,17.736zM16,20.871c-2.69,0-4.872-2.182-4.872-4.871c0-2.69,2.182-4.872,4.872-4.872c2.689,0,4.871,2.182,4.871,4.872C20.871,18.689,18.689,20.871,16,20.871z"></path><title>Link options.</title></g></g></g></g></g><g ></g><g ></g><g ></g></g></svg>