<svg xmlns="http://www.w3.org/2000/svg" xmlns:xlink="http://www.w3.org/1999/xlink" version="1.1" viewBox="0 0 3762 1916" style="background: #ffffff"><defs joint-selector="defs"></defs><g  joint-selector="layers" transform="matrix(1,0,0,1,0,0)"><g ></g><g ><g   id="j_290"  transform="translate(20,1871)"><g id="v-4162"><text  id="v-4163" font-size="22px" xml:space="preserve" y="0.8em" font-weight="normal" text-anchor="start" fill="#aaaaaa" pointer-events="none" font-family="Open Sans"><tspan  dy="0">Friday, 24 February 2023 at 12:07 Greenwich Mean Time</tspan></text></g></g><g   id="j_289"  transform="translate(20,1827)"><g id="v-4160"><text  id="v-4161" font-size="36px" xml:space="preserve" y="0.8em" font-weight="normal" text-anchor="start" fill="#000000" pointer-events="none" font-family="Open Sans"><tspan  dy="0">[Component] Modernising Lasting Power of Attorney - Staging Service</tspan></text></g></g><g   id="j_273"  transform="translate(309,788)" style=""><g id="v-3918"><rect  id="v-3919" width="2740" height="413" rx="0" ry="0" fill="#ffffff" stroke="#3c7fc0" stroke-width="1" stroke-dasharray="20,20" pointer-events="none"></rect><text  id="v-3920" font-size="24px" xml:space="preserve" y="374" font-weight="normal" fill="#3c7fc0" text-anchor="start" pointer-events="visible" font-family="Open Sans" transform="matrix(1,0,0,1,15,0)"><tspan  dy="0">Staging Service</tspan></text><text  id="v-3921" font-size="19px" xml:space="preserve" y="398" font-weight="normal" fill="#3c7fc0" text-anchor="start" pointer-events="visible" font-family="Open Sans" transform="matrix(1,0,0,1,15,0)"><tspan  dy="0">[Container]</tspan></text><image  id="v-3922" pointer-events="visible"></image></g></g><g   id="j_274"  transform="translate(2541,1408)" style=""><g  id="v-3929" style="opacity: 1;"><rect  id="v-3930" rx="20" ry="20" stroke="#8a8a8a" stroke-width="2" pointer-events="visiblePainted" fill="#999999" width="450" height="300" style="fill: rgb(153, 153, 153); stroke: rgb(138, 138, 138);"></rect><text  id="v-3931" font-size="34" xml:space="preserve" y="0.8em" font-weight="bold" text-anchor="middle" pointer-events="visible" font-family="Open Sans" fill="#ffffff" transform="matrix(1,0,0,1,225,75)" style="fill: rgb(255, 255, 255);"><tspan  dy="0">Sirius Public API</tspan></text><text  id="v-3932" font-size="19" xml:space="preserve" y="0.8em" text-anchor="middle" font-family="Open Sans" fill="#ffffff" transform="matrix(1,0,0,1,225,117.5)" style="fill: rgb(255, 255, 255);"><tspan  dy="0">[Container: API Gateway, Go]</tspan></text><text  id="v-3933" font-size="24" xml:space="preserve" y="0.8em" text-anchor="middle" font-family="Open Sans" fill="#ffffff" transform="matrix(1,0,0,1,225,165)" style="fill: rgb(255, 255, 255);"><tspan  dy="0">Interaction point between Sirius Case</tspan><tspan dy="1.2em" x="0" >Management and other services.</tspan></text><text  id="v-3934" font-weight="normal" text-anchor="middle" font-family="Open Sans" fill="#ffffff" font-size="34" transform="matrix(1,0,0,1,225,251)" xml:space="preserve" display="none" y="0.8em" style="fill: rgb(255, 255, 255);"><tspan style="fill-opacity: 0; stroke-opacity: 0;"  dy="0">-</tspan></text><image  id="v-3935"></image></g></g><g   id="j_275"  transform="translate(2579,808)" style=""><g  id="v-3939" style="opacity: 1;"><rect  id="v-3940" rx="20" ry="20" stroke="#78a8d8" stroke-width="2" pointer-events="visiblePainted" fill="#85bbf0" width="450" height="300" style="fill: rgb(133, 187, 240); stroke: rgb(120, 168, 216);"></rect><text  id="v-3941" font-size="34" xml:space="preserve" y="0.8em" font-weight="bold" text-anchor="middle" pointer-events="visible" font-family="Open Sans" fill="#000000" transform="matrix(1,0,0,1,225,75)" style="fill: rgb(0, 0, 0);"><tspan  dy="0">App</tspan></text><text  id="v-3942" font-size="19" xml:space="preserve" y="0.8em" text-anchor="middle" font-family="Open Sans" fill="#000000" transform="matrix(1,0,0,1,225,117.5)" style="fill: rgb(0, 0, 0);"><tspan  dy="0">[Component: Go]</tspan></text><text  id="v-3943" font-size="24" xml:space="preserve" y="0.8em" text-anchor="middle" font-family="Open Sans" fill="#000000" transform="matrix(1,0,0,1,225,165)" style="fill: rgb(0, 0, 0);"><tspan  dy="0">Manages data events and business</tspan><tspan dy="1.2em" x="0" >logic.</tspan></text><text  id="v-3944" font-weight="normal" text-anchor="middle" font-family="Open Sans" fill="#000000" font-size="34" transform="matrix(1,0,0,1,225,251)" xml:space="preserve" display="none" y="0.8em" style="fill: rgb(0, 0, 0);"><tspan style="fill-opacity: 0; stroke-opacity: 0;"  dy="0">-</tspan></text><image  id="v-3945"></image></g></g><g   id="j_276"  transform="translate(1250,208)" style=""><g  id="v-3946" style="opacity: 1;"><rect  id="v-3947" rx="20" ry="20" stroke="#3c7fc0" stroke-width="2" pointer-events="visiblePainted" fill="#438dd5" width="450" height="300" style="fill: rgb(67, 141, 213); stroke: rgb(60, 127, 192);"></rect><text  id="v-3948" font-size="34" xml:space="preserve" y="0.8em" font-weight="bold" text-anchor="middle" pointer-events="visible" font-family="Open Sans" fill="#ffffff" transform="matrix(1,0,0,1,225,90)" style="fill: rgb(255, 255, 255);"><tspan  dy="0">LPA ID Service</tspan></text><text  id="v-3949" font-size="19" xml:space="preserve" y="0.8em" text-anchor="middle" font-family="Open Sans" fill="#ffffff" transform="matrix(1,0,0,1,225,132.5)" style="fill: rgb(255, 255, 255);"><tspan  dy="0">[Container: API Gateway, Go]</tspan></text><text  id="v-3950" font-size="24" xml:space="preserve" y="0.8em" text-anchor="middle" font-family="Open Sans" fill="#ffffff" transform="matrix(1,0,0,1,225,180)" style="fill: rgb(255, 255, 255);"><tspan  dy="0">Manages the LPA IDs.</tspan></text><text  id="v-3951" font-weight="normal" text-anchor="middle" font-family="Open Sans" fill="#ffffff" font-size="34" transform="matrix(1,0,0,1,225,251)" xml:space="preserve" display="none" y="0.8em" style="fill: rgb(255, 255, 255);"><tspan style="fill-opacity: 0; stroke-opacity: 0;"  dy="0">-</tspan></text><image  id="v-3952"></image></g></g><g   id="j_277"  transform="translate(2000,208)" style=""><g  id="v-3962" style="opacity: 1;"><rect  id="v-3963" rx="10" ry="10" stroke="#3c7fc0" stroke-width="2" pointer-events="visiblePainted" fill="#3c7fc0" width="450" height="300" style="fill: rgb(60, 127, 192); stroke: rgb(60, 127, 192);"></rect><rect  id="v-3964" rx="10" ry="10" stroke="#3c7fc0" stroke-width="0" pointer-events="visiblePainted" fill="#438dd5" width="430" height="250" x="10" y="40" style="fill: rgb(67, 141, 213);"></rect><ellipse  id="v-3971" fill="#438dd5" cx="20" cy="20" rx="10" ry="10" style="fill: rgb(67, 141, 213);"></ellipse><ellipse  id="v-3972" fill="#438dd5" cx="50" cy="20" rx="10" ry="10" style="fill: rgb(67, 141, 213);"></ellipse><ellipse  id="v-3973" fill="#438dd5" cx="80" cy="20" rx="10" ry="10" style="fill: rgb(67, 141, 213);"></ellipse><rect  id="v-3965" rx="10" ry="10" stroke="#444444" stroke-width="0" pointer-events="visiblePainted" fill="#438dd5" width="340" height="20" x="100" y="10" style="fill: rgb(67, 141, 213);"></rect><text  id="v-3966" font-size="34" xml:space="preserve" y="0.8em" font-weight="bold" text-anchor="middle" pointer-events="visible" font-family="Open Sans" fill="#ffffff" transform="matrix(1,0,0,1,225,73.80000305175781)" style="fill: rgb(255, 255, 255);"><tspan  dy="0">Make a Lasting Power of</tspan><tspan dy="1.2em" x="0" >Attorney Online</tspan></text><text  id="v-3967" font-size="19" xml:space="preserve" y="0.8em" text-anchor="middle" font-family="Open Sans" fill="#ffffff" transform="matrix(1,0,0,1,225,158.8000030517578)" style="fill: rgb(255, 255, 255);"><tspan  dy="0">[Container: Go, HTML, CSS, JS]</tspan></text><text  id="v-3968" font-size="24" xml:space="preserve" y="0.8em" text-anchor="middle" font-family="Open Sans" fill="#ffffff" transform="matrix(1,0,0,1,225,206.3000030517578)" style="fill: rgb(255, 255, 255);"><tspan  dy="0">Allows users to draft a Lasting Power</tspan><tspan dy="1.2em" x="0" >of Attorney online.</tspan></text><text  id="v-3969" font-weight="normal" text-anchor="middle" font-family="Open Sans" fill="#ffffff" font-size="34" transform="matrix(1,0,0,1,225,251)" xml:space="preserve" y="0.8em" display="none" style="fill: rgb(255, 255, 255);"><tspan  dy="0">+</tspan></text><image  id="v-3970"></image></g></g><g   id="j_278"  transform="translate(1079,1408)" style=""><g  id="v-3980" style="opacity: 1;"><rect  id="v-3981" rx="20" ry="20" stroke="#3c7fc0" stroke-width="2" pointer-events="visiblePainted" fill="#438dd5" width="450" height="300" style="fill: rgb(67, 141, 213); stroke: rgb(60, 127, 192);"></rect><text  id="v-3982" font-size="34" xml:space="preserve" y="0.8em" font-weight="bold" text-anchor="middle" pointer-events="visible" font-family="Open Sans" fill="#ffffff" transform="matrix(1,0,0,1,225,75)" style="fill: rgb(255, 255, 255);"><tspan  dy="0">Registered LPA Service</tspan></text><text  id="v-3983" font-size="19" xml:space="preserve" y="0.8em" text-anchor="middle" font-family="Open Sans" fill="#ffffff" transform="matrix(1,0,0,1,225,117.5)" style="fill: rgb(255, 255, 255);"><tspan  dy="0">[Container: API Gateway]</tspan></text><text  id="v-3984" font-size="24" xml:space="preserve" y="0.8em" text-anchor="middle" font-family="Open Sans" fill="#ffffff" transform="matrix(1,0,0,1,225,165)" style="fill: rgb(255, 255, 255);"><tspan  dy="0">Highly available API for reading and</tspan><tspan dy="1.2em" x="0" >searching the LPA Register</tspan></text><text  id="v-3985" font-weight="normal" text-anchor="middle" font-family="Open Sans" fill="#ffffff" font-size="34" transform="matrix(1,0,0,1,225,251)" xml:space="preserve" y="0.8em" display="none" style="fill: rgb(255, 255, 255);"><tspan  dy="0">+</tspan></text><image  id="v-3986"></image></g></g><g   id="j_279"  transform="translate(1829,808)" style=""><g  id="v-3987" style="opacity: 1;"><rect  id="v-3988" rx="20" ry="20" stroke="#78a8d8" stroke-width="2" pointer-events="visiblePainted" fill="#85bbf0" width="450" height="300" style="fill: rgb(133, 187, 240); stroke: rgb(120, 168, 216);"></rect><text  id="v-3989" font-size="34" xml:space="preserve" y="0.8em" font-weight="bold" text-anchor="middle" pointer-events="visible" font-family="Open Sans" fill="#000000" transform="matrix(1,0,0,1,225,90)" style="fill: rgb(0, 0, 0);"><tspan  dy="0">API</tspan></text><text  id="v-3990" font-size="19" xml:space="preserve" y="0.8em" text-anchor="middle" font-family="Open Sans" fill="#000000" transform="matrix(1,0,0,1,225,132.5)" style="fill: rgb(0, 0, 0);"><tspan  dy="0">[Component: API Gateway, Go]</tspan></text><text  id="v-3991" font-size="24" xml:space="preserve" y="0.8em" text-anchor="middle" font-family="Open Sans" fill="#000000" transform="matrix(1,0,0,1,225,180)" style="fill: rgb(0, 0, 0);"><tspan  dy="0">Managing LPA data</tspan></text><text  id="v-3992" font-weight="normal" text-anchor="middle" font-family="Open Sans" fill="#000000" font-size="34" transform="matrix(1,0,0,1,225,251)" xml:space="preserve" display="none" y="0.8em" style="fill: rgb(0, 0, 0);"><tspan style="fill-opacity: 0; stroke-opacity: 0;"  dy="0">-</tspan></text><image  id="v-3993"></image></g></g><g   id="j_280"  transform="translate(1079,808)" style=""><g  id="v-3997" style="opacity: 1;"><rect  id="v-3998" rx="20" ry="20" stroke="#78a8d8" stroke-width="2" pointer-events="visiblePainted" fill="#85bbf0" width="450" height="300" style="fill: rgb(133, 187, 240); stroke: rgb(120, 168, 216);"></rect><text  id="v-3999" font-size="34" xml:space="preserve" y="0.8em" font-weight="bold" text-anchor="middle" pointer-events="visible" font-family="Open Sans" fill="#000000" transform="matrix(1,0,0,1,225,75)" style="fill: rgb(0, 0, 0);"><tspan  dy="0">Sirius API</tspan></text><text  id="v-4000" font-size="19" xml:space="preserve" y="0.8em" text-anchor="middle" font-family="Open Sans" fill="#000000" transform="matrix(1,0,0,1,225,117.5)" style="fill: rgb(0, 0, 0);"><tspan  dy="0">[Component: API Gateway, Go]</tspan></text><text  id="v-4001" font-size="24" xml:space="preserve" y="0.8em" text-anchor="middle" font-family="Open Sans" fill="#000000" transform="matrix(1,0,0,1,225,165)" style="fill: rgb(0, 0, 0);"><tspan  dy="0">Managing Case Worker specific</tspan><tspan dy="1.2em" x="0" >access</tspan></text><text  id="v-4002" font-weight="normal" text-anchor="middle" font-family="Open Sans" fill="#000000" font-size="34" transform="matrix(1,0,0,1,225,251)" xml:space="preserve" display="none" y="0.8em" style="fill: rgb(0, 0, 0);"><tspan style="fill-opacity: 0; stroke-opacity: 0;"  dy="0">-</tspan></text><image  id="v-4003"></image></g></g><g   id="j_281"  transform="translate(329,808)" style=""><g  id="v-4007" style="opacity: 1;"><path  d="M 0,30 a 225,30 0,0,0 450 0 a 225,30 0,0,0 -450 0 l 0,240 a 225,30 0,0,0 450 0 l 0,-240" id="v-4008" stroke="#78a8d8" stroke-width="2" pointer-events="visiblePainted" fill="#85bbf0" style="fill: rgb(133, 187, 240); stroke: rgb(120, 168, 216);"></path><rect  id="v-4009" stroke-width="0" pointer-events="visiblePainted" fill="none" stroke="none" width="450" height="270" x="0" y="30"></rect><text  id="v-4010" font-size="34px" xml:space="preserve" y="0.8em" font-weight="bold" text-anchor="middle" pointer-events="visible" font-family="Open Sans" fill="#000000" transform="matrix(1,0,0,1,225,105)" style="fill: rgb(0, 0, 0);"><tspan  dy="0">Draft LPA Database</tspan></text><text  id="v-4011" font-size="19px" xml:space="preserve" y="0.8em" text-anchor="middle" font-family="Open Sans" fill="#000000" transform="matrix(1,0,0,1,225,147.5)" style="fill: rgb(0, 0, 0);"><tspan  dy="0">[Component: DynamoDB]</tspan></text><text  id="v-4012" font-size="24px" xml:space="preserve" y="0.8em" text-anchor="middle" font-family="Open Sans" fill="#000000" transform="matrix(1,0,0,1,225,195)" style="fill: rgb(0, 0, 0);"><tspan  dy="0">Stores Draft LPA data.</tspan></text><text  id="v-4013" font-weight="normal" text-anchor="middle" font-family="Open Sans" fill="#000000" font-size="34" transform="matrix(1,0,0,1,225,251)" xml:space="preserve" display="none" y="0.8em" style="fill: rgb(0, 0, 0);"><tspan style="fill-opacity: 0; stroke-opacity: 0;"  dy="0">-</tspan></text><image  id="v-4014"></image></g></g><g   id="j_282"  transform="translate(3087,208)" style=""><g  id="v-4021" style="opacity: 1;"><rect  id="v-4022" rx="20" ry="20" stroke="#3c7fc0" stroke-width="2" pointer-events="visiblePainted" fill="#438dd5" width="450" height="300" style="fill: rgb(67, 141, 213); stroke: rgb(60, 127, 192);"></rect><text  id="v-4023" font-size="34" xml:space="preserve" y="0.8em" font-weight="bold" text-anchor="middle" pointer-events="visible" font-family="Open Sans" fill="#ffffff" transform="matrix(1,0,0,1,225,53.79999923706055)" style="fill: rgb(255, 255, 255);"><tspan  dy="0">LPA Paper Ingestion</tspan><tspan dy="1.2em" x="0" >Service</tspan></text><text  id="v-4024" font-size="19" xml:space="preserve" y="0.8em" text-anchor="middle" font-family="Open Sans" fill="#ffffff" transform="matrix(1,0,0,1,225,138.8000030517578)" style="fill: rgb(255, 255, 255);"><tspan  dy="0">[Container: API Gateway, Go]</tspan></text><text  id="v-4025" font-size="24" xml:space="preserve" y="0.8em" text-anchor="middle" font-family="Open Sans" fill="#ffffff" transform="matrix(1,0,0,1,225,186.3000030517578)" style="fill: rgb(255, 255, 255);"><tspan  dy="0">Handles the ingestion of the Paper</tspan><tspan dy="1.2em" x="0" >Journey.</tspan></text><text  id="v-4026" font-weight="normal" text-anchor="middle" font-family="Open Sans" fill="#ffffff" font-size="34" transform="matrix(1,0,0,1,225,251)" xml:space="preserve" display="none" y="0.8em" style="fill: rgb(255, 255, 255);"><tspan style="fill-opacity: 0; stroke-opacity: 0;"  dy="0">-</tspan></text><image  id="v-4027"></image></g></g><g   id="j_283" ><path  stroke="#707070" d="M 3294 508 L 3209 1202 C 3208.333333333333 1208.6666666666665 3205.333333333333 1214 3200 1218 L 2958 1408" id="v-4044" stroke-width="2" stroke-dasharray="30 30" fill="none" style="opacity: 1;"></path><path  fill="black" stroke="black" d="M 0 0 0 0" transform="matrix(-0.1208825334906578,0.9926668405532837,-0.9926668405532837,-0.1208825334906578,3293.72998046875,508)"></path><path  fill="#707070" stroke="#707070" d="M 20 0 L 0 10 L 20 20 z" id="v-4046" transform="matrix(0.7874280214309692,-0.6164066195487976,0.6164066195487976,0.7874280214309692,2951.4560546875,1400.125732421875)" style="opacity: 1;"></path><path  d="M 3294 508 L 3209 1202 C 3208.333333333333 1208.6666666666665 3205.333333333333 1214 3200 1218 L 2958 1408" id="v-4045" fill="none" style="cursor: auto; pointer-events: visiblepainted;"></path><g ><g id="v-4035"  label-idx="0" cursor="move" transform="matrix(1,0,0,1,3231.6474609375,1017.0911254882812)" style="opacity: 1;"><rect joint-selector="rect" id="v-4039" fill="#ffffff" rx="3" ry="3" stroke="#ffffff" stroke-width="20px" pointer-events="none" width="184.84400939941406" height="34.31999969482422" transform="matrix(1,0,0,1,-92.4000015258789,-17.200000762939453)"></rect><text joint-selector="text" id="v-4038" font-size="24px" xml:space="preserve" y="0.8em" fill="#707070" text-anchor="middle" pointer-events="none" font-family="Open Sans" font-weight="normal" transform="matrix(1,0,0,1,0,-10)"><tspan  dy="0">reads data from</tspan></text></g><g id="v-4036"  label-idx="1" cursor="move" transform="matrix(1,0,0,1,3231.6474609375,1048.2911376953125)" style="opacity: 1;"><rect joint-selector="rect" id="v-4041" fill="#ffffff" rx="3" ry="3" pointer-events="none" width="0" height="0" transform="matrix(1,0,0,1,0,0)"></rect><text joint-selector="text" id="v-4040" font-size="19px" xml:space="preserve" display="none" y="0.8em" fill="#707070" text-anchor="middle" pointer-events="none" font-family="Open Sans" font-weight="normal"><tspan style="fill-opacity: 0; stroke-opacity: 0;"  dy="0">-</tspan></text></g><g id="v-4037"  label-idx="2" cursor="move" transform="matrix(1,0,0,1,3231.6474609375,1072.2911376953125)" style="opacity: 1;"><rect joint-selector="rect" id="v-4043" fill="#ffffff" rx="3" ry="3" pointer-events="none"  width="0" height="0" transform="matrix(1,0,0,1,0,0)" display="none"></rect><text joint-selector="text" id="v-4042" font-size="19px" xml:space="preserve" display="none" y="0.8em" fill="#707070" text-anchor="middle" pointer-events="none" font-family="Open Sans" font-weight="normal" ><tspan style="fill-opacity: 0; stroke-opacity: 0;"  dy="0">-</tspan></text></g></g><g  display="none" style="display: none;"><g  transform="translate(3208, 1212)" id="v-4032"><circle  idx="0" r="10"></circle><path  idx="0" d="M16,5.333c-7.732,0-14,4.701-14,10.5c0,1.982,0.741,3.833,2.016,5.414L2,25.667l5.613-1.441c2.339,1.317,5.237,2.107,8.387,2.107c7.732,0,14-4.701,14-10.5C30,10.034,23.732,5.333,16,5.333z" transform="translate(5, -33)"></path><path  idx="0" transform="scale(.8) translate(9.5, -37)" d="M24.778,21.419 19.276,15.917 24.777,10.415 21.949,7.585 16.447,13.087 10.945,7.585 8.117,10.415 13.618,15.917 8.116,21.419 10.946,24.248 16.447,18.746 21.948,24.248z"><title>Remove vertex.</title></path></g></g><g  id="v-4048" display="none"><g  id="v-4033"><path  end="source" d="M 26 0 L 0 13 L 26 26 z"></path></g><g  id="v-4034"><path  end="target" d="M 26 0 L 0 13 L 26 26 z"></path></g></g><g  id="v-4047" display="none"><g  id="v-4031" transform="translate(3289.137202092611, 547.7033146791537) "><g  event="remove"><circle r="11"></circle><path transform="scale(.8) translate(-16, -16)" d="M24.778,21.419 19.276,15.917 24.777,10.415 21.949,7.585 16.447,13.087 10.945,7.585 8.117,10.415 13.618,15.917 8.116,21.419 10.946,24.248 16.447,18.746 21.948,24.248z"></path><title>Remove link.</title></g><g  event="link:options"><circle r="11" transform="translate(25)"></circle><path fill="white" transform="scale(.55) translate(29, -16)" d="M31.229,17.736c0.064-0.571,0.104-1.148,0.104-1.736s-0.04-1.166-0.104-1.737l-4.377-1.557c-0.218-0.716-0.504-1.401-0.851-2.05l1.993-4.192c-0.725-0.91-1.549-1.734-2.458-2.459l-4.193,1.994c-0.647-0.347-1.334-0.632-2.049-0.849l-1.558-4.378C17.165,0.708,16.588,0.667,16,0.667s-1.166,0.041-1.737,0.105L12.707,5.15c-0.716,0.217-1.401,0.502-2.05,0.849L6.464,4.005C5.554,4.73,4.73,5.554,4.005,6.464l1.994,4.192c-0.347,0.648-0.632,1.334-0.849,2.05l-4.378,1.557C0.708,14.834,0.667,15.412,0.667,16s0.041,1.165,0.105,1.736l4.378,1.558c0.217,0.715,0.502,1.401,0.849,2.049l-1.994,4.193c0.725,0.909,1.549,1.733,2.459,2.458l4.192-1.993c0.648,0.347,1.334,0.633,2.05,0.851l1.557,4.377c0.571,0.064,1.148,0.104,1.737,0.104c0.588,0,1.165-0.04,1.736-0.104l1.558-4.377c0.715-0.218,1.399-0.504,2.049-0.851l4.193,1.993c0.909-0.725,1.733-1.549,2.458-2.458l-1.993-4.193c0.347-0.647,0.633-1.334,0.851-2.049L31.229,17.736zM16,20.871c-2.69,0-4.872-2.182-4.872-4.871c0-2.69,2.182-4.872,4.872-4.872c2.689,0,4.871,2.182,4.871,4.872C20.871,18.689,18.689,20.871,16,20.871z"></path><title>Link options.</title></g></g></g></g><g   id="j_284" ><path  stroke="#707070" d="M 1620 508 L 1909 808" id="v-4064" stroke-width="2" stroke-dasharray="30 30" fill="none" style="opacity: 1;"></path><path  fill="black" stroke="black" d="M 0 0 0 0" transform="matrix(0.6944018602371216,0.7195874452590942,-0.7195874452590942,0.6944018602371216,1619.75,508)"></path><path  fill="#707070" stroke="#707070" d="M 20 0 L 0 10 L 20 20 z" id="v-4066" transform="matrix(-0.6944018006324768,-0.7195874452590942,0.7195874452590942,-0.6944018006324768,1902.05419921875,814.9440307617188)" style="opacity: 1;"></path><path  d="M 1620 508 L 1909 808" id="v-4065" fill="none" style="cursor: auto; pointer-events: visiblepainted;"></path><g ><g id="v-4055"  label-idx="0" cursor="move" transform="matrix(1,0,0,1,1764.5,658)" style="opacity: 1;"><rect joint-selector="rect" id="v-4059" fill="#ffffff" rx="3" ry="3" stroke="#ffffff" stroke-width="20px" pointer-events="none" width="163.9879913330078" height="63.1200008392334" transform="matrix(1,0,0,1,-82,-31.600000381469727)"></rect><text joint-selector="text" id="v-4058" font-size="24px" xml:space="preserve" y="0.8em" fill="#707070" text-anchor="middle" pointer-events="none" font-family="Open Sans" font-weight="normal" transform="matrix(1,0,0,1,0,-24.399999618530273)"><tspan  dy="0">gets LPA Code</tspan><tspan dy="1.2em" x="0" >from</tspan></text></g><g id="v-4056"  label-idx="1" cursor="move" transform="matrix(1,0,0,1,1764.5,701.2000122070312)" style="opacity: 1;"><rect joint-selector="rect" id="v-4061" fill="#ffffff" rx="3" ry="3" pointer-events="none" width="0" height="0" transform="matrix(1,0,0,1,0,0)"></rect><text joint-selector="text" id="v-4060" font-size="19px" xml:space="preserve" display="none" y="0.8em" fill="#707070" text-anchor="middle" pointer-events="none" font-family="Open Sans" font-weight="normal"><tspan style="fill-opacity: 0; stroke-opacity: 0;"  dy="0">-</tspan></text></g><g id="v-4057"  label-idx="2" cursor="move" transform="matrix(1,0,0,1,1764.5,725.2000122070312)" style="opacity: 1;"><rect joint-selector="rect" id="v-4063" fill="#ffffff" rx="3" ry="3" pointer-events="none"  width="0" height="0" transform="matrix(1,0,0,1,0,0)" display="none"></rect><text joint-selector="text" id="v-4062" font-size="19px" xml:space="preserve" display="none" y="0.8em" fill="#707070" text-anchor="middle" pointer-events="none" font-family="Open Sans" font-weight="normal" ><tspan style="fill-opacity: 0; stroke-opacity: 0;"  dy="0">-</tspan></text></g></g><g  display="none" style="display: none;"></g><g  id="v-4068" display="none"><g  id="v-4053"><path  end="source" d="M 26 0 L 0 13 L 26 26 z"></path></g><g  id="v-4054"><path  end="target" d="M 26 0 L 0 13 L 26 26 z"></path></g></g><g  id="v-4067" display="none"><g  id="v-4052" transform="translate(1647.751202926957, 536.8074770868063) "><g  event="remove"><circle r="11"></circle><path transform="scale(.8) translate(-16, -16)" d="M24.778,21.419 19.276,15.917 24.777,10.415 21.949,7.585 16.447,13.087 10.945,7.585 8.117,10.415 13.618,15.917 8.116,21.419 10.946,24.248 16.447,18.746 21.948,24.248z"></path><title>Remove link.</title></g><g  event="link:options"><circle r="11" transform="translate(25)"></circle><path fill="white" transform="scale(.55) translate(29, -16)" d="M31.229,17.736c0.064-0.571,0.104-1.148,0.104-1.736s-0.04-1.166-0.104-1.737l-4.377-1.557c-0.218-0.716-0.504-1.401-0.851-2.05l1.993-4.192c-0.725-0.91-1.549-1.734-2.458-2.459l-4.193,1.994c-0.647-0.347-1.334-0.632-2.049-0.849l-1.558-4.378C17.165,0.708,16.588,0.667,16,0.667s-1.166,0.041-1.737,0.105L12.707,5.15c-0.716,0.217-1.401,0.502-2.05,0.849L6.464,4.005C5.554,4.73,4.73,5.554,4.005,6.464l1.994,4.192c-0.347,0.648-0.632,1.334-0.849,2.05l-4.378,1.557C0.708,14.834,0.667,15.412,0.667,16s0.041,1.165,0.105,1.736l4.378,1.558c0.217,0.715,0.502,1.401,0.849,2.049l-1.994,4.193c0.725,0.909,1.549,1.733,2.459,2.458l4.192-1.993c0.648,0.347,1.334,0.633,2.05,0.851l1.557,4.377c0.571,0.064,1.148,0.104,1.737,0.104c0.588,0,1.165-0.04,1.736-0.104l1.558-4.377c0.715-0.218,1.399-0.504,2.049-0.851l4.193,1.993c0.909-0.725,1.733-1.549,2.458-2.458l-1.993-4.193c0.347-0.647,0.633-1.334,0.851-2.049L31.229,17.736zM16,20.871c-2.69,0-4.872-2.182-4.872-4.871c0-2.69,2.182-4.872,4.872-4.872c2.689,0,4.871,2.182,4.871,4.872C20.871,18.689,18.689,20.871,16,20.871z"></path><title>Link options.</title></g></g></g></g><g   id="j_285" ><path  stroke="#707070" d="M 3087 446 L 2438 700 C 2432 702.6666666666666 2426.333333333333 706 2421 710 L 2275 808" id="v-4085" stroke-width="2" stroke-dasharray="30 30" fill="none" style="opacity: 1;"></path><path  fill="black" stroke="black" d="M 0 0 0 0" transform="matrix(-0.9310738444328308,0.3648308217525482,-0.3648308217525482,-0.9310738444328308,3087,446.1700134277344)"></path><path  fill="#707070" stroke="#707070" d="M 20 0 L 0 10 L 20 20 z" id="v-4087" transform="matrix(0.8279461860656738,-0.5608075261116028,0.5608075261116028,0.8279461860656738,2269.85205078125,799.7205200195312)" style="opacity: 1;"></path><path  d="M 3087 446 L 2438 700 C 2432 702.6666666666666 2426.333333333333 706 2421 710 L 2275 808" id="v-4086" fill="none" style="cursor: auto; pointer-events: visiblepainted;"></path><g ><g id="v-4076"  label-idx="0" cursor="move" transform="matrix(1,0,0,1,2671.425048828125,608.6441650390625)" style="opacity: 1;"><rect joint-selector="rect" id="v-4080" fill="#ffffff" rx="3" ry="3" stroke="#ffffff" stroke-width="20px" pointer-events="none" width="158.48800659179688" height="34.31999969482422" transform="matrix(1,0,0,1,-79.19999694824219,-17.200000762939453)"></rect><text joint-selector="text" id="v-4079" font-size="24px" xml:space="preserve" y="0.8em" fill="#707070" text-anchor="middle" pointer-events="none" font-family="Open Sans" font-weight="normal" transform="matrix(1,0,0,1,0,-10)"><tspan  dy="0">writes data to</tspan></text></g><g id="v-4077"  label-idx="1" cursor="move" transform="matrix(1,0,0,1,2671.425048828125,639.8441162109375)" style="opacity: 1;"><rect joint-selector="rect" id="v-4082" fill="#ffffff" rx="3" ry="3" pointer-events="none" width="0" height="0" transform="matrix(1,0,0,1,0,0)"></rect><text joint-selector="text" id="v-4081" font-size="19px" xml:space="preserve" display="none" y="0.8em" fill="#707070" text-anchor="middle" pointer-events="none" font-family="Open Sans" font-weight="normal"><tspan style="fill-opacity: 0; stroke-opacity: 0;"  dy="0">-</tspan></text></g><g id="v-4078"  label-idx="2" cursor="move" transform="matrix(1,0,0,1,2671.425048828125,663.8441162109375)" style="opacity: 1;"><rect joint-selector="rect" id="v-4084" fill="#ffffff" rx="3" ry="3" pointer-events="none"  width="0" height="0" transform="matrix(1,0,0,1,0,0)" display="none"></rect><text joint-selector="text" id="v-4083" font-size="19px" xml:space="preserve" display="none" y="0.8em" fill="#707070" text-anchor="middle" pointer-events="none" font-family="Open Sans" font-weight="normal" ><tspan style="fill-opacity: 0; stroke-opacity: 0;"  dy="0">-</tspan></text></g></g><g  display="none" style="display: none;"><g  transform="translate(2429, 704)" id="v-4073"><circle  idx="0" r="10"></circle><path  idx="0" d="M16,5.333c-7.732,0-14,4.701-14,10.5c0,1.982,0.741,3.833,2.016,5.414L2,25.667l5.613-1.441c2.339,1.317,5.237,2.107,8.387,2.107c7.732,0,14-4.701,14-10.5C30,10.034,23.732,5.333,16,5.333z" transform="translate(5, -33)"></path><path  idx="0" transform="scale(.8) translate(9.5, -37)" d="M24.778,21.419 19.276,15.917 24.777,10.415 21.949,7.585 16.447,13.087 10.945,7.585 8.117,10.415 13.618,15.917 8.116,21.419 10.946,24.248 16.447,18.746 21.948,24.248z"><title>Remove vertex.</title></path></g></g><g  id="v-4089" display="none"><g  id="v-4074"><path  end="source" d="M 26 0 L 0 13 L 26 26 z"></path></g><g  id="v-4075"><path  end="target" d="M 26 0 L 0 13 L 26 26 z"></path></g></g><g  id="v-4088" display="none"><g  id="v-4072" transform="translate(3049.751135674951, 460.57813796388655) "><g  event="remove"><circle r="11"></circle><path transform="scale(.8) translate(-16, -16)" d="M24.778,21.419 19.276,15.917 24.777,10.415 21.949,7.585 16.447,13.087 10.945,7.585 8.117,10.415 13.618,15.917 8.116,21.419 10.946,24.248 16.447,18.746 21.948,24.248z"></path><title>Remove link.</title></g><g  event="link:options"><circle r="11" transform="translate(25)"></circle><path fill="white" transform="scale(.55) translate(29, -16)" d="M31.229,17.736c0.064-0.571,0.104-1.148,0.104-1.736s-0.04-1.166-0.104-1.737l-4.377-1.557c-0.218-0.716-0.504-1.401-0.851-2.05l1.993-4.192c-0.725-0.91-1.549-1.734-2.458-2.459l-4.193,1.994c-0.647-0.347-1.334-0.632-2.049-0.849l-1.558-4.378C17.165,0.708,16.588,0.667,16,0.667s-1.166,0.041-1.737,0.105L12.707,5.15c-0.716,0.217-1.401,0.502-2.05,0.849L6.464,4.005C5.554,4.73,4.73,5.554,4.005,6.464l1.994,4.192c-0.347,0.648-0.632,1.334-0.849,2.05l-4.378,1.557C0.708,14.834,0.667,15.412,0.667,16s0.041,1.165,0.105,1.736l4.378,1.558c0.217,0.715,0.502,1.401,0.849,2.049l-1.994,4.193c0.725,0.909,1.549,1.733,2.459,2.458l4.192-1.993c0.648,0.347,1.334,0.633,2.05,0.851l1.557,4.377c0.571,0.064,1.148,0.104,1.737,0.104c0.588,0,1.165-0.04,1.736-0.104l1.558-4.377c0.715-0.218,1.399-0.504,2.049-0.851l4.193,1.993c0.909-0.725,1.733-1.549,2.458-2.458l-1.993-4.193c0.347-0.647,0.633-1.334,0.851-2.049L31.229,17.736zM16,20.871c-2.69,0-4.872-2.182-4.872-4.871c0-2.69,2.182-4.872,4.872-4.872c2.689,0,4.871,2.182,4.871,4.872C20.871,18.689,18.689,20.871,16,20.871z"></path><title>Link options.</title></g></g></g></g><g   id="j_286" ><path  stroke="#707070" d="M 1304 1108 L 1304 1408" id="v-4105" stroke-width="2" stroke-dasharray="30 30" fill="none" style="opacity: 1;"></path><path  fill="black" stroke="black" d="M 0 0 0 0" transform="matrix(6.123234262925839e-17,1,-1,6.123234262925839e-17,1304,1108)"></path><path  fill="#707070" stroke="#707070" d="M 20 0 L 0 10 L 20 20 z" id="v-4107" transform="matrix(-1.8369701465288538e-16,-1,1,-1.8369701465288538e-16,1294,1408)" style="opacity: 1;"></path><path  d="M 1304 1108 L 1304 1408" id="v-4106" fill="none" style="cursor: auto; pointer-events: visiblepainted;"></path><g ><g id="v-4096"  label-idx="0" cursor="move" transform="matrix(1,0,0,1,1304,1258)" style="opacity: 1;"><rect joint-selector="rect" id="v-4100" fill="#ffffff" rx="3" ry="3" stroke="#ffffff" stroke-width="20px" pointer-events="none" width="181.5" height="63.1200008392334" transform="matrix(1,0,0,1,-90.69999694824219,-31.600000381469727)"></rect><text joint-selector="text" id="v-4099" font-size="24px" xml:space="preserve" y="0.8em" fill="#707070" text-anchor="middle" pointer-events="none" font-family="Open Sans" font-weight="normal" transform="matrix(1,0,0,1,0,-24.399999618530273)"><tspan  dy="0">writes validated</tspan><tspan dy="1.2em" x="0" >data to</tspan></text></g><g id="v-4097"  label-idx="1" cursor="move" transform="matrix(1,0,0,1,1304,1301.199951171875)" style="opacity: 1;"><rect joint-selector="rect" id="v-4102" fill="#ffffff" rx="3" ry="3" pointer-events="none" width="0" height="0" transform="matrix(1,0,0,1,0,0)"></rect><text joint-selector="text" id="v-4101" font-size="19px" xml:space="preserve" display="none" y="0.8em" fill="#707070" text-anchor="middle" pointer-events="none" font-family="Open Sans" font-weight="normal"><tspan style="fill-opacity: 0; stroke-opacity: 0;"  dy="0">-</tspan></text></g><g id="v-4098"  label-idx="2" cursor="move" transform="matrix(1,0,0,1,1304,1325.199951171875)" style="opacity: 1;"><rect joint-selector="rect" id="v-4104" fill="#ffffff" rx="3" ry="3" pointer-events="none"  width="0" height="0" transform="matrix(1,0,0,1,0,0)" display="none"></rect><text joint-selector="text" id="v-4103" font-size="19px" xml:space="preserve" display="none" y="0.8em" fill="#707070" text-anchor="middle" pointer-events="none" font-family="Open Sans" font-weight="normal" ><tspan style="fill-opacity: 0; stroke-opacity: 0;"  dy="0">-</tspan></text></g></g><g  display="none" style="display: none;"></g><g  id="v-4109" display="none"><g  id="v-4094"><path  end="source" d="M 26 0 L 0 13 L 26 26 z"></path></g><g  id="v-4095"><path  end="target" d="M 26 0 L 0 13 L 26 26 z"></path></g></g><g  id="v-4108" display="none"><g  id="v-4093" transform="translate(1304, 1148) "><g  event="remove"><circle r="11"></circle><path transform="scale(.8) translate(-16, -16)" d="M24.778,21.419 19.276,15.917 24.777,10.415 21.949,7.585 16.447,13.087 10.945,7.585 8.117,10.415 13.618,15.917 8.116,21.419 10.946,24.248 16.447,18.746 21.948,24.248z"></path><title>Remove link.</title></g><g  event="link:options"><circle r="11" transform="translate(25)"></circle><path fill="white" transform="scale(.55) translate(29, -16)" d="M31.229,17.736c0.064-0.571,0.104-1.148,0.104-1.736s-0.04-1.166-0.104-1.737l-4.377-1.557c-0.218-0.716-0.504-1.401-0.851-2.05l1.993-4.192c-0.725-0.91-1.549-1.734-2.458-2.459l-4.193,1.994c-0.647-0.347-1.334-0.632-2.049-0.849l-1.558-4.378C17.165,0.708,16.588,0.667,16,0.667s-1.166,0.041-1.737,0.105L12.707,5.15c-0.716,0.217-1.401,0.502-2.05,0.849L6.464,4.005C5.554,4.73,4.73,5.554,4.005,6.464l1.994,4.192c-0.347,0.648-0.632,1.334-0.849,2.05l-4.378,1.557C0.708,14.834,0.667,15.412,0.667,16s0.041,1.165,0.105,1.736l4.378,1.558c0.217,0.715,0.502,1.401,0.849,2.049l-1.994,4.193c0.725,0.909,1.549,1.733,2.459,2.458l4.192-1.993c0.648,0.347,1.334,0.633,2.05,0.851l1.557,4.377c0.571,0.064,1.148,0.104,1.737,0.104c0.588,0,1.165-0.04,1.736-0.104l1.558-4.377c0.715-0.218,1.399-0.504,2.049-0.851l4.193,1.993c0.909-0.725,1.733-1.549,2.458-2.458l-1.993-4.193c0.347-0.647,0.633-1.334,0.851-2.049L31.229,17.736zM16,20.871c-2.69,0-4.872-2.182-4.872-4.871c0-2.69,2.182-4.872,4.872-4.872c2.689,0,4.871,2.182,4.871,4.872C20.871,18.689,18.689,20.871,16,20.871z"></path><title>Link options.</title></g></g></g></g><g   id="j_287" ><path  stroke="#707070" d="M 1525 1108 L 1671 1206 C 1676.3333333333333 1210 1682.3333333333333 1213 1689 1215 L 2541 1486" id="v-4126" stroke-width="2" stroke-dasharray="30 30" fill="none" style="opacity: 1;"></path><path  fill="black" stroke="black" d="M 0 0 0 0" transform="matrix(0.827946126461029,0.5608075857162476,-0.5608075857162476,0.827946126461029,1525.4599609375,1108)"></path><path  fill="#707070" stroke="#707070" d="M 20 0 L 0 10 L 20 20 z" id="v-4128" transform="matrix(-0.9528915286064148,-0.30331137776374817,0.30331137776374817,-0.9528915286064148,2537.967041015625,1495.908935546875)" style="opacity: 1;"></path><path  d="M 1525 1108 L 1671 1206 C 1676.3333333333333 1210 1682.3333333333333 1213 1689 1215 L 2541 1486" id="v-4127" fill="none" style="cursor: auto; pointer-events: visiblepainted;"></path><g ><g id="v-4117"  label-idx="0" cursor="move" transform="matrix(1,0,0,1,2021.5797119140625,1320.7852783203125)" style="opacity: 1;"><rect joint-selector="rect" id="v-4121" fill="#ffffff" rx="3" ry="3" stroke="#ffffff" stroke-width="20px" pointer-events="none" width="190.7840118408203" height="120.72000503540039" transform="matrix(1,0,0,1,-95.4000015258789,-60.400001525878906)"></rect><text joint-selector="text" id="v-4120" font-size="24px" xml:space="preserve" y="0.8em" fill="#707070" text-anchor="middle" pointer-events="none" font-family="Open Sans" font-weight="normal" transform="matrix(1,0,0,1,0,-53.20000076293945)"><tspan  dy="0">writes case</tspan><tspan dy="1.2em" x="0" >management</tspan><tspan dy="1.2em" x="0" >data to and read</tspan><tspan dy="1.2em" x="0" >data from</tspan></text></g><g id="v-4118"  label-idx="1" cursor="move" transform="matrix(1,0,0,1,2021.5797119140625,1390.3853759765625)" style="opacity: 1;"><rect joint-selector="rect" id="v-4123" fill="#ffffff" rx="3" ry="3" pointer-events="none" width="0" height="0" transform="matrix(1,0,0,1,0,0)"></rect><text joint-selector="text" id="v-4122" font-size="19px" xml:space="preserve" display="none" y="0.8em" fill="#707070" text-anchor="middle" pointer-events="none" font-family="Open Sans" font-weight="normal"><tspan style="fill-opacity: 0; stroke-opacity: 0;"  dy="0">-</tspan></text></g><g id="v-4119"  label-idx="2" cursor="move" transform="matrix(1,0,0,1,2021.5797119140625,1414.3853759765625)" style="opacity: 1;"><rect joint-selector="rect" id="v-4125" fill="#ffffff" rx="3" ry="3" pointer-events="none"  width="0" height="0" transform="matrix(1,0,0,1,0,0)" display="none"></rect><text joint-selector="text" id="v-4124" font-size="19px" xml:space="preserve" display="none" y="0.8em" fill="#707070" text-anchor="middle" pointer-events="none" font-family="Open Sans" font-weight="normal" ><tspan style="fill-opacity: 0; stroke-opacity: 0;"  dy="0">-</tspan></text></g></g><g  display="none" style="display: none;"><g  transform="translate(1679, 1212)" id="v-4114"><circle  idx="0" r="10"></circle><path  idx="0" d="M16,5.333c-7.732,0-14,4.701-14,10.5c0,1.982,0.741,3.833,2.016,5.414L2,25.667l5.613-1.441c2.339,1.317,5.237,2.107,8.387,2.107c7.732,0,14-4.701,14-10.5C30,10.034,23.732,5.333,16,5.333z" transform="translate(5, -33)"></path><path  idx="0" transform="scale(.8) translate(9.5, -37)" d="M24.778,21.419 19.276,15.917 24.777,10.415 21.949,7.585 16.447,13.087 10.945,7.585 8.117,10.415 13.618,15.917 8.116,21.419 10.946,24.248 16.447,18.746 21.948,24.248z"><title>Remove vertex.</title></path></g></g><g  id="v-4130" display="none"><g  id="v-4115"><path  end="source" d="M 26 0 L 0 13 L 26 26 z"></path></g><g  id="v-4116"><path  end="target" d="M 26 0 L 0 13 L 26 26 z"></path></g></g><g  id="v-4129" display="none"><g  id="v-4113" transform="translate(1558.2118528071271, 1130.2928875006744) "><g  event="remove"><circle r="11"></circle><path transform="scale(.8) translate(-16, -16)" d="M24.778,21.419 19.276,15.917 24.777,10.415 21.949,7.585 16.447,13.087 10.945,7.585 8.117,10.415 13.618,15.917 8.116,21.419 10.946,24.248 16.447,18.746 21.948,24.248z"></path><title>Remove link.</title></g><g  event="link:options"><circle r="11" transform="translate(25)"></circle><path fill="white" transform="scale(.55) translate(29, -16)" d="M31.229,17.736c0.064-0.571,0.104-1.148,0.104-1.736s-0.04-1.166-0.104-1.737l-4.377-1.557c-0.218-0.716-0.504-1.401-0.851-2.05l1.993-4.192c-0.725-0.91-1.549-1.734-2.458-2.459l-4.193,1.994c-0.647-0.347-1.334-0.632-2.049-0.849l-1.558-4.378C17.165,0.708,16.588,0.667,16,0.667s-1.166,0.041-1.737,0.105L12.707,5.15c-0.716,0.217-1.401,0.502-2.05,0.849L6.464,4.005C5.554,4.73,4.73,5.554,4.005,6.464l1.994,4.192c-0.347,0.648-0.632,1.334-0.849,2.05l-4.378,1.557C0.708,14.834,0.667,15.412,0.667,16s0.041,1.165,0.105,1.736l4.378,1.558c0.217,0.715,0.502,1.401,0.849,2.049l-1.994,4.193c0.725,0.909,1.549,1.733,2.459,2.458l4.192-1.993c0.648,0.347,1.334,0.633,2.05,0.851l1.557,4.377c0.571,0.064,1.148,0.104,1.737,0.104c0.588,0,1.165-0.04,1.736-0.104l1.558-4.377c0.715-0.218,1.399-0.504,2.049-0.851l4.193,1.993c0.909-0.725,1.733-1.549,2.458-2.458l-1.993-4.193c0.347-0.647,0.633-1.334,0.851-2.049L31.229,17.736zM16,20.871c-2.69,0-4.872-2.182-4.872-4.871c0-2.69,2.182-4.872,4.872-4.872c2.689,0,4.871,2.182,4.871,4.872C20.871,18.689,18.689,20.871,16,20.871z"></path><title>Link options.</title></g></g></g></g><g   id="j_288" ><path  stroke="#707070" d="M 2182 508 L 2097 808" id="v-4146" stroke-width="2" stroke-dasharray="30 30" fill="none" style="opacity: 1;"></path><path  fill="black" stroke="black" d="M 0 0 0 0" transform="matrix(-0.27408602833747864,0.961705207824707,-0.961705207824707,-0.27408602833747864,2182.25,508)"></path><path  fill="#707070" stroke="#707070" d="M 20 0 L 0 10 L 20 20 z" id="v-4148" transform="matrix(0.2740861475467682,-0.9617051482200623,0.9617051482200623,0.2740861475467682,2087.133056640625,805.2590942382812)" style="opacity: 1;"></path><path  d="M 2182 508 L 2097 808" id="v-4147" fill="none" style="cursor: auto; pointer-events: visiblepainted;"></path><g ><g id="v-4137"  label-idx="0" cursor="move" transform="matrix(1,0,0,1,2139.5,658)" style="opacity: 1;"><rect joint-selector="rect" id="v-4141" fill="#ffffff" rx="3" ry="3" stroke="#ffffff" stroke-width="20px" pointer-events="none" width="162.1840057373047" height="34.31999969482422" transform="matrix(1,0,0,1,-81.0999984741211,-17.200000762939453)"></rect><text joint-selector="text" id="v-4140" font-size="24px" xml:space="preserve" y="0.8em" fill="#707070" text-anchor="middle" pointer-events="none" font-family="Open Sans" font-weight="normal" transform="matrix(1,0,0,1,0,-10)"><tspan  dy="0">makes calls to</tspan></text></g><g id="v-4138"  label-idx="1" cursor="move" transform="matrix(1,0,0,1,2139.5,689.2000122070312)" style="opacity: 1;"><rect joint-selector="rect" id="v-4143" fill="#ffffff" rx="3" ry="3" pointer-events="none" width="0" height="0" transform="matrix(1,0,0,1,0,0)"></rect><text joint-selector="text" id="v-4142" font-size="19px" xml:space="preserve" display="none" y="0.8em" fill="#707070" text-anchor="middle" pointer-events="none" font-family="Open Sans" font-weight="normal"><tspan style="fill-opacity: 0; stroke-opacity: 0;"  dy="0">-</tspan></text></g><g id="v-4139"  label-idx="2" cursor="move" transform="matrix(1,0,0,1,2139.5,713.2000122070312)" style="opacity: 1;"><rect joint-selector="rect" id="v-4145" fill="#ffffff" rx="3" ry="3" pointer-events="none"  width="0" height="0" transform="matrix(1,0,0,1,0,0)" display="none"></rect><text joint-selector="text" id="v-4144" font-size="19px" xml:space="preserve" display="none" y="0.8em" fill="#707070" text-anchor="middle" pointer-events="none" font-family="Open Sans" font-weight="normal" ><tspan style="fill-opacity: 0; stroke-opacity: 0;"  dy="0">-</tspan></text></g></g><g  display="none" style="display: none;"></g><g  id="v-4150" display="none"><g  id="v-4135"><path  end="source" d="M 26 0 L 0 13 L 26 26 z"></path></g><g  id="v-4136"><path  end="target" d="M 26 0 L 0 13 L 26 26 z"></path></g></g><g  id="v-4149" display="none"><g  id="v-4134" transform="translate(2171.095897101759, 546.4850690526154) "><g  event="remove"><circle r="11"></circle><path transform="scale(.8) translate(-16, -16)" d="M24.778,21.419 19.276,15.917 24.777,10.415 21.949,7.585 16.447,13.087 10.945,7.585 8.117,10.415 13.618,15.917 8.116,21.419 10.946,24.248 16.447,18.746 21.948,24.248z"></path><title>Remove link.</title></g><g  event="link:options"><circle r="11" transform="translate(25)"></circle><path fill="white" transform="scale(.55) translate(29, -16)" d="M31.229,17.736c0.064-0.571,0.104-1.148,0.104-1.736s-0.04-1.166-0.104-1.737l-4.377-1.557c-0.218-0.716-0.504-1.401-0.851-2.05l1.993-4.192c-0.725-0.91-1.549-1.734-2.458-2.459l-4.193,1.994c-0.647-0.347-1.334-0.632-2.049-0.849l-1.558-4.378C17.165,0.708,16.588,0.667,16,0.667s-1.166,0.041-1.737,0.105L12.707,5.15c-0.716,0.217-1.401,0.502-2.05,0.849L6.464,4.005C5.554,4.73,4.73,5.554,4.005,6.464l1.994,4.192c-0.347,0.648-0.632,1.334-0.849,2.05l-4.378,1.557C0.708,14.834,0.667,15.412,0.667,16s0.041,1.165,0.105,1.736l4.378,1.558c0.217,0.715,0.502,1.401,0.849,2.049l-1.994,4.193c0.725,0.909,1.549,1.733,2.459,2.458l4.192-1.993c0.648,0.347,1.334,0.633,2.05,0.851l1.557,4.377c0.571,0.064,1.148,0.104,1.737,0.104c0.588,0,1.165-0.04,1.736-0.104l1.558-4.377c0.715-0.218,1.399-0.504,2.049-0.851l4.193,1.993c0.909-0.725,1.733-1.549,2.458-2.458l-1.993-4.193c0.347-0.647,0.633-1.334,0.851-2.049L31.229,17.736zM16,20.871c-2.69,0-4.872-2.182-4.872-4.871c0-2.69,2.182-4.872,4.872-4.872c2.689,0,4.871,2.182,4.871,4.872C20.871,18.689,18.689,20.871,16,20.871z"></path><title>Link options.</title></g></g></g></g></g><g ></g><g ></g><g ></g></g></svg>