<svg xmlns="http://www.w3.org/2000/svg" xmlns:xlink="http://www.w3.org/1999/xlink" version="1.1" width="595.5" height="842.25" viewBox="0 0 595.5 842.25">
<defs>
<clipPath id="clip_0">
<path transform="matrix(.24,0,0,.24,0,0)" d="M0 0H2481.25V3509.375H0Z" fill-rule="evenodd"/>
</clipPath>
<clipPath id="clip_1">
<path transform="matrix(.24,0,0,.24,0,0)" d="M0 0H2481.25V3509.375H0Z" fill-rule="evenodd"/>
</clipPath>
<clipPath id="clip_2">
<path transform="matrix(.24,0,0,.24,0,0)" d="M0 0H2481.25V3509.375H0Z" fill-rule="evenodd"/>
</clipPath>
<path id="font_3_55" d="M.5890045 .5950012H.3769989V0H.23300171V.5950012H.020996094V.7160034H.5890045V.5950012Z"/>
<path id="font_3_75" d="M.20799256 .45199586C.23132833 .47932945 .25582887 .49916078 .28149415 .51148989 .3071696 .52382919 .3350067 .5299988 .3650055 .5299988 .39367167 .5299988 .4191691 .5256653 .4414978 .5169983 .46383668 .5083313 .48233543 .4969991 .49699403 .4830017 .527003 .45366416 .54200747 .3996633 .54200747 .32099916V0H.40499879V.29200746C.40499879 .32333885 .40299989 .3483378 .39900209 .3670044 .39500428 .385671 .38700358 .40000407 .375 .41000367 .36299644 .42000328 .34466554 .42500306 .32000733 .42500306 .27667237 .42500306 .24716695 .41100059 .23149109 .3829956 .2158254 .35500083 .20799256 .31766764 .20799256 .2709961V0H.070999149V.7160034H.20799256V.45199586Z"/>
<path id="font_3_76" d="M.20899964 .5890045H.072006229V.7160034H.20899964V.5890045M.20899964 0H.072006229V.5180054H.20899964V0Z"/>
<path id="font_3_86" d="M.2610016 .5299988C.32566834 .5299988 .37650047 .5193329 .41349793 .4980011 .4504954 .4766693 .47599793 .44167076 .4900055 .39300538L.3600006 .3690033C.3539988 .39033509 .34316508 .4061686 .3274994 .4165039 .3118337 .4268392 .28999839 .43200685 .2619934 .43200685 .20000203 .43200685 .16900635 .41767375 .16900635 .38900758 .16900635 .375 .1791687 .36383058 .19949341 .35549928 .2198283 .34716798 .24932862 .33866883 .28799439 .33000184 .33532716 .31933085 .37399293 .3084971 .4039917 .2975006 .43400065 .28650413 .45866905 .27017213 .47799684 .24850464 .4973348 .22683716 .5070038 .19800313 .5070038 .16200257 .5070038 .132665 .49883525 .10482788 .48249818 .07849121 .4661611 .052164716 .44032798 .03050232 .40499879 .013504028 .3696696-.0034942628 .32500205-.011993408 .2709961-.011993408 .21032715-.011993408 .15682476 .0010019938 .11048889 .026992798 .06416321 .052993776 .034998578 .09332784 .022994996 .147995L.16000366 .16900635C.17266846 .11366781 .20966594 .085998538 .2709961 .085998538 .29500328 .085998538 .31750489 .090164188 .33850099 .09849548 .35949708 .10682678 .36999513 .121663417 .36999513 .14300537 .36999513 .15700276 .36516319 .16683452 .35549928 .17250061 .34583537 .1781667 .33033753 .18333435 .30900575 .18800354 .24567159 .20200093 .19633484 .21499634 .16099549 .22698975 .1256663 .23899333 .09700012 .2563273 .07499695 .2789917 .05300395 .30166627 .042007448 .33233644 .042007448 .3710022 .042007448 .42499797 .062672939 .46499635 .104003909 .4909973 .14533489 .5169983 .19766744 .5299988 .2610016 .5299988Z"/>
<path id="font_3_3" d="M0 0Z"/>
<path id="font_3_81" d="M.36999513 .5299988C.40066529 .5299988 .42733256 .5248311 .44999696 .51449587 .47266136 .5041606 .49066163 .49199424 .5039978 .47799684 .5199992 .46066285 .53049728 .44016014 .53549197 .41648866 .5404968 .39282737 .54299929 .3666636 .54299929 .33799745V0H.40600587V.28300477C.40600587 .33099876 .40067039 .3666636 .3899994 .3899994 .3793284 .41333518 .35666404 .42500306 .32200624 .42500306 .28933207 .42500306 .2639923 .41566978 .24598694 .39700318 .22799175 .37833659 .21733094 .3566691 .21400452 .33200074 .21200054 .31599937 .210495 .30166627 .20948792 .28900147 .20849101 .27633668 .20799256 .26200358 .20799256 .2460022V0H.070999149V.5180054H.20100403V.44200135C.2156728 .46400453 .23750305 .48417155 .26649476 .50250247 .2954966 .5208333 .32999674 .5299988 .36999513 .5299988Z"/>
<path id="font_3_82" d="M.30700685 .5299988C.3630066 .5299988 .41133628 .5173289 .45199586 .49198915 .49266563 .46665956 .5233307 .43332926 .5439911 .3919983 .5646617 .35066734 .57499697 .30700175 .57499697 .2610016 .57499697 .21299744 .5641632 .16816204 .5424957 .12649536 .52082827 .0848287 .48982749 .051330568 .4494934 .026000977 .40916953 .0006713867 .3620046-.011993408 .30799867-.011993408 .2619985-.011993408 .21866353-.0024973553 .17799378 .016494751 .13733419 .03549703 .104166667 .065831508 .07849121 .10749817 .052825929 .14916484 .039993287 .20200093 .039993287 .26600648 .039993287 .31066386 .050160726 .35315959 .070495609 .39349366 .09083048 .43382774 .121164958 .46665956 .16149903 .49198915 .20183309 .5173289 .2503357 .5299988 .30700685 .5299988M.18099976 .2590027C.18099976 .20700073 .19316609 .16750081 .21749878 .14050293 .24183147 .11350504 .27166749 .1000061 .30700685 .1000061 .34233604 .1000061 .3723348 .1133372 .39700318 .13999939 .42167155 .16666158 .43400575 .20665996 .43400575 .2599945 .43400575 .30933128 .42217 .34799705 .39849855 .37599183 .37483726 .4039968 .3440043 .41799928 .30599977 .41799928 .2713318 .41799928 .24183147 .4043325 .21749878 .3769989 .19316609 .3496653 .18099976 .31033326 .18099976 .2590027Z"/>
<path id="font_3_87" d="M.21600342 .5180054H.30900575V.40899659H.21600342V.18099976C.21600342 .15899658 .21683248 .1426595 .2184906 .13198853 .22015889 .12132772 .22365825 .11366272 .22898865 .10899353 .23432923 .10433451 .2426656 .102005008 .2539978 .102005008 .2679952 .102005008 .28633119 .1063385 .30900575 .11500549L.32099916 .009002686C.30700175 .0023295086 .29000346-.0028381348 .27000428-.006500244 .2500051-.0101623539 .23100281-.011993408 .21299744-.011993408 .18699646-.011993408 .16399639-.007659912 .14399719 .0010070801 .12399801 .009674072 .10933431 .021336874 .1000061 .035995485 .09000651 .052668256 .083836879 .07116699 .08149719 .0914917 .07916769 .11182658 .07800293 .1373291 .07800293 .16799927V.40899659H.01499939V.5180054H.07800293V.6210022L.21600342 .70199587V.5180054Z"/>
<path id="font_3_72" d="M.27000428 .5299988C.35266624 .5299988 .41433207 .50316366 .45500184 .4494934 .4956716 .39583335 .51600649 .31933595 .51600649 .22000122H.17199707C.17332967 .18533325 .18349712 .15549724 .20249939 .13049317 .22150167 .10549927 .2490031 .09300232 .28500367 .09300232 .30766807 .09300232 .32616679 .098836269 .34049989 .11050415 .35483299 .122172039 .36533103 .14033509 .37199403 .16499329L.5090027 .14199829C.4916687 .09132894 .46366883 .052993776 .42500306 .026992798 .38633729 .0010019938 .33900453-.011993408 .28300477-.011993408 .19967143-.011993408 .13666789 .013005574 .09399414 .06300354 .07399496 .08633932 .05865987 .11567179 .04798889 .15100098 .037328084 .18633016 .03199768 .22132874 .03199768 .2559967 .03199768 .30332948 .040496828 .3478292 .057495119 .38949586 .07449341 .4311625 .10082499 .46499635 .13648987 .4909973 .17216492 .5169983 .21666973 .5299988 .27000428 .5299988M.17500305 .30400086H.38000489C.3793335 .3460032 .36883036 .3766683 .34849549 .3959961 .3281606 .41533409 .3043264 .42500306 .2769928 .42500306 .2450002 .42500306 .22000122 .41350303 .20199585 .39050294 .18400066 .36750285 .17500305 .33866883 .17500305 .30400086Z"/>
<path id="font_3_85" d="M.31199647 .5299988C.32666526 .5299988 .3421631 .5276642 .35849 .522995 .37482707 .518336 .389328 .5123393 .4019928 .5050049L.35899354 .3849945C.33566795 .3996633 .31433616 .40699769 .29499818 .40699769 .2689972 .40699769 .24932862 .39816285 .23599243 .38049317 .22266643 .36283366 .21383667 .33817039 .20950318 .3065033 .20516968 .2748362 .20300293 .23266602 .20300293 .17999268V0H.06599426V.5180054H.19299317V.44500733H.19500733C.21166992 .4730021 .22833252 .49416606 .24499512 .50849917 .26166789 .5228322 .28400169 .5299988 .31199647 .5299988Z"/>
<path id="font_3_74" d="M.2599945 .5299988C.29533387 .5299988 .32616679 .5223287 .3524933 .5069885 .37882997 .49165855 .4003347 .47132875 .41700746 .44599916H.41900636V.5180054H.5469971V.044006349C.5469971-.0139973959 .540329-.06116231 .5269928-.0974884 .5136668-.13382466 .48916627-.16166179 .4534912-.18099976 .41782633-.20033773 .36699424-.21000672 .30099488-.21000672 .21700032-.21000672 .15583293-.19517009 .117492679-.16549683 .0791626-.13583374 .05966695-.09200033 .059005739-.033996583L.21600342-.052993776C.21866863-.073664348 .22650147-.087498988 .23950196-.09449768 .25250245-.101496379 .27133689-.10499573 .29600526-.10499573 .33866883-.10499573 .3683319-.09749349 .3849945-.08248901 .40166728-.06749471 .41000367-.041330976 .41000367-.0039978029V.083999637H.40800477C.39067079 .058670045 .36849977 .038335165 .3414917 .022994996 .3144938 .0076649987 .2856649 0 .25500489 0 .21233113 0 .17482503 .011332194 .14248657 .033996583 .11015829 .05666097 .0851593 .08799235 .067489627 .12799073 .04983012 .16799927 .041000368 .21266683 .041000368 .2619934 .041000368 .32666017 .052164716 .3789927 .07449341 .4189911 .096832279 .45899964 .12466431 .48750306 .1579895 .50450137 .19132488 .52149966 .22532654 .5299988 .2599945 .5299988M.18200684 .27000428C.18200684 .22666931 .19066875 .1894989 .20799256 .15849304 .22532654 .12749736 .2536621 .11199951 .29299928 .11199951 .32299806 .11199951 .35049439 .1236674 .37548829 .14700318 .40049235 .17033895 .41299439 .21033733 .41299439 .2669983 .41299439 .30900065 .40382896 .34583537 .38549806 .37750245 .36716715 .40916953 .33666993 .42500306 .29400636 .42500306 .2526652 .42500306 .22366333 .40900169 .20700073 .3769989 .19033814 .34499613 .18200684 .30933128 .18200684 .27000428Z"/>
<path id="font_3_71" d="M.5469971 .7160034V0H.41900636V.07600403H.41700746C.39500428 .04266866 .36916606 .01966858 .3394928 .007003784 .3098297-.0056610109 .28266398-.011993408 .2579956-.011993408 .22000122-.011993408 .1845042-.001663208 .15150452 .018997193 .118504848 .039667768 .09183756 .07066854 .071502689 .11199951 .051167806 .15333049 .041000368 .20399983 .041000368 .26400758 .041000368 .32200114 .05083211 .3709971 .070495609 .41099549 .09016927 .45099388 .11650594 .4808248 .14950562 .5004883 .1825053 .5201619 .21900432 .5299988 .2590027 .5299988 .31766764 .5299988 .3680013 .5059967 .41000367 .45799256V.7160034H.5469971M.18200684 .2579956C.18200684 .20066326 .1928355 .15949504 .2144928 .13449097 .23616028 .10949707 .2616628 .09700012 .29100038 .09700012 .30899558 .09700012 .3271586 .10166422 .3454895 .11099243 .36383058 .12033081 .3796692 .13800049 .39300538 .16400147 .40499879 .18733724 .41099549 .22267151 .41099549 .27000428 .41099549 .32000224 .4003296 .3583323 .3789978 .3849945 .35766603 .41166688 .32966615 .42500306 .29499818 .42500306H.2899933C.2513275 .42299906 .22366333 .40616355 .20700073 .37449647 .19033814 .34282939 .18200684 .30399577 .18200684 .2579956Z"/>
<path id="font_3_47" d="M.22099304 .1210022H.58099368V0H.07699585V.7160034H.22099304V.1210022Z"/>
<path id="font_3_51" d="M.49699403 .6990051C.53299459 .683665 .5626628 .6593272 .58599856 .6259918 .6093343 .5926666 .6210022 .54933676 .6210022 .4960022 .6210022 .44400025 .60950216 .40083314 .5865021 .36650086 .563502 .33216859 .5343323 .30766807 .49899293 .29299928 .46300254 .27766929 .40567018 .27000428 .32699586 .27000428H.21699524V0H.07299805V.7160034H.32200624C.36800639 .7160034 .40467326 .71483358 .43200685 .7124939 .45934043 .71016439 .4810028 .70566818 .49699403 .6990051M.47200013 .4940033C.47200013 .53666689 .45099894 .56700137 .40899659 .5850067 .3936666 .59166976 .36133323 .5950012 .31199647 .5950012H.21699524V.39100648H.31199647C.36133323 .39100648 .4003347 .3978373 .42900086 .41149903 .45766703 .4251709 .47200013 .45267234 .47200013 .4940033Z"/>
<path id="font_3_36" d="M.71899417 0H.56100466L.49899293 .16200257H.21299744L.15400696 0H0L.27900697 .7160034H.43200685L.71899417 0M.25700379 .28300477H.45300294L.3540039 .548996 .25700379 .28300477Z"/>
<path id="font_3_17" d="M.20899964 0H.072006229V.13699341H.20899964V0Z"/>
<path id="font_3_60" d="M.33599855 .43299867 .5019989 .7160034H.66799929L.40499879 .30000306V0H.2610016V.30099488L-.0010070801 .7160034H.16799927L.33599855 .43299867Z"/>
<path id="font_3_88" d="M.20599365 .2519989C.20599365 .21533711 .2068278 .18866985 .2084961 .17199707 .21016439 .15533448 .21366374 .14200337 .21899414 .13200379 .22499593 .12067159 .23416138 .111338298 .24649048 .104003909 .25882975 .09666952 .27400209 .09300232 .29200746 .09300232 .31600444 .09300232 .33766685 .09966532 .35699464 .11299133 .3763326 .12632752 .38866679 .1426646 .3939972 .16200257 .399999 .18133037 .40299989 .22266133 .40299989 .28599549V.5180054H.5399933V0H.41299439V.07800293H.41099549C.3916677 .048665365 .3666687 .026331583 .33599855 .011001587 .30532838-.0043284099 .2736613-.011993408 .24099732-.011993408 .21166992-.011993408 .18383789-.005996704 .15750122 .005996704 .13116455 .018000285 .11099752 .03533427 .09700012 .057998659 .08700053 .07400004 .079833988 .091664638 .07550049 .11099243 .07116699 .1303304 .069000247 .15466817 .069000247 .18400574V.5180054H.20599365V.2519989Z"/>
<path id="font_3_70" d="M.104003909 .45199586C.14867147 .5039978 .21200562 .5299988 .29400636 .5299988 .41733805 .5299988 .4943339 .475001 .5249939 .3650055L.3899994 .34100343C.3786672 .39567057 .34733583 .42300416 .29600526 .42300416 .26133729 .42300416 .23383586 .41100059 .21350098 .3869934 .19316609 .36299644 .18299866 .32400004 .18299866 .27000428 .18299866 .21733094 .19166565 .17582703 .20899964 .14549256 .22633362 .11516825 .2560018 .1000061 .29800416 .1000061 .32533775 .1000061 .34716798 .108169559 .36349488 .12449646 .37983195 .14083354 .39100138 .16566976 .39700318 .19900513L.5319977 .17599488C.50400289 .050669355 .42367045-.011993408 .29100038-.011993408 .21233623-.011993408 .15166728 .012003581 .10899353 .05999756 .08700053 .08466593 .07033793 .11466471 .059005739 .1499939 .047673543 .18533325 .042007448 .22166951 .042007448 .2590027 .042007448 .29766847 .04733785 .33366905 .057998659 .3670044 .06866964 .40033976 .08400472 .42867027 .104003909 .45199586Z"/>
<path id="font_3_68" d="M.27400209 .5299988C.34000144 .5299988 .3889974 .52149966 .42099 .50450137 .45299278 .48750306 .4731598 .46516929 .4814911 .4375 .48983256 .40983073 .4936676 .3733317 .49299623 .32800294L.4920044 .17700196C.491333 .12966919 .49299623 .095336917 .49699403 .07400513 .501002 .05267334 .5093384 .028004965 .5220032 0H.3869934C.383667 .007334391 .3776703 .02633667 .3690033 .057006837 .34433494 .032999677 .3188324 .015497844 .29249574 .004501343 .26616923-.0064951579 .23800151-.011993408 .20799256-.011993408 .15666199-.011993408 .11516317 .0021718343 .083496097 .03050232 .05182902 .058832807 .035995485 .09566752 .035995485 .14100647 .035995485 .17900086 .045496625 .2091624 .0644989 .23149109 .08350118 .25382997 .106669109 .26999919 .13400269 .27999879 .16133626 .28999839 .19366963 .29866538 .23100281 .30599977 .28833518 .31667076 .33066813 .32733665 .3580017 .33799745V.3600006C.3580017 .382665 .35133363 .39916484 .33799745 .40950013 .32466126 .41983543 .30032859 .42500306 .2649994 .42500306 .23766582 .42500306 .21733094 .41949974 .20399475 .40849305 .19066875 .39749656 .18066915 .3813324 .17399597 .3600006L.05000305 .3829956C.06333923 .43366496 .08733622 .4708303 .12199402 .49449159 .15666199 .518163 .20733135 .5299988 .27400209 .5299988M.27200318 .227005 .24899292 .22200012C.19833374 .21132915 .17300415 .18933106 .17300415 .15600586 .17300415 .13600667 .1801707 .11917114 .19450379 .10549927 .20883687 .09183756 .22699993 .085006717 .24899292 .085006717 .2669983 .085006717 .28499858 .089670818 .30299378 .09899902 .32099916 .1083374 .33500163 .12067159 .34500123 .13600159 .3536682 .14999898 .3580017 .17399597 .3580017 .20799256V.24899292C.33200074 .24099732 .30333457 .23366802 .27200318 .227005Z"/>
<path id="font_3_89" d="M.2460022 .25700379 .2649994 .19599915C.2689972 .18133037 .27199809 .17133077 .27400209 .16600037H.27600099C.28600059 .20333354 .29533387 .23266602 .30400086 .2539978L.40299989 .5180054H.54400637L.33799745 0H.21400452L.005004883 .5180054H.14900208L.2460022 .25700379Z"/>
</defs>
<g clip-path="url(#clip_0)">
<path transform="matrix(.75,0,0,.75,0,0)" d="M0 0H794V1123H0Z" fill="transparent"/>
</g>
<g clip-path="url(#clip_1)">
<path transform="matrix(.75,0,0,.75,0,0)" d="M0 0H794V1123H0Z" fill="transparent"/>
</g>
<g clip-path="url(#clip_2)">
<use data-text="T" xlink:href="#font_3_55" transform="matrix(21.625555,-31.118502,-31.118502,-21.625555,67.47448,744.07498)" fill="#ff3131"/>
<use data-text="h" xlink:href="#font_3_75" transform="matrix(21.625555,-31.118502,-31.118502,-21.625555,80.687229,725.0622)" fill="#ff3131"/>
<use data-text="i" xlink:href="#font_3_76" transform="matrix(21.625555,-31.118502,-31.118502,-21.625555,93.89998,706.0495)" fill="#ff3131"/>
<use data-text="s" xlink:href="#font_3_86" transform="matrix(21.625555,-31.118502,-31.118502,-21.625555,99.91167,697.39889)" fill="#ff3131"/>
<use data-text=" " xlink:href="#font_3_3" transform="matrix(21.625555,-31.118502,-31.118502,-21.625555,111.93506,680.09756)" fill="#ff3131"/>
<use data-text="i" xlink:href="#font_3_76" transform="matrix(21.625555,-31.118502,-31.118502,-21.625555,117.94675,671.4469)" fill="#ff3131"/>
<use data-text="s" xlink:href="#font_3_86" transform="matrix(21.625555,-31.118502,-31.118502,-21.625555,123.958438,662.79629)" fill="#ff3131"/>
<use data-text=" " xlink:href="#font_3_3" transform="matrix(21.625555,-31.118502,-31.118502,-21.625555,135.98183,645.495)" fill="#ff3131"/>
<use data-text="n" xlink:href="#font_3_81" transform="matrix(21.625555,-31.118502,-31.118502,-21.625555,141.99352,636.84439)" fill="#ff3131"/>
<use data-text="o" xlink:href="#font_3_82" transform="matrix(21.625555,-31.118502,-31.118502,-21.625555,155.20627,617.83169)" fill="#ff3131"/>
<use data-text="t" xlink:href="#font_3_87" transform="matrix(21.625555,-31.118502,-31.118502,-21.625555,168.41902,598.8189)" fill="#ff3131"/>
<use data-text=" " xlink:href="#font_3_3" transform="matrix(21.625555,-31.118502,-31.118502,-21.625555,175.62007,588.4568)" fill="#ff3131"/>
<use data-text="t" xlink:href="#font_3_87" transform="matrix(21.625555,-31.118502,-31.118502,-21.625555,181.63178,579.80618)" fill="#ff3131"/>
<use data-text="h" xlink:href="#font_3_75" transform="matrix(21.625555,-31.118502,-31.118502,-21.625555,188.83283,569.4441)" fill="#ff3131"/>
<use data-text="e" xlink:href="#font_3_72" transform="matrix(21.625555,-31.118502,-31.118502,-21.625555,202.04557,550.43136)" fill="#ff3131"/>
<use data-text=" " xlink:href="#font_3_3" transform="matrix(21.625555,-31.118502,-31.118502,-21.625555,214.06894,533.13009)" fill="#ff3131"/>
<use data-text="r" xlink:href="#font_3_85" transform="matrix(21.625555,-31.118502,-31.118502,-21.625555,220.08063,524.47946)" fill="#ff3131"/>
<use data-text="e" xlink:href="#font_3_72" transform="matrix(21.625555,-31.118502,-31.118502,-21.625555,228.49268,512.37478)" fill="#ff3131"/>
<use data-text="g" xlink:href="#font_3_74" transform="matrix(21.625555,-31.118502,-31.118502,-21.625555,240.51605,495.07353)" fill="#ff3131"/>
<use data-text="i" xlink:href="#font_3_76" transform="matrix(21.625555,-31.118502,-31.118502,-21.625555,253.72879,476.0608)" fill="#ff3131"/>
<use data-text="s" xlink:href="#font_3_86" transform="matrix(21.625555,-31.118502,-31.118502,-21.625555,259.74049,467.41017)" fill="#ff3131"/>
<use data-text="t" xlink:href="#font_3_87" transform="matrix(21.625555,-31.118502,-31.118502,-21.625555,271.76387,450.1089)" fill="#ff3131"/>
<use data-text="e" xlink:href="#font_3_72" transform="matrix(21.625555,-31.118502,-31.118502,-21.625555,278.9649,439.7468)" fill="#ff3131"/>
<use data-text="r" xlink:href="#font_3_85" transform="matrix(21.625555,-31.118502,-31.118502,-21.625555,290.98829,422.44554)" fill="#ff3131"/>
<use data-text="e" xlink:href="#font_3_72" transform="matrix(21.625555,-31.118502,-31.118502,-21.625555,299.4003,410.34086)" fill="#ff3131"/>
<use data-text="d" xlink:href="#font_3_71" transform="matrix(21.625555,-31.118502,-31.118502,-21.625555,311.42369,393.0396)" fill="#ff3131"/>
<use data-text=" " xlink:href="#font_3_3" transform="matrix(21.625555,-31.118502,-31.118502,-21.625555,324.6364,374.0269)" fill="#ff3131"/>
<use data-text="L" xlink:href="#font_3_47" transform="matrix(21.625555,-31.118502,-31.118502,-21.625555,330.6481,365.37626)" fill="#ff3131"/>
<use data-text="P" xlink:href="#font_3_51" transform="matrix(21.625555,-31.118502,-31.118502,-21.625555,343.86085,346.36354)" fill="#ff3131"/>
<use data-text="A" xlink:href="#font_3_36" transform="matrix(21.625555,-31.118502,-31.118502,-21.625555,358.28459,325.60823)" fill="#ff3131"/>
<use data-text="." xlink:href="#font_3_17" transform="matrix(21.625555,-31.118502,-31.118502,-21.625555,373.89768,303.14146)" fill="#ff3131"/>
<use data-text=" " xlink:href="#font_3_3" transform="matrix(21.625555,-31.118502,-31.118502,-21.625555,379.90937,294.4908)" fill="#ff3131"/>
<use data-text="Y" xlink:href="#font_3_60" transform="matrix(21.625555,-31.118502,-31.118502,-21.625555,385.92106,285.84019)" fill="#ff3131"/>
<use data-text="o" xlink:href="#font_3_82" transform="matrix(21.625555,-31.118502,-31.118502,-21.625555,400.3448,265.08488)" fill="#ff3131"/>
<use data-text="u" xlink:href="#font_3_88" transform="matrix(21.625555,-31.118502,-31.118502,-21.625555,413.55754,246.07215)" fill="#ff3131"/>
<use data-text=" " xlink:href="#font_3_3" transform="matrix(21.625555,-31.118502,-31.118502,-21.625555,426.7703,227.05945)" fill="#ff3131"/>
<use data-text="c" xlink:href="#font_3_70" transform="matrix(21.625555,-31.118502,-31.118502,-21.625555,432.78196,218.40882)" fill="#ff3131"/>
<use data-text="a" xlink:href="#font_3_68" transform="matrix(21.625555,-31.118502,-31.118502,-21.625555,444.80534,201.10755)" fill="#ff3131"/>
<use data-text="n" xlink:href="#font_3_81" transform="matrix(21.625555,-31.118502,-31.118502,-21.625555,456.8287,183.80628)" fill="#ff3131"/>
<use data-text="n" xlink:href="#font_3_81" transform="matrix(21.625555,-31.118502,-31.118502,-21.625555,470.04148,164.79352)" fill="#ff3131"/>
<use data-text="o" xlink:href="#font_3_82" transform="matrix(21.625555,-31.118502,-31.118502,-21.625555,483.2542,145.78083)" fill="#ff3131"/>
<use data-text="t" xlink:href="#font_3_87" transform="matrix(21.625555,-31.118502,-31.118502,-21.625555,496.46696,126.76807)" fill="#ff3131"/>
<use data-text="u" xlink:href="#font_3_88" transform="matrix(21.625555,-31.118502,-31.118502,-21.625555,110.51779,773.98757)" fill="#ff3131"/>
<use data-text="s" xlink:href="#font_3_86" transform="matrix(21.625555,-31.118502,-31.118502,-21.625555,123.730548,754.97488)" fill="#ff3131"/>
<use data-text="e" xlink:href="#font_3_72" transform="matrix(21.625555,-31.118502,-31.118502,-21.625555,135.75392,737.6735)" fill="#ff3131"/>
<use data-text=" " xlink:href="#font_3_3" transform="matrix(21.625555,-31.118502,-31.118502,-21.625555,147.77732,720.37228)" fill="#ff3131"/>
<use data-text="i" xlink:href="#font_3_76" transform="matrix(21.625555,-31.118502,-31.118502,-21.625555,153.789,711.7216)" fill="#ff3131"/>
<use data-text="t" xlink:href="#font_3_87" transform="matrix(21.625555,-31.118502,-31.118502,-21.625555,159.80069,703.071)" fill="#ff3131"/>
<use data-text=" " xlink:href="#font_3_3" transform="matrix(21.625555,-31.118502,-31.118502,-21.625555,167.00176,692.7089)" fill="#ff3131"/>
<use data-text="o" xlink:href="#font_3_82" transform="matrix(21.625555,-31.118502,-31.118502,-21.625555,173.01345,684.0583)" fill="#ff3131"/>
<use data-text="r" xlink:href="#font_3_85" transform="matrix(21.625555,-31.118502,-31.118502,-21.625555,186.2262,665.04556)" fill="#ff3131"/>
<use data-text=" " xlink:href="#font_3_3" transform="matrix(21.625555,-31.118502,-31.118502,-21.625555,194.63823,652.94088)" fill="#ff3131"/>
<use data-text="g" xlink:href="#font_3_74" transform="matrix(21.625555,-31.118502,-31.118502,-21.625555,200.64994,644.2902)" fill="#ff3131"/>
<use data-text="i" xlink:href="#font_3_76" transform="matrix(21.625555,-31.118502,-31.118502,-21.625555,213.86269,625.27749)" fill="#ff3131"/>
<use data-text="v" xlink:href="#font_3_89" transform="matrix(21.625555,-31.118502,-31.118502,-21.625555,219.87438,616.62686)" fill="#ff3131"/>
<use data-text="e" xlink:href="#font_3_72" transform="matrix(21.625555,-31.118502,-31.118502,-21.625555,231.89775,599.3256)" fill="#ff3131"/>
<use data-text=" " xlink:href="#font_3_3" transform="matrix(21.625555,-31.118502,-31.118502,-21.625555,243.92113,582.0243)" fill="#ff3131"/>
<use data-text="o" xlink:href="#font_3_82" transform="matrix(21.625555,-31.118502,-31.118502,-21.625555,249.93282,573.37368)" fill="#ff3131"/>
<use data-text="r" xlink:href="#font_3_85" transform="matrix(21.625555,-31.118502,-31.118502,-21.625555,263.14555,554.36099)" fill="#ff3131"/>
<use data-text="g" xlink:href="#font_3_74" transform="matrix(21.625555,-31.118502,-31.118502,-21.625555,271.5576,542.2563)" fill="#ff3131"/>
<use data-text="a" xlink:href="#font_3_68" transform="matrix(21.625555,-31.118502,-31.118502,-21.625555,284.77033,523.2435)" fill="#ff3131"/>
<use data-text="n" xlink:href="#font_3_81" transform="matrix(21.625555,-31.118502,-31.118502,-21.625555,296.7937,505.9423)" fill="#ff3131"/>
<use data-text="i" xlink:href="#font_3_76" transform="matrix(21.625555,-31.118502,-31.118502,-21.625555,310.00645,486.92958)" fill="#ff3131"/>
<use data-text="s" xlink:href="#font_3_86" transform="matrix(21.625555,-31.118502,-31.118502,-21.625555,316.01814,478.27897)" fill="#ff3131"/>
<use data-text="a" xlink:href="#font_3_68" transform="matrix(21.625555,-31.118502,-31.118502,-21.625555,328.0415,460.9777)" fill="#ff3131"/>
<use data-text="t" xlink:href="#font_3_87" transform="matrix(21.625555,-31.118502,-31.118502,-21.625555,340.06489,443.67643)" fill="#ff3131"/>
<use data-text="i" xlink:href="#font_3_76" transform="matrix(21.625555,-31.118502,-31.118502,-21.625555,347.26594,433.31434)" fill="#ff3131"/>
<use data-text="o" xlink:href="#font_3_82" transform="matrix(21.625555,-31.118502,-31.118502,-21.625555,353.27763,424.6637)" fill="#ff3131"/>
<use data-text="n" xlink:href="#font_3_81" transform="matrix(21.625555,-31.118502,-31.118502,-21.625555,366.49037,405.65098)" fill="#ff3131"/>
<use data-text="s" xlink:href="#font_3_86" transform="matrix(21.625555,-31.118502,-31.118502,-21.625555,379.7031,386.63825)" fill="#ff3131"/>
<use data-text=" " xlink:href="#font_3_3" transform="matrix(21.625555,-31.118502,-31.118502,-21.625555,391.72648,369.33699)" fill="#ff3131"/>
<use data-text="a" xlink:href="#font_3_68" transform="matrix(21.625555,-31.118502,-31.118502,-21.625555,397.73817,360.68635)" fill="#ff3131"/>
<use data-text="c" xlink:href="#font_3_70" transform="matrix(21.625555,-31.118502,-31.118502,-21.625555,409.76155,343.3851)" fill="#ff3131"/>
<use data-text="c" xlink:href="#font_3_70" transform="matrix(21.625555,-31.118502,-31.118502,-21.625555,421.7849,326.08384)" fill="#ff3131"/>
<use data-text="e" xlink:href="#font_3_72" transform="matrix(21.625555,-31.118502,-31.118502,-21.625555,433.8083,308.78257)" fill="#ff3131"/>
<use data-text="s" xlink:href="#font_3_86" transform="matrix(21.625555,-31.118502,-31.118502,-21.625555,445.83168,291.4813)" fill="#ff3131"/>
<use data-text="s" xlink:href="#font_3_86" transform="matrix(21.625555,-31.118502,-31.118502,-21.625555,457.85505,274.18003)" fill="#ff3131"/>
<use data-text=" " xlink:href="#font_3_3" transform="matrix(21.625555,-31.118502,-31.118502,-21.625555,469.87843,256.87879)" fill="#ff3131"/>
<use data-text="t" xlink:href="#font_3_87" transform="matrix(21.625555,-31.118502,-31.118502,-21.625555,475.8901,248.22815)" fill="#ff3131"/>
<use data-text="o" xlink:href="#font_3_82" transform="matrix(21.625555,-31.118502,-31.118502,-21.625555,483.09117,237.86603)" fill="#ff3131"/>
<use data-text=" " xlink:href="#font_3_3" transform="matrix(21.625555,-31.118502,-31.118502,-21.625555,496.3039,218.85334)" fill="#ff3131"/>
<use data-text="i" xlink:href="#font_3_76" transform="matrix(21.625555,-31.118502,-31.118502,-21.625555,502.31559,210.2027)" fill="#ff3131"/>
<use data-text="t" xlink:href="#font_3_87" transform="matrix(21.625555,-31.118502,-31.118502,-21.625555,508.32728,201.55207)" fill="#ff3131"/>
</g>
</svg>
